<svg width="1256" height="5676" viewBox="0 0 1256 5676" fill="none" xmlns="http://www.w3.org/2000/svg">
<g clip-path="url(#clip0_343_338)">
<path d="M503.433 -4.30454C506.115 106.5 513.152 229.736 527.423 361.489C572.214 774.48 643.932 861.861 651.32 1122.8C661.558 1479.54 533.534 1526.22 434.747 2006.89C409.439 2130.21 300.052 2662.52 359.292 3210.58C440.012 3957.6 780.036 4233.93 759.012 4580.47C745.452 4804.72 600.663 4729.38 435.908 5099.38C366.615 5256.5 310.344 5451.71 269.799 5675.63" stroke="#4D8CC6" stroke-opacity="0.07" stroke-width="5" stroke-miterlimit="10"/>
<path d="M518.727 -4.30423C521.372 107.035 528.414 230.968 542.787 363.505C587.546 776.498 659.263 863.879 666.651 1124.82C676.862 1481.65 548.832 1528.24 450.084 2009C424.736 2132.23 315.356 2664.64 374.59 3212.6C455.316 3959.71 795.334 4235.95 774.349 4582.58C760.75 4806.74 615.967 4731.5 451.239 5101.39C381.969 5258.59 325.724 5453.86 285.208 5677.83" stroke="#4D8CC6" stroke-opacity="0.07" stroke-width="5" stroke-miterlimit="10"/>
<path d="M534.243 -4.30365C536.851 107.562 543.891 232.22 558.355 365.607C603.147 778.598 674.831 865.98 682.219 1126.92C692.457 1483.66 564.4 1530.34 465.646 2011.01C440.304 2134.33 330.918 2666.65 390.158 3214.71C470.977 3961.71 811.013 4238.23 790.01 4584.58C776.418 4808.84 631.628 4733.5 466.899 5103.4C397.639 5260.65 341.398 5455.95 300.875 5679.92" stroke="#4D8CC6" stroke-opacity="0.07" stroke-width="5" stroke-miterlimit="10"/>
<path d="M549.961 -4.30445C552.53 108.088 559.567 233.434 574.116 367.598C618.908 780.589 690.593 867.972 697.981 1128.91C708.225 1485.74 580.162 1532.33 481.414 2013.1C456.066 2136.32 346.686 2668.73 405.92 3216.7C486.646 3963.8 826.663 4240.04 805.672 4586.58C792.08 4810.84 647.33 4735.59 482.568 5105.49C413.261 5262.62 356.969 5457.83 316.394 5681.75" stroke="#4D8CC6" stroke-opacity="0.07" stroke-width="5" stroke-miterlimit="10"/>
<path d="M565.271 -3.30439C567.823 109.334 574.859 235.031 589.453 369.616C634.251 782.699 705.935 870.082 713.317 1130.93C723.561 1487.76 595.504 1534.44 496.75 2015.11C471.442 2138.43 362.055 2670.75 421.262 3218.81C501.982 3965.82 842.006 4242.15 821.015 4588.69C807.416 4812.86 662.666 4737.61 497.904 5107.51C428.654 5264.75 372.412 5460.02 331.874 5683.94" stroke="#4D8CC6" stroke-opacity="0.07" stroke-width="5" stroke-miterlimit="10"/>
<path d="M580.786 -3.80396C583.286 109.515 590.316 236.114 605.022 371.721C649.814 784.712 721.532 872.092 728.92 1133.03C739.164 1489.86 611.134 1536.45 512.353 2017.22C487.038 2140.44 377.657 2672.85 436.858 3220.82C517.585 3967.92 857.602 4244.16 836.611 4590.7C823.019 4814.96 678.269 4739.71 513.507 5109.61C444.247 5266.83 388.004 5462.1 347.477 5686.04" stroke="#4D8CC6" stroke-opacity="0.07" stroke-width="5" stroke-miterlimit="10"/>
<path d="M596.272 -4.30412C598.72 109.637 605.74 237.102 620.554 373.724C665.352 786.807 737.07 874.188 744.452 1135.04C754.695 1491.87 626.671 1538.55 527.884 2019.22C502.576 2142.54 393.189 2674.85 452.396 3222.91C532.972 3969.75 873.107 4246.26 852.137 4592.61C838.539 4816.78 693.788 4741.53 529.027 5111.43C459.785 5268.7 403.544 5463.96 362.996 5687.86" stroke="#4D8CC6" stroke-opacity="0.07" stroke-width="5" stroke-miterlimit="10"/>
<path d="M611.772 -4.3041C614.175 110.21 621.188 238.436 636.098 375.92C680.89 788.911 752.607 876.292 759.995 1137.23C770.239 1494.06 642.209 1540.65 543.428 2021.42C518.107 2144.55 408.727 2676.95 467.928 3224.92C548.654 3972.03 888.671 4248.27 867.681 4594.81C854.121 4819.06 709.338 4743.81 544.576 5113.71C475.317 5270.94 419.073 5466.21 378.546 5690.15" stroke="#4D8CC6" stroke-opacity="0.07" stroke-width="5" stroke-miterlimit="10"/>
<path d="M627.29 -4.80412C629.651 110.305 636.658 239.365 651.657 377.834C696.455 790.917 768.172 878.297 775.554 1139.15C785.798 1495.98 657.774 1542.66 558.987 2023.33C533.679 2146.65 424.292 2678.96 483.499 3227.02C564.186 3974.04 904.216 4250.46 883.219 4596.91C869.653 4821.07 724.87 4745.82 560.109 5115.72C490.858 5272.97 434.616 5468.23 394.078 5692.16" stroke="#4D8CC6" stroke-opacity="0.07" stroke-width="5" stroke-miterlimit="10"/>
<path d="M642.755 -4.80438C645.072 110.849 652.071 240.638 667.161 379.931C711.953 792.922 783.67 880.303 791.058 1141.24C801.302 1498.07 673.272 1544.66 574.491 2025.43C549.177 2148.65 439.796 2681.06 499.03 3229.03C579.639 3975.86 919.774 4252.37 898.732 4598.63C885.172 4822.89 740.389 4747.64 575.66 5117.54C506.382 5274.71 450.136 5469.99 409.63 5693.98" stroke="#4D8CC6" stroke-opacity="0.07" stroke-width="5" stroke-miterlimit="10"/>
<path d="M658.308 -5.30442C660.575 110.963 667.576 241.62 682.791 381.936C727.588 795.019 799.267 882.309 806.655 1143.25C816.899 1500.08 688.842 1546.76 590.088 2027.43C564.746 2150.75 455.36 2683.07 514.6 3231.13C595.32 3978.14 935.344 4254.47 914.353 4601.01C900.754 4825.17 755.971 4749.93 591.242 5119.82C521.973 5277.02 465.728 5472.29 425.212 5696.26" stroke="#4D8CC6" stroke-opacity="0.07" stroke-width="5" stroke-miterlimit="10"/>
<path d="M673.853 -4.80345C676.085 111.881 683.079 243.094 698.363 384.037C743.155 797.028 814.84 884.41 822.228 1145.35C832.472 1502.18 704.409 1548.77 605.661 2029.53C580.313 2152.76 470.932 2685.17 530.167 3233.14C610.827 3980.25 950.85 4256.58 929.853 4603.02C916.261 4827.28 771.478 4752.03 606.749 5121.93C537.479 5279.12 481.235 5474.4 440.719 5698.37" stroke="#4D8CC6" stroke-opacity="0.07" stroke-width="5" stroke-miterlimit="10"/>
<path d="M689.276 -4.80432C691.468 112.366 698.456 244.275 713.828 386.045C758.626 799.129 830.305 886.42 837.693 1147.36C847.937 1504.19 719.88 1550.87 621.126 2031.54C595.811 2154.77 486.431 2687.18 545.638 3235.24C626.307 3981.98 966.447 4258.58 945.372 4604.84C931.774 4829.01 787.023 4753.76 622.262 5123.66C553.002 5280.88 496.759 5476.15 456.231 5700.09" stroke="#4D8CC6" stroke-opacity="0.07" stroke-width="5" stroke-miterlimit="10"/>
<path d="M704.744 -4.80351C706.89 112.907 713.867 245.546 729.332 388.146C774.123 801.137 845.841 888.517 853.229 1149.46C863.473 1506.29 735.443 1552.88 636.662 2033.64C611.347 2156.87 501.966 2689.27 561.267 3237.24C641.993 3984.34 982.011 4260.58 961.02 4607.12C947.427 4831.38 802.677 4756.13 637.915 5126.03C568.645 5283.22 512.401 5478.49 471.885 5702.46" stroke="#4D8CC6" stroke-opacity="0.07" stroke-width="5" stroke-miterlimit="10"/>
<path d="M720.37 -4.80368C722.475 113.387 729.445 246.722 744.997 390.149C789.795 803.233 861.506 890.521 868.894 1151.46C879.138 1508.29 751.114 1554.97 652.327 2035.64C627.013 2158.87 517.632 2691.28 576.839 3239.34C657.428 3986.36 997.451 4262.69 976.46 4609.23C962.861 4833.39 818.111 4758.15 653.35 5128.04C584.09 5285.27 527.847 5480.54 487.319 5704.48" stroke="#4D8CC6" stroke-opacity="0.07" stroke-width="5" stroke-miterlimit="10"/>
<path d="M735.753 -4.80468C737.808 113.928 744.76 248.008 760.403 392.255C805.195 805.247 876.912 892.627 884.301 1153.57C894.544 1510.4 766.514 1556.99 667.734 2037.75C642.419 2160.98 533.038 2693.38 592.239 3241.35C672.974 3988.09 1013.12 4264.69 991.968 4610.87C978.408 4835.12 833.625 4759.87 668.863 5129.77C599.604 5287 543.36 5482.27 502.833 5706.21" stroke="#4D8CC6" stroke-opacity="0.07" stroke-width="5" stroke-miterlimit="10"/>
</g>
<defs>
<clipPath id="clip0_343_338">
<rect width="1256" height="5676" fill="white"/>
</clipPath>
</defs>
</svg>
