<svg width="414" height="436" viewBox="0 0 414 436" fill="none" xmlns="http://www.w3.org/2000/svg">
<g filter="url(#filter0_d_312_315)">
<rect x="35" y="35" width="344" height="365.953" rx="21.2093" fill="white" shape-rendering="crispEdges"/>
<path d="M197.171 60.3256C197.281 60.6556 194.825 64.3589 189.801 71.4356C184.008 79.5389 181.038 83.7006 180.891 83.9206C178.728 87.2206 176.565 90.5022 174.401 93.7656C172.018 97.5422 170.826 100.146 170.826 101.576C170.826 102.602 171.376 103.116 172.476 103.116C174.126 103.116 175.593 102.529 176.876 101.356C177.39 100.879 177.775 100.732 178.031 100.916C178.361 101.172 178.233 101.631 177.646 102.291C177.096 102.951 176.198 103.556 174.951 104.106C173.705 104.619 172.513 104.876 171.376 104.876C170.276 104.876 169.451 104.564 168.901 103.941C168.351 103.317 168.076 102.474 168.076 101.411C168.076 98.8439 169.873 94.6089 173.466 88.7056C172.073 90.0989 170.643 91.3822 169.176 92.5556C159.24 100.806 151.851 104.931 147.011 104.931C146.168 104.931 145.416 104.784 144.756 104.491C143.07 103.721 142.226 102.346 142.226 100.366C142.226 97.8722 143.363 95.3422 145.636 92.7756C147.323 90.8689 150.275 88.2106 154.491 84.8006C158.268 81.7206 160.945 79.1356 162.521 77.0456C165.161 73.5989 166.481 70.3539 166.481 67.3106C166.481 65.2206 165.748 63.6072 164.281 62.4706C162.815 61.2972 160.816 60.7106 158.286 60.7106C154.106 60.7106 149.395 62.1772 144.151 65.1106C140.228 67.2739 136.836 70.1889 133.976 73.8556C131.116 77.5222 129.686 80.8039 129.686 83.7006C129.686 84.8006 129.925 85.7539 130.401 86.5606C131.428 88.3572 133.28 89.2556 135.956 89.2556C137.973 89.2556 140.246 88.7789 142.776 87.8256C144.976 86.9822 146.755 86.0289 148.111 84.9656C151.925 82.0689 154.473 78.5306 155.756 74.3506C155.94 73.6906 156.251 73.3422 156.691 73.3056C156.911 73.2689 157.076 73.3606 157.186 73.5806C157.333 73.7639 157.351 74.0206 157.241 74.3506C156.691 76.2939 156.068 77.8522 155.371 79.0256C153.978 81.3722 151.815 83.6639 148.881 85.9006C147.341 87.0739 145.435 88.1006 143.161 88.9806C140.558 89.9339 138.156 90.4106 135.956 90.4106C132.583 90.4106 130.2 89.2556 128.806 86.9456C127.706 85.1489 127.156 83.1322 127.156 80.8956C127.156 78.1822 127.963 75.4689 129.576 72.7556C131.336 69.8589 133.848 67.2739 137.111 65.0006C142.831 61.0039 148.973 59.0056 155.536 59.0056C159.863 59.0056 163.071 59.8489 165.161 61.5356C166.921 62.9289 167.801 64.9822 167.801 67.6956C167.801 71.0689 166.61 74.5706 164.226 78.2006C162.87 80.2539 160.963 82.4906 158.506 84.9106C155.28 88.0639 153.135 90.2456 152.071 91.4556C148.625 95.5256 146.901 98.6789 146.901 100.916C146.901 102.382 147.58 103.116 148.936 103.116C150.88 103.116 154.253 101.576 159.056 98.4956C162.76 96.1122 165.931 93.8022 168.571 91.5656C172.825 87.9722 176.088 84.4706 178.361 81.0606C182.431 74.8272 186.685 68.3922 191.121 61.7556C191.268 61.6456 191.928 61.3889 193.101 60.9856C194.311 60.5822 195.283 60.3256 196.016 60.2156C196.713 60.1056 197.098 60.1422 197.171 60.3256ZM222.552 95.3056C221.599 96.9556 219.931 98.0922 217.547 98.7156C216.447 99.0089 215.494 99.1556 214.687 99.1556C213.404 99.1556 212.304 98.8622 211.387 98.2756C210.324 99.3022 209.224 100.237 208.087 101.081C206.987 101.924 205.869 102.657 204.732 103.281C203.632 103.867 202.551 104.326 201.487 104.656C200.424 104.986 199.452 105.151 198.572 105.151C195.859 105.151 194.502 103.831 194.502 101.191C194.502 99.0639 195.474 96.5522 197.417 93.6556C197.417 93.6189 197.454 93.5639 197.527 93.4906C196.831 93.7106 196.061 93.9672 195.217 94.2606C194.411 94.5172 193.622 94.7189 192.852 94.8656C192.082 95.0122 191.404 95.0489 190.817 94.9756C190.267 94.9022 189.901 94.6272 189.717 94.1506C188.507 95.8739 187.261 97.5972 185.977 99.3206C184.731 101.007 183.429 102.712 182.072 104.436C181.889 104.472 181.614 104.491 181.247 104.491C180.844 104.527 180.441 104.527 180.037 104.491C179.634 104.491 179.286 104.454 178.992 104.381C178.699 104.344 178.552 104.271 178.552 104.161C178.552 104.234 178.772 103.996 179.212 103.446C179.652 102.896 180.239 102.144 180.972 101.191C181.706 100.201 182.549 99.0822 183.502 97.8356C184.419 96.5522 185.354 95.2322 186.307 93.8756C187.297 92.5189 188.269 91.1989 189.222 89.9156C190.176 88.5956 191.019 87.4222 191.752 86.3956C192.522 85.3322 193.146 84.4889 193.622 83.8656C194.099 83.2056 194.356 82.8572 194.392 82.8206C194.466 82.7472 194.741 82.6922 195.217 82.6556C195.731 82.6189 196.171 82.6006 196.537 82.6006C197.234 82.5639 197.619 82.6372 197.692 82.8206C197.766 83.0406 196.996 84.2322 195.382 86.3956L191.972 91.0706C192.266 91.2906 192.486 91.6389 192.632 92.1156C192.119 92.8122 192.009 93.2706 192.302 93.4906C192.596 93.7106 193.072 93.8022 193.732 93.7656C194.392 93.6922 195.144 93.5456 195.987 93.3256C196.831 93.1056 197.546 92.8856 198.132 92.6656C200.149 89.9889 202.624 87.6239 205.557 85.5706C208.821 83.2972 211.681 82.1606 214.137 82.1606C216.851 82.1606 218.207 83.4806 218.207 86.1206C218.207 88.2472 217.236 90.7589 215.292 93.6556C214.889 94.2422 214.467 94.8289 214.027 95.4156C213.587 95.9656 213.111 96.5156 212.597 97.0656C213.404 97.5422 214.192 97.7806 214.962 97.7806C215.586 97.7806 216.392 97.6339 217.382 97.3406C219.509 96.6806 220.847 95.7822 221.397 94.6456C221.654 94.3889 221.911 94.2606 222.167 94.2606C222.571 94.2606 222.772 94.4439 222.772 94.8106C222.772 94.9939 222.699 95.1589 222.552 95.3056ZM214.357 92.0056C215.714 89.7322 216.392 87.7889 216.392 86.1756C216.392 84.4889 215.641 83.6456 214.137 83.6456C212.487 83.6456 210.452 84.5806 208.032 86.4506C205.649 88.2839 203.541 90.5389 201.707 93.2156C199.801 96.0022 198.847 98.3672 198.847 100.311C198.847 101.997 199.617 102.841 201.157 102.841C203.614 102.841 206.584 101.044 210.067 97.4506C209.077 96.6439 208.582 95.7456 208.582 94.7556C208.582 93.9122 208.949 93.1789 209.682 92.5556C210.562 91.8956 211.552 91.5656 212.652 91.5656C213.386 91.5656 213.954 91.7122 214.357 92.0056ZM248.646 84.2506C249.27 83.8839 249.416 83.6456 249.086 83.5356C248.793 83.3889 248.371 83.4439 247.821 83.7006C246.685 83.9939 245.475 84.6539 244.191 85.6806C242.908 86.6706 241.588 87.8806 240.231 89.3106C238.911 90.7039 237.591 92.2072 236.271 93.8206C234.951 95.3972 233.686 96.9006 232.476 98.3306C231.266 99.7239 230.148 100.952 229.121 102.016C228.095 103.079 227.233 103.776 226.536 104.106C225.656 104.509 224.776 104.637 223.896 104.491C223.016 104.381 222.21 104.069 221.476 103.556C220.78 103.042 220.211 102.382 219.771 101.576C219.295 100.769 219.075 99.8889 219.111 98.9356C219.148 98.2022 219.295 97.4139 219.551 96.5706C219.808 95.7272 220.413 94.8839 221.366 94.0406C221.843 93.7106 222.356 93.4539 222.906 93.2706C223.456 93.0872 223.951 93.0322 224.391 93.1056C224.868 93.1422 225.253 93.3622 225.546 93.7656C225.84 94.1322 225.986 94.7372 225.986 95.5806C225.986 96.1672 225.766 96.7539 225.326 97.3406C224.923 97.8906 224.3 98.1656 223.456 98.1656C223.053 98.1656 222.686 98.2756 222.356 98.4956C222.063 98.7156 221.806 99.0089 221.586 99.3756C221.293 99.8889 221.256 100.476 221.476 101.136C221.733 101.796 222.136 102.346 222.686 102.786C223.273 103.189 223.988 103.372 224.831 103.336C225.675 103.299 226.573 102.804 227.526 101.851C228.626 100.714 229.8 99.4122 231.046 97.9456C232.293 96.4422 233.558 94.9389 234.841 93.4356C236.161 91.8956 237.481 90.4289 238.801 89.0356C240.158 87.6056 241.478 86.3772 242.761 85.3506C244.045 84.2872 245.291 83.5172 246.501 83.0406C247.748 82.5272 248.921 82.4356 250.021 82.7656C250.131 82.6922 250.296 82.6556 250.516 82.6556C250.736 82.6189 250.956 82.6189 251.176 82.6556C251.396 82.6556 251.561 82.6922 251.671 82.7656C251.818 82.8389 251.855 82.9489 251.781 83.0956C251.231 84.0122 250.425 85.2039 249.361 86.6706C248.335 88.1372 247.088 89.9706 245.621 92.1706C243.018 96.2039 241.606 99.0822 241.386 100.806C241.203 101.906 241.515 102.456 242.321 102.456C242.761 102.456 243.366 102.236 244.136 101.796C244.943 101.356 245.713 100.824 246.446 100.201C249.086 98.1106 251.433 95.9839 253.486 93.8206C253.743 93.4539 254.055 93.2706 254.421 93.2706C254.715 93.2706 254.88 93.3989 254.916 93.6556C254.99 93.9489 254.88 94.2422 254.586 94.5356C253.083 96.4056 250.865 98.4406 247.931 100.641C246.355 101.997 244.87 102.987 243.476 103.611C242.083 104.234 240.965 104.491 240.121 104.381C238.141 104.124 237.151 102.987 237.151 100.971C237.151 100.787 237.151 100.604 237.151 100.421C237.188 100.201 237.225 99.9989 237.261 99.8156C237.665 98.1289 239.388 95.3239 242.431 91.4006C242.981 90.7039 243.605 89.9339 244.301 89.0906C245.035 88.2472 245.86 87.3122 246.776 86.2856C247.253 85.7722 247.601 85.3872 247.821 85.1306C248.078 84.8372 248.353 84.5439 248.646 84.2506ZM267.151 99.1006C267.921 99.0639 268.838 98.8622 269.901 98.4956C271.001 98.1289 272.083 97.5606 273.146 96.7906C274.246 95.9839 275.053 94.9206 275.566 93.6006C275.64 93.4172 275.713 93.3256 275.786 93.3256H276.061C276.245 93.3256 276.373 93.4356 276.446 93.6556C276.556 93.8389 276.575 93.9672 276.501 94.0406C276.355 94.3706 276.061 94.9389 275.621 95.7456C275.218 96.5156 274.54 97.2672 273.586 98.0006C273.22 98.2939 272.67 98.6056 271.936 98.9356C271.24 99.2289 270.47 99.5039 269.626 99.7606C268.783 99.9806 267.903 100.146 266.986 100.256C266.4 100.292 265.85 100.292 265.336 100.256C264.786 100.696 264.218 101.099 263.631 101.466C262.678 102.052 261.725 102.566 260.771 103.006C259.818 103.409 258.901 103.721 258.021 103.941C257.178 104.161 256.426 104.271 255.766 104.271C254.886 104.417 254.153 104.381 253.566 104.161C253.016 103.904 252.576 103.537 252.246 103.061C251.953 102.584 251.77 102.016 251.696 101.356C251.66 100.659 251.696 99.9256 251.806 99.1556C251.99 98.3489 252.448 97.3039 253.181 96.0206C253.951 94.7372 255.125 93.1239 256.701 91.1806C257.251 90.5206 257.875 89.7689 258.571 88.9256C259.305 88.0822 260.13 87.1656 261.046 86.1756C262.733 84.4156 263.833 83.3522 264.346 82.9856C264.493 82.9122 264.731 82.8389 265.061 82.7656C265.428 82.7289 265.721 82.7289 265.941 82.7656C266.161 82.8389 266.216 82.9489 266.106 83.0956C265.483 83.9389 264.658 85.0939 263.631 86.5606C262.641 88.0272 261.395 89.8056 259.891 91.8956C259.378 92.7022 258.938 93.4172 258.571 94.0406C258.205 94.6272 257.875 95.1772 257.581 95.6906C257.471 95.8739 257.215 96.3139 256.811 97.0106C256.445 97.6706 256.115 98.3856 255.821 99.1556C255.565 99.8889 255.436 100.567 255.436 101.191C255.473 101.777 255.821 102.089 256.481 102.126C256.958 102.162 257.471 102.107 258.021 101.961C258.571 101.777 259.103 101.539 259.616 101.246C260.166 100.952 260.68 100.622 261.156 100.256C261.633 99.8522 262.055 99.4306 262.421 98.9906C261.468 98.1472 260.918 97.2672 260.771 96.3506C260.625 95.4339 260.716 94.5539 261.046 93.7106C261.413 92.8672 261.963 92.0972 262.696 91.4006C263.43 90.7039 264.218 90.1539 265.061 89.7506C265.941 89.3472 266.803 89.1272 267.646 89.0906C268.526 89.0539 269.26 89.2739 269.846 89.7506C270.323 90.1539 270.616 90.6856 270.726 91.3456C270.836 92.0056 270.745 92.7756 270.451 93.6556C270.195 94.4989 269.718 95.4156 269.021 96.4056C268.435 97.2856 267.665 98.1839 266.711 99.1006H267.151ZM263.796 97.9456C263.87 97.9822 264.09 97.8356 264.456 97.5056C264.823 97.1389 265.226 96.6989 265.666 96.1856C266.143 95.6722 266.601 95.1039 267.041 94.4806C267.518 93.8572 267.885 93.2706 268.141 92.7206C268.435 92.1706 268.563 91.6939 268.526 91.2906C268.526 90.8506 268.288 90.5756 267.811 90.4656C267.225 90.2822 266.473 90.4106 265.556 90.8506C264.64 91.2539 263.87 91.9322 263.246 92.8856C262.513 93.8389 262.201 94.8289 262.311 95.8556C262.421 96.8822 262.916 97.5789 263.796 97.9456Z" fill="#62707D"/>
<path d="M84.7416 145.837C84.5914 145.837 84.4677 145.789 84.3705 145.691C84.2733 145.594 84.2247 145.47 84.2247 145.32V136.001C84.2247 135.851 84.2733 135.727 84.3705 135.63C84.4677 135.533 84.5914 135.484 84.7416 135.484H91.7937C91.944 135.484 92.0677 135.533 92.1649 135.63C92.2621 135.727 92.3107 135.851 92.3107 136.001V145.32C92.3107 145.47 92.2621 145.594 92.1649 145.691C92.0677 145.789 91.944 145.837 91.7937 145.837C91.6435 145.837 91.5198 145.789 91.4226 145.691C91.3254 145.594 91.2768 145.47 91.2768 145.32V136.452H85.2586V145.32C85.2586 145.47 85.21 145.594 85.1128 145.691C85.0156 145.789 84.8919 145.837 84.7416 145.837ZM95.4732 145.837C95.3229 145.837 95.1992 145.789 95.102 145.691C95.0048 145.594 94.9562 145.47 94.9562 145.32V136.001C94.9562 135.851 95.0048 135.727 95.102 135.63C95.1992 135.533 95.3229 135.484 95.4732 135.484C95.6234 135.484 95.7471 135.533 95.8443 135.63C95.9415 135.727 95.9901 135.851 95.9901 136.001V140.137H102.459V136.001C102.459 135.851 102.508 135.727 102.605 135.63C102.702 135.533 102.826 135.484 102.976 135.484C103.126 135.484 103.25 135.533 103.347 135.63C103.444 135.727 103.493 135.851 103.493 136.001V145.32C103.493 145.47 103.444 145.594 103.347 145.691C103.25 145.789 103.126 145.837 102.976 145.837C102.826 145.837 102.702 145.789 102.605 145.691C102.508 145.594 102.459 145.47 102.459 145.32V141.065H95.9901V145.32C95.9901 145.47 95.9415 145.594 95.8443 145.691C95.7471 145.789 95.6234 145.837 95.4732 145.837Z" fill="#333333"/>
<path d="M124.729 145.837C124.562 145.837 124.42 145.793 124.305 145.705C124.199 145.607 124.146 145.479 124.146 145.32V136.001C124.146 135.851 124.195 135.727 124.292 135.63C124.389 135.533 124.513 135.484 124.663 135.484H127.884C128.415 135.484 128.892 135.599 129.316 135.829C129.749 136.05 130.089 136.355 130.337 136.744C130.593 137.133 130.721 137.583 130.721 138.096C130.721 138.573 130.593 138.997 130.337 139.368C130.08 139.74 129.745 140.022 129.329 140.217C129.921 140.376 130.398 140.676 130.761 141.118C131.123 141.551 131.304 142.103 131.304 142.775C131.304 143.376 131.167 143.906 130.893 144.366C130.619 144.825 130.239 145.188 129.753 145.453C129.276 145.709 128.728 145.837 128.11 145.837H124.729ZM125.18 144.843H128.11C128.534 144.843 128.909 144.759 129.236 144.591C129.563 144.423 129.82 144.185 130.005 143.875C130.191 143.566 130.284 143.199 130.284 142.775C130.284 142.377 130.191 142.033 130.005 141.741C129.82 141.441 129.563 141.211 129.236 141.052C128.909 140.884 128.534 140.8 128.11 140.8H125.18V144.843ZM125.18 139.806H127.884C128.415 139.806 128.852 139.656 129.197 139.355C129.541 139.055 129.714 138.635 129.714 138.096C129.714 137.566 129.541 137.163 129.197 136.89C128.852 136.616 128.415 136.479 127.884 136.479H125.18V139.806ZM135.971 145.837C135.829 145.837 135.706 145.789 135.6 145.691C135.503 145.585 135.454 145.462 135.454 145.32V135.484H136.488V145.32C136.488 145.462 136.439 145.585 136.342 145.691C136.245 145.789 136.121 145.837 135.971 145.837ZM132.312 136.426C132.171 136.426 132.056 136.381 131.968 136.293C131.879 136.205 131.835 136.094 131.835 135.962C131.835 135.82 131.879 135.705 131.968 135.617C132.056 135.529 132.171 135.484 132.312 135.484H139.643C139.784 135.484 139.899 135.529 139.987 135.617C140.076 135.705 140.12 135.82 140.12 135.962C140.12 136.094 140.076 136.205 139.987 136.293C139.899 136.381 139.784 136.426 139.643 136.426H132.312Z" fill="#333333"/>
<path d="M166.118 145.97C165.402 145.97 164.731 145.833 164.103 145.559C163.485 145.285 162.937 144.905 162.46 144.419C161.991 143.924 161.625 143.358 161.359 142.722C161.094 142.077 160.962 141.388 160.962 140.654C160.962 139.93 161.09 139.249 161.346 138.613C161.611 137.968 161.978 137.402 162.446 136.916C162.924 136.43 163.472 136.05 164.09 135.776C164.718 135.493 165.394 135.352 166.118 135.352C166.755 135.352 167.333 135.445 167.855 135.63C168.376 135.816 168.88 136.112 169.366 136.518C169.445 136.58 169.49 136.655 169.498 136.744C169.516 136.823 169.507 136.903 169.472 136.982C169.437 137.053 169.384 137.106 169.313 137.141C169.295 137.212 169.251 137.265 169.18 137.3C169.11 137.336 169.026 137.349 168.928 137.34C168.84 137.331 168.752 137.292 168.663 137.221C168.319 136.92 167.943 136.7 167.537 136.558C167.13 136.408 166.657 136.333 166.118 136.333C165.544 136.333 165.005 136.448 164.501 136.677C164.006 136.907 163.569 137.221 163.189 137.619C162.809 138.016 162.508 138.476 162.287 138.997C162.075 139.519 161.969 140.071 161.969 140.654C161.969 141.255 162.075 141.816 162.287 142.338C162.508 142.859 162.809 143.319 163.189 143.716C163.569 144.114 164.006 144.428 164.501 144.657C165.005 144.878 165.544 144.989 166.118 144.989C166.604 144.989 167.064 144.909 167.497 144.75C167.93 144.591 168.341 144.361 168.73 144.061C168.836 143.973 168.946 143.937 169.061 143.955C169.185 143.973 169.291 144.026 169.379 144.114C169.468 144.202 169.512 144.317 169.512 144.459C169.512 144.529 169.498 144.596 169.472 144.657C169.454 144.71 169.419 144.768 169.366 144.83C168.915 145.245 168.412 145.541 167.855 145.718C167.298 145.886 166.719 145.97 166.118 145.97ZM172.157 145.837C172.007 145.837 171.883 145.789 171.786 145.691C171.689 145.594 171.64 145.47 171.64 145.32V136.001C171.64 135.851 171.689 135.727 171.786 135.63C171.883 135.533 172.007 135.484 172.157 135.484H174.808C175.462 135.484 176.041 135.63 176.545 135.922C177.049 136.205 177.442 136.598 177.725 137.102C178.008 137.605 178.149 138.189 178.149 138.851C178.149 139.497 178.008 140.071 177.725 140.575C177.442 141.07 177.049 141.463 176.545 141.754C176.041 142.037 175.462 142.179 174.808 142.179H172.674V145.32C172.674 145.47 172.626 145.594 172.528 145.691C172.431 145.789 172.308 145.837 172.157 145.837ZM172.674 141.184H174.808C175.259 141.184 175.661 141.087 176.015 140.893C176.368 140.69 176.642 140.411 176.837 140.058C177.04 139.704 177.141 139.302 177.141 138.851C177.141 138.383 177.04 137.972 176.837 137.619C176.642 137.265 176.368 136.987 176.015 136.783C175.661 136.58 175.259 136.479 174.808 136.479H172.674V141.184Z" fill="#333333"/>
<path d="M202.44 142.324C201.644 142.324 200.964 142.157 200.398 141.821C199.833 141.476 199.4 140.986 199.099 140.349C198.799 139.713 198.648 138.953 198.648 138.069V135.975C198.648 135.825 198.697 135.705 198.794 135.617C198.891 135.529 199.015 135.484 199.165 135.484C199.316 135.484 199.439 135.533 199.537 135.63C199.634 135.719 199.682 135.833 199.682 135.975V138.069C199.682 138.75 199.78 139.337 199.974 139.832C200.177 140.327 200.487 140.707 200.902 140.972C201.317 141.237 201.839 141.37 202.466 141.37C203.005 141.37 203.491 141.308 203.924 141.184C204.357 141.052 204.697 140.875 204.945 140.654C205.201 140.424 205.329 140.168 205.329 139.885H205.899C205.873 140.363 205.7 140.787 205.382 141.158C205.073 141.52 204.662 141.807 204.15 142.02C203.637 142.223 203.067 142.324 202.44 142.324ZM205.846 145.837C205.696 145.837 205.572 145.789 205.475 145.691C205.378 145.594 205.329 145.47 205.329 145.32V136.001C205.329 135.851 205.378 135.727 205.475 135.63C205.572 135.533 205.696 135.484 205.846 135.484C205.988 135.484 206.107 135.533 206.204 135.63C206.31 135.727 206.363 135.851 206.363 136.001V145.32C206.363 145.47 206.31 145.594 206.204 145.691C206.107 145.789 205.988 145.837 205.846 145.837ZM212.021 145.837C211.879 145.837 211.756 145.789 211.65 145.691C211.552 145.585 211.504 145.462 211.504 145.32V135.484H212.538V145.32C212.538 145.462 212.489 145.585 212.392 145.691C212.295 145.789 212.171 145.837 212.021 145.837ZM208.362 136.426C208.221 136.426 208.106 136.381 208.017 136.293C207.929 136.205 207.885 136.094 207.885 135.962C207.885 135.82 207.929 135.705 208.017 135.617C208.106 135.529 208.221 135.484 208.362 135.484H215.693C215.834 135.484 215.949 135.529 216.037 135.617C216.126 135.705 216.17 135.82 216.17 135.962C216.17 136.094 216.126 136.205 216.037 136.293C215.949 136.381 215.834 136.426 215.693 136.426H208.362Z" fill="#333333"/>
<path d="M236.848 145.837C236.698 145.837 236.574 145.789 236.477 145.691C236.38 145.594 236.331 145.47 236.331 145.32V136.001C236.331 135.851 236.38 135.727 236.477 135.63C236.574 135.533 236.698 135.484 236.848 135.484H243.9C244.05 135.484 244.174 135.533 244.271 135.63C244.368 135.727 244.417 135.851 244.417 136.001V145.32C244.417 145.47 244.368 145.594 244.271 145.691C244.174 145.789 244.05 145.837 243.9 145.837C243.75 145.837 243.626 145.789 243.529 145.691C243.432 145.594 243.383 145.47 243.383 145.32V136.452H237.365V145.32C237.365 145.47 237.316 145.594 237.219 145.691C237.122 145.789 236.998 145.837 236.848 145.837ZM250.072 145.837C249.93 145.837 249.807 145.789 249.7 145.691C249.603 145.585 249.555 145.462 249.555 145.32V135.484H250.589V145.32C250.589 145.462 250.54 145.585 250.443 145.691C250.346 145.789 250.222 145.837 250.072 145.837ZM246.413 136.426C246.272 136.426 246.157 136.381 246.068 136.293C245.98 136.205 245.936 136.094 245.936 135.962C245.936 135.82 245.98 135.705 246.068 135.617C246.157 135.529 246.272 135.484 246.413 135.484H253.743C253.885 135.484 254 135.529 254.088 135.617C254.177 135.705 254.221 135.82 254.221 135.962C254.221 136.094 254.177 136.205 254.088 136.293C254 136.381 253.885 136.426 253.743 136.426H246.413Z" fill="#BC5252"/>
<path d="M278.543 145.97C277.827 145.97 277.155 145.833 276.528 145.559C275.909 145.285 275.361 144.905 274.884 144.419C274.416 143.924 274.049 143.358 273.784 142.722C273.519 142.077 273.386 141.388 273.386 140.654C273.386 139.93 273.514 139.249 273.771 138.613C274.036 137.968 274.403 137.402 274.871 136.916C275.348 136.43 275.896 136.05 276.515 135.776C277.142 135.493 277.818 135.352 278.543 135.352C279.179 135.352 279.758 135.445 280.279 135.63C280.801 135.816 281.304 136.112 281.791 136.518C281.87 136.58 281.914 136.655 281.923 136.744C281.941 136.823 281.932 136.903 281.897 136.982C281.861 137.053 281.808 137.106 281.738 137.141C281.72 137.212 281.676 137.265 281.605 137.3C281.534 137.336 281.45 137.349 281.353 137.34C281.265 137.331 281.176 137.292 281.088 137.221C280.743 136.92 280.368 136.7 279.961 136.558C279.555 136.408 279.082 136.333 278.543 136.333C277.968 136.333 277.429 136.448 276.926 136.677C276.431 136.907 275.993 137.221 275.613 137.619C275.233 138.016 274.933 138.476 274.712 138.997C274.5 139.519 274.394 140.071 274.394 140.654C274.394 141.255 274.5 141.816 274.712 142.338C274.933 142.859 275.233 143.319 275.613 143.716C275.993 144.114 276.431 144.428 276.926 144.657C277.429 144.878 277.968 144.989 278.543 144.989C279.029 144.989 279.488 144.909 279.921 144.75C280.354 144.591 280.765 144.361 281.154 144.061C281.26 143.973 281.371 143.937 281.486 143.955C281.609 143.973 281.715 144.026 281.804 144.114C281.892 144.202 281.936 144.317 281.936 144.459C281.936 144.529 281.923 144.596 281.897 144.657C281.879 144.71 281.844 144.768 281.791 144.83C281.34 145.245 280.836 145.541 280.279 145.718C279.723 145.886 279.144 145.97 278.543 145.97ZM284.648 145.837C284.48 145.837 284.339 145.793 284.224 145.705C284.118 145.607 284.065 145.479 284.065 145.32V136.001C284.065 135.851 284.114 135.727 284.211 135.63C284.308 135.533 284.432 135.484 284.582 135.484H290.229C290.361 135.484 290.472 135.533 290.56 135.63C290.658 135.719 290.706 135.838 290.706 135.988C290.706 136.138 290.658 136.258 290.56 136.346C290.472 136.434 290.361 136.479 290.229 136.479H285.099V139.726H288.373C288.992 139.726 289.54 139.859 290.017 140.124C290.503 140.38 290.883 140.738 291.157 141.198C291.431 141.648 291.568 142.17 291.568 142.762C291.568 143.363 291.431 143.897 291.157 144.366C290.883 144.825 290.503 145.188 290.017 145.453C289.54 145.709 288.992 145.837 288.373 145.837H284.648ZM285.099 144.843H288.373C288.797 144.843 289.173 144.755 289.5 144.578C289.827 144.401 290.083 144.154 290.269 143.836C290.454 143.517 290.547 143.146 290.547 142.722C290.547 142.298 290.454 141.931 290.269 141.622C290.083 141.304 289.827 141.061 289.5 140.893C289.173 140.725 288.797 140.641 288.373 140.641H285.099V144.843Z" fill="#333333"/>
<path d="M307.935 145.837C307.767 145.837 307.626 145.793 307.511 145.705C307.405 145.607 307.352 145.479 307.352 145.32V136.001C307.352 135.851 307.4 135.727 307.498 135.63C307.595 135.533 307.718 135.484 307.869 135.484H311.09C311.62 135.484 312.097 135.599 312.521 135.829C312.954 136.05 313.295 136.355 313.542 136.744C313.798 137.133 313.927 137.583 313.927 138.096C313.927 138.573 313.798 138.997 313.542 139.368C313.286 139.74 312.95 140.022 312.535 140.217C313.127 140.376 313.604 140.676 313.966 141.118C314.329 141.551 314.51 142.103 314.51 142.775C314.51 143.376 314.373 143.906 314.099 144.366C313.825 144.825 313.445 145.188 312.959 145.453C312.482 145.709 311.934 145.837 311.315 145.837H307.935ZM308.386 144.843H311.315C311.739 144.843 312.115 144.759 312.442 144.591C312.769 144.423 313.025 144.185 313.211 143.875C313.396 143.566 313.489 143.199 313.489 142.775C313.489 142.377 313.396 142.033 313.211 141.741C313.025 141.441 312.769 141.211 312.442 141.052C312.115 140.884 311.739 140.8 311.315 140.8H308.386V144.843ZM308.386 139.806H311.09C311.62 139.806 312.058 139.656 312.402 139.355C312.747 139.055 312.919 138.635 312.919 138.096C312.919 137.566 312.747 137.163 312.402 136.89C312.058 136.616 311.62 136.479 311.09 136.479H308.386V139.806ZM320.963 145.97C320.247 145.97 319.575 145.833 318.948 145.559C318.329 145.285 317.781 144.905 317.304 144.419C316.836 143.924 316.469 143.358 316.204 142.722C315.939 142.077 315.806 141.388 315.806 140.654C315.806 139.93 315.934 139.249 316.19 138.613C316.456 137.968 316.822 137.402 317.291 136.916C317.768 136.43 318.316 136.05 318.934 135.776C319.562 135.493 320.238 135.352 320.963 135.352C321.599 135.352 322.178 135.445 322.699 135.63C323.22 135.816 323.724 136.112 324.21 136.518C324.29 136.58 324.334 136.655 324.343 136.744C324.36 136.823 324.352 136.903 324.316 136.982C324.281 137.053 324.228 137.106 324.157 137.141C324.14 137.212 324.095 137.265 324.025 137.3C323.954 137.336 323.87 137.349 323.773 137.34C323.684 137.331 323.596 137.292 323.508 137.221C323.163 136.92 322.787 136.7 322.381 136.558C321.974 136.408 321.502 136.333 320.963 136.333C320.388 136.333 319.849 136.448 319.345 136.677C318.85 136.907 318.413 137.221 318.033 137.619C317.653 138.016 317.353 138.476 317.132 138.997C316.92 139.519 316.813 140.071 316.813 140.654C316.813 141.255 316.92 141.816 317.132 142.338C317.353 142.859 317.653 143.319 318.033 143.716C318.413 144.114 318.85 144.428 319.345 144.657C319.849 144.878 320.388 144.989 320.963 144.989C321.449 144.989 321.908 144.909 322.341 144.75C322.774 144.591 323.185 144.361 323.574 144.061C323.68 143.973 323.79 143.937 323.905 143.955C324.029 143.973 324.135 144.026 324.223 144.114C324.312 144.202 324.356 144.317 324.356 144.459C324.356 144.529 324.343 144.596 324.316 144.657C324.299 144.71 324.263 144.768 324.21 144.83C323.76 145.245 323.256 145.541 322.699 145.718C322.142 145.886 321.563 145.97 320.963 145.97ZM333.683 145.705C333.594 145.802 333.475 145.846 333.325 145.837C333.174 145.837 333.055 145.784 332.967 145.678L328.672 140.575L332.622 135.643C332.719 135.537 332.839 135.484 332.98 135.484C333.121 135.476 333.241 135.52 333.338 135.617C333.444 135.723 333.493 135.838 333.484 135.962C333.484 136.077 333.439 136.187 333.351 136.293L329.918 140.522L333.736 145.015C333.833 145.13 333.873 145.25 333.855 145.373C333.846 145.488 333.789 145.599 333.683 145.705ZM327.002 145.837C326.851 145.837 326.728 145.789 326.63 145.691C326.533 145.594 326.485 145.47 326.485 145.32V136.001C326.485 135.851 326.533 135.727 326.63 135.63C326.728 135.533 326.851 135.484 327.002 135.484C327.152 135.484 327.276 135.533 327.373 135.63C327.47 135.727 327.519 135.851 327.519 136.001V140.137H329.613V141.065H327.519V145.32C327.519 145.47 327.47 145.594 327.373 145.691C327.276 145.789 327.152 145.837 327.002 145.837Z" fill="#333333"/>
<path d="M86.8379 211.733V210.378L91.9294 204.804C92.5269 204.151 93.019 203.584 93.4056 203.102C93.7922 202.615 94.0784 202.158 94.2642 201.731C94.455 201.299 94.5504 200.848 94.5504 200.376C94.5504 199.833 94.4199 199.364 94.1588 198.967C93.9027 198.57 93.5512 198.264 93.1043 198.048C92.6574 197.832 92.1553 197.724 91.598 197.724C91.0055 197.724 90.4883 197.847 90.0464 198.093C89.6096 198.334 89.2707 198.673 89.0297 199.11C88.7937 199.547 88.6757 200.059 88.6757 200.647H86.8982C86.8982 199.743 87.1066 198.95 87.5233 198.267C87.9401 197.584 88.5075 197.052 89.2255 196.67C89.9485 196.288 90.7594 196.098 91.6582 196.098C92.562 196.098 93.3629 196.288 94.0608 196.67C94.7588 197.052 95.3061 197.566 95.7028 198.214C96.0994 198.862 96.2978 199.582 96.2978 200.376C96.2978 200.943 96.1948 201.498 95.989 202.04C95.7881 202.577 95.4366 203.177 94.9345 203.84C94.4374 204.498 93.747 205.301 92.8633 206.25L89.3987 209.956V210.076H96.5689V211.733H86.8379ZM104.59 196.098C105.223 196.103 105.856 196.223 106.488 196.459C107.121 196.695 107.698 197.087 108.22 197.634C108.743 198.176 109.162 198.917 109.478 199.856C109.795 200.795 109.953 201.972 109.953 203.388C109.953 204.759 109.822 205.977 109.561 207.041C109.305 208.101 108.933 208.994 108.446 209.722C107.964 210.45 107.377 211.003 106.684 211.379C105.996 211.756 105.218 211.944 104.349 211.944C103.486 211.944 102.715 211.774 102.037 211.432C101.364 211.086 100.812 210.606 100.38 209.994C99.9532 209.376 99.6795 208.66 99.559 207.847H101.397C101.562 208.555 101.891 209.14 102.383 209.602C102.88 210.059 103.536 210.287 104.349 210.287C105.539 210.287 106.478 209.768 107.166 208.728C107.859 207.689 108.205 206.22 108.205 204.322H108.085C107.804 204.744 107.47 205.108 107.083 205.414C106.697 205.721 106.267 205.957 105.795 206.122C105.323 206.288 104.821 206.371 104.289 206.371C103.405 206.371 102.594 206.152 101.856 205.716C101.123 205.274 100.536 204.669 100.094 203.9C99.6569 203.127 99.4385 202.243 99.4385 201.249C99.4385 200.305 99.6494 199.442 100.071 198.658C100.498 197.87 101.095 197.242 101.864 196.775C102.637 196.308 103.546 196.082 104.59 196.098ZM104.59 197.755C103.958 197.755 103.388 197.913 102.88 198.229C102.378 198.54 101.979 198.962 101.683 199.494C101.392 200.022 101.246 200.607 101.246 201.249C101.246 201.892 101.387 202.477 101.668 203.004C101.954 203.526 102.343 203.943 102.835 204.254C103.332 204.561 103.897 204.714 104.53 204.714C105.007 204.714 105.451 204.621 105.863 204.435C106.275 204.244 106.634 203.986 106.94 203.659C107.251 203.328 107.495 202.954 107.671 202.537C107.846 202.115 107.934 201.676 107.934 201.219C107.934 200.617 107.789 200.052 107.497 199.524C107.211 198.997 106.815 198.57 106.307 198.244C105.805 197.918 105.233 197.755 104.59 197.755Z" fill="#E0E0E0"/>
<path d="M129.422 211.944C128.428 211.944 127.542 211.774 126.764 211.432C125.991 211.091 125.375 210.616 124.919 210.009C124.467 209.396 124.221 208.686 124.18 207.877H126.078C126.119 208.374 126.289 208.804 126.591 209.165C126.892 209.522 127.286 209.798 127.773 209.994C128.26 210.189 128.8 210.287 129.392 210.287C130.055 210.287 130.643 210.172 131.155 209.941C131.667 209.71 132.069 209.389 132.36 208.977C132.651 208.565 132.797 208.088 132.797 207.546C132.797 206.978 132.656 206.479 132.375 206.047C132.094 205.61 131.682 205.269 131.14 205.023C130.597 204.777 129.935 204.654 129.151 204.654H127.916V202.997H129.151C129.764 202.997 130.301 202.886 130.763 202.665C131.23 202.444 131.594 202.133 131.855 201.731C132.121 201.33 132.254 200.858 132.254 200.315C132.254 199.793 132.139 199.339 131.908 198.952C131.677 198.565 131.351 198.264 130.929 198.048C130.512 197.832 130.02 197.724 129.453 197.724C128.92 197.724 128.418 197.822 127.946 198.018C127.479 198.209 127.098 198.488 126.801 198.854C126.505 199.216 126.345 199.653 126.319 200.165H124.512C124.542 199.356 124.785 198.648 125.242 198.041C125.699 197.428 126.297 196.951 127.035 196.61C127.778 196.268 128.594 196.098 129.483 196.098C130.437 196.098 131.255 196.291 131.938 196.678C132.621 197.059 133.146 197.564 133.512 198.191C133.879 198.819 134.062 199.497 134.062 200.225C134.062 201.094 133.834 201.834 133.377 202.447C132.925 203.059 132.31 203.484 131.531 203.72V203.84C132.505 204.001 133.266 204.415 133.813 205.083C134.361 205.746 134.634 206.567 134.634 207.546C134.634 208.384 134.406 209.137 133.949 209.805C133.497 210.468 132.88 210.99 132.096 211.372C131.313 211.753 130.422 211.944 129.422 211.944ZM142.746 211.944C141.611 211.944 140.645 211.635 139.846 211.018C139.048 210.395 138.438 209.494 138.016 208.314C137.594 207.129 137.383 205.698 137.383 204.021C137.383 202.354 137.594 200.93 138.016 199.75C138.443 198.565 139.056 197.662 139.854 197.039C140.657 196.411 141.621 196.098 142.746 196.098C143.871 196.098 144.832 196.411 145.631 197.039C146.434 197.662 147.047 198.565 147.468 199.75C147.895 200.93 148.109 202.354 148.109 204.021C148.109 205.698 147.898 207.129 147.476 208.314C147.054 209.494 146.444 210.395 145.646 211.018C144.847 211.635 143.881 211.944 142.746 211.944ZM142.746 210.287C143.871 210.287 144.744 209.745 145.367 208.66C145.99 207.576 146.301 206.029 146.301 204.021C146.301 202.685 146.158 201.548 145.872 200.609C145.591 199.67 145.184 198.955 144.652 198.463C144.124 197.97 143.489 197.724 142.746 197.724C141.631 197.724 140.76 198.274 140.133 199.374C139.505 200.468 139.191 202.017 139.191 204.021C139.191 205.357 139.332 206.491 139.613 207.425C139.894 208.359 140.298 209.07 140.825 209.557C141.358 210.044 141.998 210.287 142.746 210.287Z" fill="#E0E0E0"/>
<path d="M172.279 196.308V211.733H170.411V198.267H170.32L166.554 200.767V198.869L170.411 196.308H172.279Z" fill="#333333"/>
<path d="M203.956 211.733V210.378L209.048 204.804C209.645 204.151 210.137 203.584 210.524 203.102C210.91 202.615 211.197 202.158 211.382 201.731C211.573 201.299 211.669 200.848 211.669 200.376C211.669 199.833 211.538 199.364 211.277 198.967C211.021 198.57 210.669 198.264 210.223 198.048C209.776 197.832 209.274 197.724 208.716 197.724C208.124 197.724 207.607 197.847 207.165 198.093C206.728 198.334 206.389 198.673 206.148 199.11C205.912 199.547 205.794 200.059 205.794 200.647H204.016C204.016 199.743 204.225 198.95 204.642 198.267C205.058 197.584 205.626 197.052 206.344 196.67C207.067 196.288 207.878 196.098 208.777 196.098C209.68 196.098 210.481 196.288 211.179 196.67C211.877 197.052 212.424 197.566 212.821 198.214C213.218 198.862 213.416 199.582 213.416 200.376C213.416 200.943 213.313 201.498 213.107 202.04C212.906 202.577 212.555 203.177 212.053 203.84C211.556 204.498 210.865 205.301 209.982 206.25L206.517 209.956V210.076H213.687V211.733H203.956Z" fill="#333333"/>
<path d="M246.429 211.944C245.434 211.944 244.548 211.774 243.77 211.432C242.997 211.091 242.382 210.616 241.925 210.009C241.473 209.396 241.227 208.686 241.186 207.877H243.084C243.125 208.374 243.295 208.804 243.597 209.165C243.898 209.522 244.292 209.798 244.779 209.994C245.266 210.189 245.806 210.287 246.398 210.287C247.061 210.287 247.649 210.172 248.161 209.941C248.673 209.71 249.075 209.389 249.366 208.977C249.657 208.565 249.803 208.088 249.803 207.546C249.803 206.978 249.662 206.479 249.381 206.047C249.1 205.61 248.688 205.269 248.146 205.023C247.604 204.777 246.941 204.654 246.157 204.654H244.922V202.997H246.157C246.77 202.997 247.307 202.886 247.769 202.665C248.236 202.444 248.6 202.133 248.861 201.731C249.127 201.33 249.26 200.858 249.26 200.315C249.26 199.793 249.145 199.339 248.914 198.952C248.683 198.565 248.357 198.264 247.935 198.048C247.518 197.832 247.026 197.724 246.459 197.724C245.926 197.724 245.424 197.822 244.952 198.018C244.485 198.209 244.104 198.488 243.808 198.854C243.511 199.216 243.351 199.653 243.325 200.165H241.518C241.548 199.356 241.792 198.648 242.248 198.041C242.705 197.428 243.303 196.951 244.041 196.61C244.784 196.268 245.6 196.098 246.489 196.098C247.443 196.098 248.261 196.291 248.944 196.678C249.627 197.059 250.152 197.564 250.518 198.191C250.885 198.819 251.068 199.497 251.068 200.225C251.068 201.094 250.84 201.834 250.383 202.447C249.931 203.059 249.316 203.484 248.537 203.72V203.84C249.512 204.001 250.272 204.415 250.82 205.083C251.367 205.746 251.641 206.567 251.641 207.546C251.641 208.384 251.412 209.137 250.955 209.805C250.503 210.468 249.886 210.99 249.102 211.372C248.319 211.753 247.428 211.944 246.429 211.944Z" fill="#333333"/>
<path d="M278.518 208.57V207.034L285.296 196.308H286.411V198.688H285.658L280.536 206.793V206.913H289.665V208.57H278.518ZM285.778 211.733V208.103V207.388V196.308H287.556V211.733H285.778Z" fill="#333333"/>
<path d="M321.888 211.944C321.005 211.944 320.209 211.769 319.501 211.417C318.793 211.066 318.225 210.584 317.799 209.971C317.372 209.358 317.138 208.66 317.098 207.877H318.906C318.976 208.575 319.292 209.153 319.855 209.609C320.422 210.061 321.1 210.287 321.888 210.287C322.521 210.287 323.083 210.139 323.575 209.843C324.072 209.547 324.462 209.14 324.743 208.623C325.029 208.101 325.172 207.511 325.172 206.853C325.172 206.18 325.024 205.58 324.728 205.053C324.436 204.521 324.035 204.101 323.523 203.795C323.01 203.489 322.426 203.333 321.768 203.328C321.296 203.323 320.811 203.396 320.314 203.546C319.817 203.692 319.408 203.88 319.086 204.111L317.339 203.9L318.273 196.308H326.287V197.965H319.84L319.297 202.515H319.388C319.704 202.264 320.101 202.055 320.578 201.889C321.055 201.724 321.552 201.641 322.069 201.641C323.013 201.641 323.854 201.867 324.592 202.319C325.335 202.766 325.918 203.378 326.34 204.156C326.766 204.935 326.98 205.824 326.98 206.823C326.98 207.807 326.759 208.686 326.317 209.459C325.88 210.227 325.278 210.835 324.509 211.281C323.741 211.723 322.867 211.944 321.888 211.944Z" fill="#333333"/>
<path d="M95.6156 248.144C94.983 248.134 94.3503 248.014 93.7176 247.783C93.085 247.552 92.5075 247.163 91.9853 246.615C91.4631 246.063 91.0439 245.317 90.7275 244.378C90.4112 243.434 90.253 242.249 90.253 240.823C90.253 239.458 90.3811 238.248 90.6372 237.193C90.8932 236.134 91.2648 235.242 91.7519 234.519C92.2389 233.791 92.8264 233.239 93.5143 232.862C94.2072 232.486 94.988 232.298 95.8566 232.298C96.7203 232.298 97.4885 232.471 98.1613 232.817C98.8392 233.159 99.3915 233.636 99.8183 234.248C100.245 234.861 100.521 235.566 100.647 236.365H98.8091C98.6384 235.672 98.307 235.097 97.8149 234.64C97.3228 234.183 96.6701 233.954 95.8566 233.954C94.6616 233.954 93.7201 234.474 93.0323 235.514C92.3494 236.553 92.0054 238.012 92.0004 239.889H92.1209C92.4021 239.463 92.736 239.099 93.1226 238.797C93.5143 238.491 93.9461 238.255 94.4181 238.089C94.8901 237.924 95.3897 237.841 95.9169 237.841C96.8006 237.841 97.609 238.062 98.3421 238.504C99.0752 238.94 99.6627 239.546 100.105 240.319C100.546 241.087 100.767 241.968 100.767 242.962C100.767 243.916 100.554 244.79 100.127 245.583C99.7003 246.372 99.1003 246.999 98.327 247.466C97.5588 247.928 96.655 248.154 95.6156 248.144ZM95.6156 246.487C96.2483 246.487 96.8157 246.329 97.3178 246.013C97.8249 245.696 98.2241 245.272 98.5153 244.74C98.8116 244.208 98.9597 243.615 98.9597 242.962C98.9597 242.325 98.8166 241.745 98.5304 241.223C98.2492 240.695 97.8601 240.276 97.363 239.965C96.8709 239.653 96.3085 239.498 95.6759 239.498C95.1989 239.498 94.7545 239.593 94.3428 239.784C93.931 239.97 93.5695 240.226 93.2582 240.552C92.9519 240.879 92.7109 241.253 92.5352 241.674C92.3594 242.091 92.2715 242.531 92.2715 242.993C92.2715 243.605 92.4147 244.178 92.7009 244.71C92.9921 245.242 93.3888 245.671 93.8909 245.998C94.398 246.324 94.9729 246.487 95.6156 246.487Z" fill="#333333"/>
<path d="M129.372 247.933L136.271 234.286V234.165H128.318V232.508H138.199V234.256L131.33 247.933H129.372Z" fill="#333333"/>
<path d="M170.946 248.144C169.912 248.144 168.998 247.961 168.205 247.594C167.416 247.223 166.801 246.713 166.359 246.065C165.918 245.413 165.699 244.67 165.704 243.836C165.699 243.183 165.827 242.581 166.088 242.028C166.349 241.471 166.706 241.007 167.158 240.635C167.615 240.259 168.124 240.02 168.687 239.92V239.829C167.949 239.638 167.361 239.224 166.924 238.586C166.487 237.944 166.272 237.213 166.277 236.395C166.272 235.611 166.47 234.911 166.872 234.293C167.273 233.676 167.826 233.189 168.529 232.832C169.236 232.476 170.042 232.298 170.946 232.298C171.84 232.298 172.638 232.476 173.341 232.832C174.044 233.189 174.597 233.676 174.998 234.293C175.405 234.911 175.611 235.611 175.616 236.395C175.611 237.213 175.387 237.944 174.946 238.586C174.509 239.224 173.929 239.638 173.206 239.829V239.92C173.763 240.02 174.265 240.259 174.712 240.635C175.159 241.007 175.515 241.471 175.782 242.028C176.048 242.581 176.183 243.183 176.188 243.836C176.183 244.67 175.957 245.413 175.51 246.065C175.069 246.713 174.453 247.223 173.665 247.594C172.882 247.961 171.976 248.144 170.946 248.144ZM170.946 246.487C171.644 246.487 172.247 246.374 172.754 246.148C173.261 245.922 173.653 245.604 173.929 245.192C174.205 244.78 174.345 244.298 174.351 243.746C174.345 243.163 174.195 242.649 173.899 242.202C173.602 241.755 173.198 241.403 172.686 241.147C172.179 240.891 171.599 240.763 170.946 240.763C170.288 240.763 169.701 240.891 169.184 241.147C168.672 241.403 168.267 241.755 167.971 242.202C167.68 242.649 167.537 243.163 167.542 243.746C167.537 244.298 167.67 244.78 167.941 245.192C168.217 245.604 168.611 245.922 169.124 246.148C169.636 246.374 170.243 246.487 170.946 246.487ZM170.946 239.166C171.499 239.166 171.988 239.056 172.415 238.835C172.847 238.614 173.186 238.305 173.432 237.909C173.678 237.512 173.803 237.048 173.808 236.515C173.803 235.993 173.68 235.539 173.439 235.152C173.198 234.76 172.864 234.459 172.437 234.248C172.011 234.032 171.514 233.924 170.946 233.924C170.369 233.924 169.864 234.032 169.432 234.248C169 234.459 168.667 234.76 168.431 235.152C168.195 235.539 168.079 235.993 168.084 236.515C168.079 237.048 168.197 237.512 168.438 237.909C168.684 238.305 169.023 238.614 169.455 238.835C169.887 239.056 170.384 239.166 170.946 239.166Z" fill="#333333"/>
<path d="M208.548 232.298C209.18 232.303 209.813 232.423 210.446 232.659C211.078 232.895 211.656 233.287 212.178 233.834C212.7 234.376 213.119 235.117 213.436 236.056C213.752 236.995 213.91 238.172 213.91 239.588C213.91 240.959 213.78 242.177 213.518 243.241C213.262 244.301 212.891 245.194 212.404 245.922C211.922 246.65 211.334 247.203 210.641 247.579C209.953 247.956 209.175 248.144 208.307 248.144C207.443 248.144 206.672 247.974 205.994 247.632C205.321 247.286 204.769 246.806 204.337 246.194C203.911 245.576 203.637 244.86 203.516 244.047H205.354C205.52 244.755 205.849 245.34 206.341 245.802C206.838 246.259 207.493 246.487 208.307 246.487C209.497 246.487 210.436 245.968 211.123 244.928C211.816 243.889 212.163 242.42 212.163 240.522H212.042C211.761 240.944 211.427 241.308 211.041 241.614C210.654 241.921 210.225 242.157 209.753 242.322C209.281 242.488 208.779 242.571 208.246 242.571C207.363 242.571 206.552 242.352 205.814 241.916C205.08 241.474 204.493 240.869 204.051 240.1C203.614 239.327 203.396 238.443 203.396 237.449C203.396 236.505 203.607 235.642 204.029 234.858C204.455 234.07 205.053 233.442 205.821 232.975C206.594 232.508 207.503 232.282 208.548 232.298ZM208.548 233.954C207.915 233.954 207.345 234.113 206.838 234.429C206.336 234.74 205.937 235.162 205.64 235.694C205.349 236.222 205.203 236.806 205.203 237.449C205.203 238.092 205.344 238.677 205.625 239.204C205.911 239.726 206.301 240.143 206.793 240.454C207.29 240.761 207.855 240.914 208.487 240.914C208.964 240.914 209.409 240.821 209.82 240.635C210.232 240.444 210.591 240.186 210.897 239.859C211.209 239.528 211.452 239.154 211.628 238.737C211.804 238.315 211.892 237.876 211.892 237.419C211.892 236.817 211.746 236.252 211.455 235.724C211.169 235.197 210.772 234.77 210.265 234.444C209.763 234.118 209.19 233.954 208.548 233.954Z" fill="#333333"/>
<path d="M243.721 232.508V247.933H241.854V234.467H241.763L237.997 236.967V235.069L241.854 232.508H243.721ZM253.189 248.144C252.054 248.144 251.087 247.835 250.289 247.218C249.491 246.595 248.881 245.694 248.459 244.514C248.037 243.329 247.826 241.898 247.826 240.221C247.826 238.554 248.037 237.13 248.459 235.95C248.886 234.765 249.498 233.862 250.297 233.239C251.1 232.611 252.064 232.298 253.189 232.298C254.314 232.298 255.275 232.611 256.073 233.239C256.877 233.862 257.489 234.765 257.911 235.95C258.338 237.13 258.551 238.554 258.551 240.221C258.551 241.898 258.34 243.329 257.919 244.514C257.497 245.694 256.887 246.595 256.088 247.218C255.29 247.835 254.324 248.144 253.189 248.144ZM253.189 246.487C254.314 246.487 255.187 245.945 255.81 244.86C256.432 243.776 256.744 242.229 256.744 240.221C256.744 238.885 256.601 237.748 256.314 236.809C256.033 235.87 255.627 235.155 255.094 234.662C254.567 234.17 253.932 233.924 253.189 233.924C252.074 233.924 251.203 234.474 250.575 235.574C249.948 236.668 249.634 238.217 249.634 240.221C249.634 241.556 249.774 242.691 250.056 243.625C250.337 244.559 250.741 245.27 251.268 245.757C251.8 246.244 252.441 246.487 253.189 246.487Z" fill="#333333"/>
<path d="M282.379 232.508V247.933H280.511V234.467H280.421L276.655 236.967V235.069L280.511 232.508H282.379ZM292.238 232.508V247.933H290.37V234.467H290.28L286.514 236.967V235.069L290.37 232.508H292.238Z" fill="#333333"/>
<path d="M319.48 232.508V247.933H317.612V234.467H317.521L313.755 236.967V235.069L317.612 232.508H319.48ZM323.916 247.933V246.578L329.007 241.004C329.605 240.351 330.097 239.784 330.483 239.302C330.87 238.815 331.156 238.358 331.342 237.931C331.533 237.499 331.628 237.048 331.628 236.576C331.628 236.033 331.498 235.564 331.237 235.167C330.98 234.77 330.629 234.464 330.182 234.248C329.735 234.032 329.233 233.924 328.676 233.924C328.083 233.924 327.566 234.047 327.124 234.293C326.687 234.534 326.348 234.873 326.107 235.31C325.871 235.747 325.753 236.259 325.753 236.847H323.976C323.976 235.943 324.184 235.15 324.601 234.467C325.018 233.784 325.585 233.252 326.303 232.87C327.026 232.488 327.837 232.298 328.736 232.298C329.64 232.298 330.441 232.488 331.139 232.87C331.837 233.252 332.384 233.766 332.781 234.414C333.177 235.062 333.376 235.782 333.376 236.576C333.376 237.143 333.273 237.698 333.067 238.24C332.866 238.777 332.514 239.377 332.012 240.04C331.515 240.698 330.825 241.501 329.941 242.45L326.477 246.156V246.276H333.647V247.933H323.916Z" fill="#333333"/>
<path d="M92.74 268.708V284.133H90.8721V270.667H90.7817L87.0159 273.167V271.269L90.8721 268.708H92.74ZM102.388 284.344C101.394 284.344 100.508 284.174 99.7294 283.832C98.9561 283.491 98.3411 283.016 97.8841 282.409C97.4322 281.796 97.1862 281.086 97.146 280.277H99.044C99.0842 280.774 99.2549 281.204 99.5562 281.565C99.8574 281.922 100.252 282.198 100.739 282.394C101.226 282.589 101.765 282.687 102.358 282.687C103.021 282.687 103.608 282.572 104.12 282.341C104.633 282.11 105.034 281.789 105.325 281.377C105.617 280.965 105.762 280.488 105.762 279.946C105.762 279.378 105.622 278.879 105.341 278.447C105.059 278.01 104.648 277.669 104.105 277.423C103.563 277.177 102.9 277.054 102.117 277.054H100.882V275.397H102.117C102.73 275.397 103.267 275.286 103.729 275.065C104.196 274.844 104.56 274.533 104.821 274.131C105.087 273.73 105.22 273.258 105.22 272.715C105.22 272.193 105.105 271.739 104.874 271.352C104.643 270.965 104.316 270.664 103.894 270.448C103.478 270.232 102.986 270.124 102.418 270.124C101.886 270.124 101.384 270.222 100.912 270.418C100.445 270.609 100.063 270.888 99.7671 271.254C99.4708 271.616 99.3101 272.053 99.285 272.565H97.4774C97.5075 271.756 97.7511 271.048 98.208 270.441C98.6649 269.828 99.2624 269.351 100.001 269.01C100.744 268.668 101.56 268.498 102.448 268.498C103.402 268.498 104.221 268.691 104.904 269.078C105.587 269.459 106.111 269.964 106.478 270.591C106.844 271.219 107.028 271.897 107.028 272.625C107.028 273.494 106.799 274.234 106.342 274.847C105.89 275.459 105.275 275.884 104.497 276.12V276.24C105.471 276.401 106.232 276.815 106.779 277.483C107.326 278.146 107.6 278.967 107.6 279.946C107.6 280.784 107.372 281.537 106.915 282.205C106.463 282.868 105.845 283.39 105.062 283.772C104.279 284.154 103.387 284.344 102.388 284.344Z" fill="#333333"/>
<path d="M130.403 268.708V284.133H128.535V270.667H128.444L124.678 273.167V271.269L128.535 268.708H130.403ZM134.477 280.97V279.434L141.256 268.708H142.37V271.088H141.617L136.496 279.193V279.313H145.624V280.97H134.477ZM141.738 284.133V280.503V279.788V268.708H143.515V284.133H141.738Z" fill="#333333"/>
<path d="M168.591 268.708V284.133H166.723V270.667H166.633L162.867 273.167V271.269L166.723 268.708H168.591ZM177.848 284.344C176.964 284.344 176.168 284.169 175.46 283.817C174.752 283.466 174.185 282.984 173.758 282.371C173.331 281.758 173.098 281.06 173.058 280.277H174.865C174.936 280.975 175.252 281.553 175.814 282.009C176.382 282.461 177.059 282.687 177.848 282.687C178.48 282.687 179.043 282.539 179.535 282.243C180.032 281.947 180.421 281.54 180.702 281.023C180.989 280.501 181.132 279.911 181.132 279.253C181.132 278.58 180.984 277.98 180.687 277.453C180.396 276.921 179.994 276.501 179.482 276.195C178.97 275.889 178.385 275.733 177.727 275.728C177.255 275.723 176.771 275.796 176.274 275.946C175.777 276.092 175.367 276.28 175.046 276.511L173.299 276.3L174.233 268.708H182.246V270.365H175.799L175.257 274.915H175.347C175.664 274.664 176.06 274.455 176.537 274.289C177.014 274.124 177.511 274.041 178.029 274.041C178.973 274.041 179.814 274.267 180.552 274.719C181.295 275.166 181.877 275.778 182.299 276.557C182.726 277.335 182.939 278.224 182.939 279.223C182.939 280.207 182.718 281.086 182.276 281.859C181.84 282.627 181.237 283.235 180.469 283.682C179.701 284.123 178.827 284.344 177.848 284.344Z" fill="#333333"/>
<path d="M206.017 268.708V284.133H204.15V270.667H204.059L200.293 273.167V271.269L204.15 268.708H206.017ZM215.575 284.344C214.943 284.334 214.31 284.214 213.677 283.983C213.045 283.752 212.467 283.363 211.945 282.815C211.423 282.263 211.003 281.517 210.687 280.578C210.371 279.634 210.213 278.449 210.213 277.023C210.213 275.658 210.341 274.448 210.597 273.393C210.853 272.334 211.224 271.442 211.711 270.719C212.198 269.991 212.786 269.439 213.474 269.062C214.167 268.686 214.948 268.498 215.816 268.498C216.68 268.498 217.448 268.671 218.121 269.017C218.799 269.359 219.351 269.836 219.778 270.448C220.205 271.061 220.481 271.766 220.606 272.565H218.769C218.598 271.872 218.266 271.297 217.774 270.84C217.282 270.383 216.63 270.155 215.816 270.155C214.621 270.155 213.68 270.674 212.992 271.714C212.309 272.753 211.965 274.212 211.96 276.09H212.08C212.362 275.663 212.696 275.299 213.082 274.997C213.474 274.691 213.906 274.455 214.378 274.289C214.85 274.124 215.349 274.041 215.876 274.041C216.76 274.041 217.569 274.262 218.302 274.704C219.035 275.141 219.622 275.746 220.064 276.519C220.506 277.287 220.727 278.168 220.727 279.162C220.727 280.117 220.513 280.99 220.087 281.784C219.66 282.572 219.06 283.199 218.287 283.666C217.518 284.128 216.615 284.354 215.575 284.344ZM215.575 282.687C216.208 282.687 216.775 282.529 217.277 282.213C217.784 281.897 218.184 281.472 218.475 280.94C218.771 280.408 218.919 279.815 218.919 279.162C218.919 278.525 218.776 277.945 218.49 277.423C218.209 276.895 217.82 276.476 217.323 276.165C216.83 275.854 216.268 275.698 215.635 275.698C215.158 275.698 214.714 275.793 214.302 275.984C213.891 276.17 213.529 276.426 213.218 276.752C212.911 277.079 212.67 277.453 212.495 277.875C212.319 278.291 212.231 278.731 212.231 279.193C212.231 279.805 212.374 280.378 212.66 280.91C212.952 281.442 213.348 281.871 213.85 282.198C214.358 282.524 214.932 282.687 215.575 282.687Z" fill="#333333"/>
<path d="M243.914 268.708V284.133H242.046V270.667H241.955L238.189 273.167V271.269L242.046 268.708H243.914ZM248.832 284.133L255.731 270.486V270.365H247.777V268.708H257.659V270.456L250.79 284.133H248.832Z" fill="#CC4A4A"/>
<path d="M281.652 268.708V284.133H279.784V270.667H279.693L275.927 273.167V271.269L279.784 268.708H281.652ZM291.029 284.344C289.994 284.344 289.08 284.161 288.287 283.794C287.499 283.423 286.884 282.913 286.442 282.266C286 281.613 285.781 280.87 285.786 280.036C285.781 279.383 285.909 278.781 286.171 278.229C286.432 277.671 286.788 277.207 287.24 276.835C287.697 276.459 288.207 276.22 288.769 276.12V276.029C288.031 275.838 287.443 275.424 287.007 274.787C286.57 274.144 286.354 273.413 286.359 272.595C286.354 271.812 286.552 271.111 286.954 270.493C287.356 269.876 287.908 269.389 288.611 269.032C289.319 268.676 290.125 268.498 291.029 268.498C291.922 268.498 292.721 268.676 293.424 269.032C294.127 269.389 294.679 269.876 295.081 270.493C295.487 271.111 295.693 271.812 295.698 272.595C295.693 273.413 295.47 274.144 295.028 274.787C294.591 275.424 294.011 275.838 293.288 276.029V276.12C293.845 276.22 294.347 276.459 294.794 276.835C295.241 277.207 295.598 277.671 295.864 278.229C296.13 278.781 296.266 279.383 296.271 280.036C296.266 280.87 296.04 281.613 295.593 282.266C295.151 282.913 294.536 283.423 293.747 283.794C292.964 284.161 292.058 284.344 291.029 284.344ZM291.029 282.687C291.726 282.687 292.329 282.574 292.836 282.348C293.343 282.122 293.735 281.804 294.011 281.392C294.287 280.98 294.428 280.498 294.433 279.946C294.428 279.363 294.277 278.849 293.981 278.402C293.685 277.955 293.281 277.603 292.768 277.347C292.261 277.091 291.681 276.963 291.029 276.963C290.371 276.963 289.783 277.091 289.266 277.347C288.754 277.603 288.35 277.955 288.053 278.402C287.762 278.849 287.619 279.363 287.624 279.946C287.619 280.498 287.752 280.98 288.023 281.392C288.3 281.804 288.694 282.122 289.206 282.348C289.718 282.574 290.326 282.687 291.029 282.687ZM291.029 275.367C291.581 275.367 292.07 275.256 292.497 275.035C292.929 274.814 293.268 274.505 293.514 274.109C293.76 273.712 293.886 273.248 293.891 272.715C293.886 272.193 293.763 271.739 293.522 271.352C293.281 270.96 292.947 270.659 292.52 270.448C292.093 270.232 291.596 270.124 291.029 270.124C290.451 270.124 289.946 270.232 289.515 270.448C289.083 270.659 288.749 270.96 288.513 271.352C288.277 271.739 288.161 272.193 288.166 272.715C288.161 273.248 288.279 273.712 288.52 274.109C288.766 274.505 289.105 274.814 289.537 275.035C289.969 275.256 290.466 275.367 291.029 275.367Z" fill="#333333"/>
<path d="M319.16 268.708V284.133H317.292V270.667H317.202L313.436 273.167V271.269L317.292 268.708H319.16ZM328.507 268.498C329.14 268.503 329.772 268.623 330.405 268.859C331.038 269.095 331.615 269.487 332.137 270.034C332.66 270.576 333.079 271.317 333.395 272.256C333.712 273.195 333.87 274.372 333.87 275.788C333.87 277.159 333.739 278.377 333.478 279.441C333.222 280.501 332.85 281.394 332.363 282.122C331.881 282.851 331.294 283.403 330.601 283.779C329.913 284.156 329.135 284.344 328.266 284.344C327.402 284.344 326.632 284.174 325.954 283.832C325.281 283.486 324.729 283.006 324.297 282.394C323.87 281.776 323.596 281.06 323.476 280.247H325.314C325.479 280.955 325.808 281.54 326.3 282.002C326.797 282.459 327.453 282.687 328.266 282.687C329.456 282.687 330.395 282.168 331.083 281.128C331.776 280.089 332.122 278.62 332.122 276.722H332.002C331.721 277.144 331.387 277.508 331 277.814C330.613 278.121 330.184 278.357 329.712 278.522C329.24 278.688 328.738 278.771 328.206 278.771C327.322 278.771 326.511 278.552 325.773 278.116C325.04 277.674 324.453 277.069 324.011 276.3C323.574 275.527 323.355 274.643 323.355 273.649C323.355 272.705 323.566 271.842 323.988 271.058C324.415 270.27 325.012 269.642 325.781 269.175C326.554 268.708 327.463 268.483 328.507 268.498ZM328.507 270.155C327.874 270.155 327.305 270.313 326.797 270.629C326.295 270.94 325.896 271.362 325.6 271.894C325.309 272.422 325.163 273.007 325.163 273.649C325.163 274.292 325.304 274.877 325.585 275.404C325.871 275.926 326.26 276.343 326.752 276.654C327.249 276.961 327.814 277.114 328.447 277.114C328.924 277.114 329.368 277.021 329.78 276.835C330.192 276.644 330.551 276.386 330.857 276.059C331.168 275.728 331.412 275.354 331.588 274.937C331.763 274.515 331.851 274.076 331.851 273.619C331.851 273.017 331.706 272.452 331.414 271.925C331.128 271.397 330.731 270.97 330.224 270.644C329.722 270.318 329.15 270.155 328.507 270.155Z" fill="#333333"/>
<path d="M86.8276 320.333V318.978L91.919 313.404C92.5165 312.751 93.0086 312.184 93.3952 311.702C93.7819 311.215 94.0681 310.758 94.2538 310.331C94.4446 309.899 94.54 309.448 94.54 308.976C94.54 308.433 94.4095 307.964 94.1484 307.567C93.8923 307.17 93.5408 306.864 93.094 306.648C92.6471 306.432 92.145 306.324 91.5876 306.324C90.9951 306.324 90.4779 306.447 90.0361 306.693C89.5992 306.934 89.2603 307.273 89.0193 307.71C88.7833 308.147 88.6653 308.659 88.6653 309.247H86.8878C86.8878 308.343 87.0962 307.55 87.513 306.867C87.9297 306.184 88.4971 305.652 89.2151 305.27C89.9382 304.888 90.7491 304.698 91.6479 304.698C92.5517 304.698 93.3525 304.888 94.0505 305.27C94.7484 305.652 95.2957 306.166 95.6924 306.814C96.0891 307.462 96.2874 308.182 96.2874 308.976C96.2874 309.543 96.1845 310.098 95.9786 310.64C95.7778 311.177 95.4263 311.777 94.9242 312.44C94.4271 313.098 93.7367 313.901 92.8529 314.85L89.3884 318.556V318.676H96.5585V320.333H86.8276ZM104.7 320.544C103.566 320.544 102.599 320.235 101.801 319.618C101.002 318.995 100.392 318.094 99.9704 316.914C99.5486 315.729 99.3377 314.298 99.3377 312.621C99.3377 310.954 99.5486 309.53 99.9704 308.35C100.397 307.165 101.01 306.262 101.808 305.639C102.612 305.011 103.576 304.698 104.7 304.698C105.825 304.698 106.787 305.011 107.585 305.639C108.388 306.262 109.001 307.165 109.423 308.35C109.85 309.53 110.063 310.954 110.063 312.621C110.063 314.298 109.852 315.729 109.43 316.914C109.008 318.094 108.398 318.995 107.6 319.618C106.802 320.235 105.835 320.544 104.7 320.544ZM104.7 318.887C105.825 318.887 106.699 318.345 107.321 317.26C107.944 316.176 108.255 314.629 108.255 312.621C108.255 311.285 108.112 310.148 107.826 309.209C107.545 308.27 107.138 307.555 106.606 307.062C106.079 306.57 105.443 306.324 104.7 306.324C103.586 306.324 102.714 306.874 102.087 307.974C101.459 309.068 101.145 310.617 101.145 312.621C101.145 313.957 101.286 315.091 101.567 316.025C101.848 316.959 102.253 317.67 102.78 318.157C103.312 318.644 103.952 318.887 104.7 318.887Z" fill="#333333"/>
<path d="M125.485 320.333V318.978L130.577 313.404C131.174 312.751 131.666 312.184 132.053 311.702C132.44 311.215 132.726 310.758 132.912 310.331C133.103 309.899 133.198 309.448 133.198 308.976C133.198 308.433 133.067 307.964 132.806 307.567C132.55 307.17 132.199 306.864 131.752 306.648C131.305 306.432 130.803 306.324 130.245 306.324C129.653 306.324 129.136 306.447 128.694 306.693C128.257 306.934 127.918 307.273 127.677 307.71C127.441 308.147 127.323 308.659 127.323 309.247H125.546C125.546 308.343 125.754 307.55 126.171 306.867C126.588 306.184 127.155 305.652 127.873 305.27C128.596 304.888 129.407 304.698 130.306 304.698C131.21 304.698 132.01 304.888 132.708 305.27C133.406 305.652 133.954 306.166 134.35 306.814C134.747 307.462 134.945 308.182 134.945 308.976C134.945 309.543 134.842 310.098 134.636 310.64C134.436 311.177 134.084 311.777 133.582 312.44C133.085 313.098 132.395 313.901 131.511 314.85L128.046 318.556V318.676H135.216V320.333H125.485ZM143.75 304.908V320.333H141.882V306.867H141.792L138.026 309.367V307.469L141.882 304.908H143.75Z" fill="#333333"/>
<path d="M161.963 320.333V318.978L167.055 313.404C167.652 312.751 168.144 312.184 168.531 311.702C168.917 311.215 169.204 310.758 169.389 310.331C169.58 309.899 169.676 309.448 169.676 308.976C169.676 308.433 169.545 307.964 169.284 307.567C169.028 307.17 168.676 306.864 168.23 306.648C167.783 306.432 167.281 306.324 166.723 306.324C166.131 306.324 165.614 306.447 165.172 306.693C164.735 306.934 164.396 307.273 164.155 307.71C163.919 308.147 163.801 308.659 163.801 309.247H162.023C162.023 308.343 162.232 307.55 162.649 306.867C163.065 306.184 163.633 305.652 164.351 305.27C165.074 304.888 165.885 304.698 166.783 304.698C167.687 304.698 168.488 304.888 169.186 305.27C169.884 305.652 170.431 306.166 170.828 306.814C171.225 307.462 171.423 308.182 171.423 308.976C171.423 309.543 171.32 310.098 171.114 310.64C170.913 311.177 170.562 311.777 170.06 312.44C169.563 313.098 168.872 313.901 167.989 314.85L164.524 318.556V318.676H171.694V320.333H161.963ZM174.805 320.333V318.978L179.896 313.404C180.494 312.751 180.986 312.184 181.372 311.702C181.759 311.215 182.045 310.758 182.231 310.331C182.422 309.899 182.517 309.448 182.517 308.976C182.517 308.433 182.387 307.964 182.126 307.567C181.869 307.17 181.518 306.864 181.071 306.648C180.624 306.432 180.122 306.324 179.565 306.324C178.972 306.324 178.455 306.447 178.013 306.693C177.576 306.934 177.237 307.273 176.996 307.71C176.76 308.147 176.642 308.659 176.642 309.247H174.865C174.865 308.343 175.073 307.55 175.49 306.867C175.907 306.184 176.474 305.652 177.192 305.27C177.915 304.888 178.726 304.698 179.625 304.698C180.529 304.698 181.33 304.888 182.028 305.27C182.726 305.652 183.273 306.166 183.67 306.814C184.066 307.462 184.265 308.182 184.265 308.976C184.265 309.543 184.162 310.098 183.956 310.64C183.755 311.177 183.403 311.777 182.901 312.44C182.404 313.098 181.714 313.901 180.83 314.85L177.366 318.556V318.676H184.536V320.333H174.805Z" fill="#333333"/>
<path d="M199.846 320.333V318.978L204.938 313.404C205.535 312.751 206.027 312.184 206.414 311.702C206.8 311.215 207.087 310.758 207.272 310.331C207.463 309.899 207.559 309.448 207.559 308.976C207.559 308.433 207.428 307.964 207.167 307.567C206.911 307.17 206.559 306.864 206.113 306.648C205.666 306.432 205.164 306.324 204.606 306.324C204.014 306.324 203.496 306.447 203.055 306.693C202.618 306.934 202.279 307.273 202.038 307.71C201.802 308.147 201.684 308.659 201.684 309.247H199.906C199.906 308.343 200.115 307.55 200.532 306.867C200.948 306.184 201.516 305.652 202.234 305.27C202.957 304.888 203.768 304.698 204.666 304.698C205.57 304.698 206.371 304.888 207.069 305.27C207.767 305.652 208.314 306.166 208.711 306.814C209.108 307.462 209.306 308.182 209.306 308.976C209.306 309.543 209.203 310.098 208.997 310.64C208.796 311.177 208.445 311.777 207.943 312.44C207.446 313.098 206.755 313.901 205.871 314.85L202.407 318.556V318.676H209.577V320.333H199.846ZM217.9 320.544C216.905 320.544 216.019 320.374 215.241 320.032C214.468 319.691 213.853 319.216 213.396 318.609C212.944 317.996 212.698 317.286 212.658 316.477H214.556C214.596 316.974 214.766 317.404 215.068 317.765C215.369 318.122 215.763 318.398 216.25 318.594C216.737 318.789 217.277 318.887 217.87 318.887C218.532 318.887 219.12 318.772 219.632 318.541C220.144 318.31 220.546 317.989 220.837 317.577C221.128 317.165 221.274 316.688 221.274 316.146C221.274 315.578 221.133 315.079 220.852 314.647C220.571 314.21 220.159 313.869 219.617 313.623C219.075 313.377 218.412 313.254 217.628 313.254H216.393V311.597H217.628C218.241 311.597 218.778 311.486 219.24 311.265C219.707 311.044 220.071 310.733 220.332 310.331C220.598 309.93 220.732 309.458 220.732 308.915C220.732 308.393 220.616 307.939 220.385 307.552C220.154 307.165 219.828 306.864 219.406 306.648C218.989 306.432 218.497 306.324 217.93 306.324C217.398 306.324 216.895 306.422 216.423 306.618C215.956 306.809 215.575 307.088 215.279 307.454C214.982 307.816 214.822 308.253 214.797 308.765H212.989C213.019 307.956 213.263 307.248 213.72 306.641C214.176 306.028 214.774 305.551 215.512 305.21C216.255 304.868 217.071 304.698 217.96 304.698C218.914 304.698 219.732 304.891 220.415 305.277C221.098 305.659 221.623 306.164 221.989 306.791C222.356 307.419 222.539 308.097 222.539 308.825C222.539 309.694 222.311 310.434 221.854 311.047C221.402 311.659 220.787 312.084 220.009 312.32V312.44C220.983 312.601 221.743 313.015 222.291 313.683C222.838 314.346 223.112 315.167 223.112 316.146C223.112 316.984 222.883 317.737 222.426 318.405C221.974 319.068 221.357 319.59 220.573 319.972C219.79 320.353 218.899 320.544 217.9 320.544Z" fill="#333333"/>
<path d="M237.674 320.333V318.978L242.766 313.404C243.363 312.751 243.855 312.184 244.242 311.702C244.629 311.215 244.915 310.758 245.101 310.331C245.291 309.899 245.387 309.448 245.387 308.976C245.387 308.433 245.256 307.964 244.995 307.567C244.739 307.17 244.388 306.864 243.941 306.648C243.494 306.432 242.992 306.324 242.434 306.324C241.842 306.324 241.325 306.447 240.883 306.693C240.446 306.934 240.107 307.273 239.866 307.71C239.63 308.147 239.512 308.659 239.512 309.247H237.735C237.735 308.343 237.943 307.55 238.36 306.867C238.777 306.184 239.344 305.652 240.062 305.27C240.785 304.888 241.596 304.698 242.495 304.698C243.398 304.698 244.199 304.888 244.897 305.27C245.595 305.652 246.143 306.166 246.539 306.814C246.936 307.462 247.134 308.182 247.134 308.976C247.134 309.543 247.031 310.098 246.825 310.64C246.625 311.177 246.273 311.777 245.771 312.44C245.274 313.098 244.583 313.901 243.7 314.85L240.235 318.556V318.676H247.405V320.333H237.674ZM249.823 317.17V315.634L256.602 304.908H257.716V307.288H256.963L251.842 315.393V315.513H260.97V317.17H249.823ZM257.084 320.333V316.703V315.988V304.908H258.861V320.333H257.084Z" fill="#333333"/>
<path d="M275.075 320.333V318.978L280.166 313.404C280.764 312.751 281.256 312.184 281.643 311.702C282.029 311.215 282.315 310.758 282.501 310.331C282.692 309.899 282.787 309.448 282.787 308.976C282.787 308.433 282.657 307.964 282.396 307.567C282.14 307.17 281.788 306.864 281.341 306.648C280.894 306.432 280.392 306.324 279.835 306.324C279.242 306.324 278.725 306.447 278.283 306.693C277.847 306.934 277.508 307.273 277.267 307.71C277.031 308.147 276.913 308.659 276.913 309.247H275.135C275.135 308.343 275.344 307.55 275.76 306.867C276.177 306.184 276.744 305.652 277.462 305.27C278.186 304.888 278.996 304.698 279.895 304.698C280.799 304.698 281.6 304.888 282.298 305.27C282.996 305.652 283.543 306.166 283.94 306.814C284.336 307.462 284.535 308.182 284.535 308.976C284.535 309.543 284.432 310.098 284.226 310.64C284.025 311.177 283.674 311.777 283.172 312.44C282.674 313.098 281.984 313.901 281.1 314.85L277.636 318.556V318.676H284.806V320.333H275.075ZM292.737 320.544C291.853 320.544 291.057 320.369 290.349 320.017C289.641 319.666 289.074 319.184 288.647 318.571C288.22 317.958 287.987 317.26 287.947 316.477H289.754C289.825 317.175 290.141 317.753 290.703 318.209C291.271 318.661 291.948 318.887 292.737 318.887C293.369 318.887 293.932 318.739 294.424 318.443C294.921 318.147 295.31 317.74 295.591 317.223C295.878 316.701 296.021 316.111 296.021 315.453C296.021 314.78 295.872 314.18 295.576 313.653C295.285 313.121 294.883 312.701 294.371 312.395C293.859 312.089 293.274 311.933 292.616 311.928C292.144 311.923 291.66 311.996 291.163 312.146C290.666 312.292 290.256 312.48 289.935 312.711L288.188 312.5L289.122 304.908H297.135V306.565H290.688L290.146 311.115H290.236C290.553 310.864 290.949 310.655 291.426 310.489C291.903 310.324 292.4 310.241 292.918 310.241C293.862 310.241 294.703 310.467 295.441 310.919C296.184 311.366 296.766 311.978 297.188 312.756C297.615 313.535 297.828 314.423 297.828 315.423C297.828 316.407 297.607 317.286 297.165 318.059C296.729 318.827 296.126 319.435 295.358 319.881C294.59 320.323 293.716 320.544 292.737 320.544Z" fill="#333333"/>
<path d="M313.124 320.333V318.978L318.215 313.404C318.813 312.751 319.305 312.184 319.691 311.702C320.078 311.215 320.364 310.758 320.55 310.331C320.741 309.899 320.836 309.448 320.836 308.976C320.836 308.433 320.705 307.964 320.444 307.567C320.188 307.17 319.837 306.864 319.39 306.648C318.943 306.432 318.441 306.324 317.884 306.324C317.291 306.324 316.774 306.447 316.332 306.693C315.895 306.934 315.556 307.273 315.315 307.71C315.079 308.147 314.961 308.659 314.961 309.247H313.184C313.184 308.343 313.392 307.55 313.809 306.867C314.226 306.184 314.793 305.652 315.511 305.27C316.234 304.888 317.045 304.698 317.944 304.698C318.848 304.698 319.649 304.888 320.346 305.27C321.044 305.652 321.592 306.166 321.988 306.814C322.385 307.462 322.583 308.182 322.583 308.976C322.583 309.543 322.48 310.098 322.275 310.64C322.074 311.177 321.722 311.777 321.22 312.44C320.723 313.098 320.033 313.901 319.149 314.85L315.684 318.556V318.676H322.855V320.333H313.124ZM331.087 320.544C330.454 320.534 329.821 320.414 329.189 320.183C328.556 319.952 327.979 319.563 327.456 319.015C326.934 318.463 326.515 317.717 326.199 316.778C325.882 315.834 325.724 314.649 325.724 313.223C325.724 311.858 325.852 310.648 326.108 309.593C326.364 308.534 326.736 307.642 327.223 306.919C327.71 306.191 328.297 305.639 328.985 305.262C329.678 304.886 330.459 304.698 331.328 304.698C332.191 304.698 332.96 304.871 333.632 305.217C334.31 305.559 334.863 306.036 335.289 306.648C335.716 307.261 335.992 307.966 336.118 308.765H334.28C334.109 308.072 333.778 307.497 333.286 307.04C332.794 306.583 332.141 306.355 331.328 306.355C330.133 306.355 329.191 306.874 328.503 307.914C327.82 308.953 327.477 310.412 327.471 312.29H327.592C327.873 311.863 328.207 311.499 328.594 311.197C328.985 310.891 329.417 310.655 329.889 310.489C330.361 310.324 330.861 310.241 331.388 310.241C332.272 310.241 333.08 310.462 333.813 310.904C334.546 311.341 335.134 311.946 335.576 312.719C336.017 313.487 336.238 314.368 336.238 315.362C336.238 316.316 336.025 317.19 335.598 317.983C335.171 318.772 334.571 319.399 333.798 319.866C333.03 320.328 332.126 320.554 331.087 320.544ZM331.087 318.887C331.719 318.887 332.287 318.729 332.789 318.413C333.296 318.096 333.695 317.672 333.986 317.14C334.283 316.608 334.431 316.015 334.431 315.362C334.431 314.725 334.288 314.145 334.001 313.623C333.72 313.095 333.331 312.676 332.834 312.365C332.342 312.054 331.78 311.898 331.147 311.898C330.67 311.898 330.226 311.993 329.814 312.184C329.402 312.37 329.041 312.626 328.729 312.952C328.423 313.279 328.182 313.653 328.006 314.075C327.83 314.491 327.743 314.931 327.743 315.393C327.743 316.005 327.886 316.578 328.172 317.11C328.463 317.642 328.86 318.071 329.362 318.398C329.869 318.724 330.444 318.887 331.087 318.887Z" fill="#333333"/>
<path d="M87.0197 356.533V355.178L92.1112 349.604C92.7087 348.951 93.2007 348.384 93.5874 347.902C93.974 347.415 94.2602 346.958 94.446 346.531C94.6368 346.099 94.7322 345.647 94.7322 345.176C94.7322 344.633 94.6016 344.164 94.3405 343.767C94.0845 343.37 93.733 343.064 93.2861 342.848C92.8392 342.632 92.3371 342.524 91.7798 342.524C91.1873 342.524 90.6701 342.647 90.2282 342.893C89.7914 343.134 89.4525 343.473 89.2114 343.91C88.9755 344.347 88.8575 344.859 88.8575 345.447H87.08C87.08 344.543 87.2883 343.749 87.7051 343.067C88.1219 342.384 88.6892 341.852 89.4073 341.47C90.1303 341.088 90.9412 340.897 91.84 340.897C92.7438 340.897 93.5447 341.088 94.2426 341.47C94.9406 341.852 95.4879 342.366 95.8845 343.014C96.2812 343.662 96.4795 344.382 96.4795 345.176C96.4795 345.743 96.3766 346.298 96.1707 346.84C95.9699 347.377 95.6184 347.977 95.1163 348.64C94.6192 349.298 93.9288 350.101 93.0451 351.05L89.5805 354.756V354.876H96.7507V356.533H87.0197ZM100.343 356.533L107.242 342.886V342.765H99.2889V341.108H109.17V342.856L102.302 356.533H100.343Z" fill="#333333"/>
<path d="M124.135 356.533V355.178L129.227 349.604C129.824 348.951 130.316 348.384 130.703 347.902C131.089 347.415 131.376 346.958 131.561 346.531C131.752 346.099 131.848 345.647 131.848 345.176C131.848 344.633 131.717 344.164 131.456 343.767C131.2 343.37 130.848 343.064 130.402 342.848C129.955 342.632 129.453 342.524 128.895 342.524C128.303 342.524 127.786 342.647 127.344 342.893C126.907 343.134 126.568 343.473 126.327 343.91C126.091 344.347 125.973 344.859 125.973 345.447H124.195C124.195 344.543 124.404 343.749 124.821 343.067C125.237 342.384 125.805 341.852 126.523 341.47C127.246 341.088 128.057 340.897 128.955 340.897C129.859 340.897 130.66 341.088 131.358 341.47C132.056 341.852 132.603 342.366 133 343.014C133.397 343.662 133.595 344.382 133.595 345.176C133.595 345.743 133.492 346.298 133.286 346.84C133.085 347.377 132.734 347.977 132.232 348.64C131.735 349.298 131.044 350.101 130.161 351.05L126.696 354.756V354.876H133.866V356.533H124.135ZM141.918 356.744C140.883 356.744 139.969 356.561 139.176 356.194C138.388 355.823 137.773 355.313 137.331 354.665C136.889 354.013 136.67 353.27 136.675 352.436C136.67 351.783 136.798 351.181 137.06 350.628C137.321 350.071 137.677 349.607 138.129 349.235C138.586 348.859 139.096 348.62 139.658 348.52V348.429C138.92 348.238 138.332 347.824 137.896 347.186C137.459 346.544 137.243 345.813 137.248 344.995C137.243 344.211 137.441 343.511 137.843 342.893C138.245 342.276 138.797 341.789 139.5 341.432C140.208 341.076 141.014 340.897 141.918 340.897C142.811 340.897 143.61 341.076 144.313 341.432C145.016 341.789 145.568 342.276 145.97 342.893C146.376 343.511 146.582 344.211 146.587 344.995C146.582 345.813 146.359 346.544 145.917 347.186C145.48 347.824 144.9 348.238 144.177 348.429V348.52C144.734 348.62 145.236 348.859 145.683 349.235C146.13 349.607 146.487 350.071 146.753 350.628C147.019 351.181 147.155 351.783 147.16 352.436C147.155 353.27 146.929 354.013 146.482 354.665C146.04 355.313 145.425 355.823 144.636 356.194C143.853 356.561 142.947 356.744 141.918 356.744ZM141.918 355.087C142.615 355.087 143.218 354.974 143.725 354.748C144.232 354.522 144.624 354.204 144.9 353.792C145.176 353.38 145.317 352.898 145.322 352.346C145.317 351.763 145.166 351.249 144.87 350.802C144.574 350.355 144.169 350.003 143.657 349.747C143.15 349.491 142.57 349.363 141.918 349.363C141.26 349.363 140.672 349.491 140.155 349.747C139.643 350.003 139.239 350.355 138.942 350.802C138.651 351.249 138.508 351.763 138.513 352.346C138.508 352.898 138.641 353.38 138.912 353.792C139.189 354.204 139.583 354.522 140.095 354.748C140.607 354.974 141.215 355.087 141.918 355.087ZM141.918 347.766C142.47 347.766 142.959 347.656 143.386 347.435C143.818 347.214 144.157 346.905 144.403 346.509C144.649 346.112 144.775 345.647 144.78 345.115C144.775 344.593 144.652 344.139 144.411 343.752C144.169 343.36 143.836 343.059 143.409 342.848C142.982 342.632 142.485 342.524 141.918 342.524C141.34 342.524 140.835 342.632 140.404 342.848C139.972 343.059 139.638 343.36 139.402 343.752C139.166 344.139 139.05 344.593 139.055 345.115C139.05 345.647 139.168 346.112 139.409 346.509C139.655 346.905 139.994 347.214 140.426 347.435C140.858 347.656 141.355 347.766 141.918 347.766Z" fill="#333333"/>
<path d="M162.266 356.533V355.178L167.358 349.604C167.955 348.951 168.447 348.384 168.834 347.902C169.221 347.415 169.507 346.958 169.693 346.531C169.883 346.099 169.979 345.647 169.979 345.176C169.979 344.633 169.848 344.164 169.587 343.767C169.331 343.37 168.98 343.064 168.533 342.848C168.086 342.632 167.584 342.524 167.026 342.524C166.434 342.524 165.917 342.647 165.475 342.893C165.038 343.134 164.699 343.473 164.458 343.91C164.222 344.347 164.104 344.859 164.104 345.447H162.327C162.327 344.543 162.535 343.749 162.952 343.067C163.369 342.384 163.936 341.852 164.654 341.47C165.377 341.088 166.188 340.897 167.087 340.897C167.99 340.897 168.791 341.088 169.489 341.47C170.187 341.852 170.735 342.366 171.131 343.014C171.528 343.662 171.726 344.382 171.726 345.176C171.726 345.743 171.623 346.298 171.417 346.84C171.217 347.377 170.865 347.977 170.363 348.64C169.866 349.298 169.175 350.101 168.292 351.05L164.827 354.756V354.876H171.997V356.533H162.266ZM180.019 340.897C180.651 340.903 181.284 341.023 181.917 341.259C182.549 341.495 183.127 341.887 183.649 342.434C184.171 342.976 184.59 343.717 184.907 344.656C185.223 345.595 185.381 346.772 185.381 348.188C185.381 349.559 185.251 350.777 184.99 351.841C184.733 352.901 184.362 353.794 183.875 354.522C183.393 355.25 182.805 355.803 182.112 356.179C181.425 356.556 180.646 356.744 179.778 356.744C178.914 356.744 178.143 356.573 177.465 356.232C176.793 355.886 176.24 355.406 175.808 354.793C175.382 354.176 175.108 353.46 174.987 352.647H176.825C176.991 353.355 177.32 353.94 177.812 354.402C178.309 354.859 178.964 355.087 179.778 355.087C180.968 355.087 181.907 354.568 182.594 353.528C183.287 352.489 183.634 351.02 183.634 349.122H183.513C183.232 349.544 182.898 349.908 182.512 350.214C182.125 350.521 181.696 350.757 181.224 350.922C180.752 351.088 180.25 351.171 179.717 351.171C178.834 351.171 178.023 350.952 177.285 350.515C176.552 350.074 175.964 349.469 175.522 348.7C175.085 347.927 174.867 347.043 174.867 346.049C174.867 345.105 175.078 344.242 175.5 343.458C175.926 342.67 176.524 342.042 177.292 341.575C178.065 341.108 178.974 340.882 180.019 340.897ZM180.019 342.554C179.386 342.554 178.816 342.713 178.309 343.029C177.807 343.34 177.408 343.762 177.111 344.294C176.82 344.822 176.675 345.406 176.675 346.049C176.675 346.692 176.815 347.277 177.096 347.804C177.383 348.326 177.772 348.743 178.264 349.054C178.761 349.361 179.326 349.514 179.958 349.514C180.435 349.514 180.88 349.421 181.292 349.235C181.703 349.044 182.062 348.786 182.369 348.459C182.68 348.128 182.923 347.754 183.099 347.337C183.275 346.915 183.363 346.476 183.363 346.019C183.363 345.417 183.217 344.852 182.926 344.324C182.64 343.797 182.243 343.37 181.736 343.044C181.234 342.718 180.661 342.554 180.019 342.554Z" fill="#333333"/>
<path d="M204.851 356.744C203.857 356.744 202.971 356.573 202.192 356.232C201.419 355.891 200.804 355.416 200.347 354.809C199.895 354.196 199.649 353.485 199.609 352.677H201.507C201.547 353.174 201.718 353.603 202.019 353.965C202.32 354.322 202.714 354.598 203.201 354.793C203.689 354.989 204.228 355.087 204.821 355.087C205.484 355.087 206.071 354.972 206.583 354.741C207.095 354.51 207.497 354.188 207.788 353.777C208.08 353.365 208.225 352.888 208.225 352.346C208.225 351.778 208.085 351.279 207.803 350.847C207.522 350.41 207.11 350.069 206.568 349.823C206.026 349.577 205.363 349.454 204.58 349.454H203.345V347.797H204.58C205.192 347.797 205.73 347.686 206.192 347.465C206.659 347.244 207.023 346.933 207.284 346.531C207.55 346.13 207.683 345.658 207.683 345.115C207.683 344.593 207.567 344.139 207.336 343.752C207.105 343.365 206.779 343.064 206.357 342.848C205.941 342.632 205.448 342.524 204.881 342.524C204.349 342.524 203.847 342.622 203.375 342.818C202.908 343.009 202.526 343.288 202.23 343.654C201.934 344.016 201.773 344.452 201.748 344.965H199.94C199.97 344.156 200.214 343.448 200.671 342.841C201.128 342.228 201.725 341.751 202.463 341.41C203.207 341.068 204.022 340.897 204.911 340.897C205.865 340.897 206.684 341.091 207.367 341.477C208.049 341.859 208.574 342.364 208.941 342.991C209.307 343.619 209.49 344.297 209.49 345.025C209.49 345.894 209.262 346.634 208.805 347.247C208.353 347.859 207.738 348.284 206.96 348.52V348.64C207.934 348.801 208.695 349.215 209.242 349.883C209.789 350.546 210.063 351.367 210.063 352.346C210.063 353.184 209.834 353.937 209.378 354.605C208.926 355.268 208.308 355.79 207.525 356.172C206.741 356.553 205.85 356.744 204.851 356.744ZM218.175 356.744C217.04 356.744 216.073 356.435 215.275 355.818C214.476 355.195 213.866 354.294 213.445 353.114C213.023 351.929 212.812 350.498 212.812 348.821C212.812 347.154 213.023 345.73 213.445 344.55C213.871 343.365 214.484 342.462 215.282 341.839C216.086 341.211 217.05 340.897 218.175 340.897C219.299 340.897 220.261 341.211 221.059 341.839C221.863 342.462 222.475 343.365 222.897 344.55C223.324 345.73 223.537 347.154 223.537 348.821C223.537 350.498 223.326 351.929 222.904 353.114C222.483 354.294 221.873 355.195 221.074 355.818C220.276 356.435 219.309 356.744 218.175 356.744ZM218.175 355.087C219.299 355.087 220.173 354.545 220.796 353.46C221.418 352.376 221.73 350.829 221.73 348.821C221.73 347.485 221.586 346.348 221.3 345.409C221.019 344.47 220.612 343.755 220.08 343.262C219.553 342.77 218.918 342.524 218.175 342.524C217.06 342.524 216.189 343.074 215.561 344.174C214.933 345.268 214.62 346.817 214.62 348.821C214.62 350.156 214.76 351.291 215.041 352.225C215.323 353.159 215.727 353.87 216.254 354.357C216.786 354.844 217.426 355.087 218.175 355.087Z" fill="#333333"/>
<path d="M243.386 356.744C242.392 356.744 241.506 356.573 240.728 356.232C239.954 355.891 239.339 355.416 238.882 354.809C238.43 354.196 238.184 353.485 238.144 352.677H240.042C240.082 353.174 240.253 353.603 240.554 353.965C240.856 354.322 241.25 354.598 241.737 354.793C242.224 354.989 242.764 355.087 243.356 355.087C244.019 355.087 244.606 354.972 245.119 354.741C245.631 354.51 246.032 354.188 246.324 353.777C246.615 353.365 246.76 352.888 246.76 352.346C246.76 351.778 246.62 351.279 246.339 350.847C246.058 350.41 245.646 350.069 245.103 349.823C244.561 349.577 243.898 349.454 243.115 349.454H241.88V347.797H243.115C243.728 347.797 244.265 347.686 244.727 347.465C245.194 347.244 245.558 346.933 245.819 346.531C246.085 346.13 246.218 345.658 246.218 345.115C246.218 344.593 246.103 344.139 245.872 343.752C245.641 343.365 245.314 343.064 244.893 342.848C244.476 342.632 243.984 342.524 243.416 342.524C242.884 342.524 242.382 342.622 241.91 342.818C241.443 343.009 241.061 343.288 240.765 343.654C240.469 344.016 240.308 344.452 240.283 344.965H238.476C238.506 344.156 238.749 343.448 239.206 342.841C239.663 342.228 240.261 341.751 240.999 341.41C241.742 341.068 242.558 340.897 243.447 340.897C244.401 340.897 245.219 341.091 245.902 341.477C246.585 341.859 247.109 342.364 247.476 342.991C247.843 343.619 248.026 344.297 248.026 345.025C248.026 345.894 247.797 346.634 247.34 347.247C246.889 347.859 246.273 348.284 245.495 348.52V348.64C246.469 348.801 247.23 349.215 247.777 349.883C248.325 350.546 248.598 351.367 248.598 352.346C248.598 353.184 248.37 353.937 247.913 354.605C247.461 355.268 246.843 355.79 246.06 356.172C245.277 356.553 244.385 356.744 243.386 356.744ZM257.102 341.108V356.533H255.234V343.067H255.143L251.377 345.567V343.669L255.234 341.108H257.102Z" fill="#333333"/>
<path d="M285.422 341.108V356.533H283.554V343.067H283.463L279.697 345.567V343.669L283.554 341.108H285.422Z" fill="#E0E0E0"/>
<path d="M317.099 356.533V355.178L322.19 349.604C322.788 348.951 323.28 348.384 323.667 347.902C324.053 347.415 324.34 346.958 324.525 346.531C324.716 346.099 324.812 345.647 324.812 345.176C324.812 344.633 324.681 344.164 324.42 343.767C324.164 343.37 323.812 343.064 323.365 342.848C322.919 342.632 322.416 342.524 321.859 342.524C321.267 342.524 320.749 342.647 320.308 342.893C319.871 343.134 319.532 343.473 319.291 343.91C319.055 344.347 318.937 344.859 318.937 345.447H317.159C317.159 344.543 317.368 343.749 317.784 343.067C318.201 342.384 318.769 341.852 319.487 341.47C320.21 341.088 321.021 340.897 321.919 340.897C322.823 340.897 323.624 341.088 324.322 341.47C325.02 341.852 325.567 342.366 325.964 343.014C326.361 343.662 326.559 344.382 326.559 345.176C326.559 345.743 326.456 346.298 326.25 346.84C326.049 347.377 325.698 347.977 325.196 348.64C324.699 349.298 324.008 350.101 323.124 351.05L319.66 354.756V354.876H326.83V356.533H317.099Z" fill="#E0E0E0"/>
</g>
<defs>
<filter id="filter0_d_312_315" x="0" y="0" width="414" height="435.953" filterUnits="userSpaceOnUse" color-interpolation-filters="sRGB">
<feFlood flood-opacity="0" result="BackgroundImageFix"/>
<feColorMatrix in="SourceAlpha" type="matrix" values="0 0 0 0 0 0 0 0 0 0 0 0 0 0 0 0 0 0 127 0" result="hardAlpha"/>
<feOffset/>
<feGaussianBlur stdDeviation="17.5"/>
<feComposite in2="hardAlpha" operator="out"/>
<feColorMatrix type="matrix" values="0 0 0 0 0.427422 0 0 0 0 0.47927 0 0 0 0 0.773077 0 0 0 0.2 0"/>
<feBlend mode="normal" in2="BackgroundImageFix" result="effect1_dropShadow_312_315"/>
<feBlend mode="normal" in="SourceGraphic" in2="effect1_dropShadow_312_315" result="shape"/>
</filter>
</defs>
</svg>
