<svg width="41" height="35" viewBox="0 0 41 35" fill="none" xmlns="http://www.w3.org/2000/svg">
<path d="M29.7246 0.75C35.6762 0.75 40.2499 5.07992 40.25 10.4902C40.25 13.8306 38.6424 16.9305 35.6318 20.3574C32.9918 23.3625 29.3452 26.5404 24.9277 30.2871L22.9883 31.9287L20.501 34.0186L18.0127 31.9102L18.0107 31.9092L16.0713 30.2705C11.6541 26.5314 8.00793 23.3573 5.36816 20.3545C2.35774 16.9301 0.75 13.8306 0.75 10.4902C0.750128 5.07992 5.32383 0.75 11.2754 0.75C14.6346 0.750113 17.8558 2.20912 19.9463 4.49316L20.5 5.09766L21.0537 4.49316C23.1442 2.20912 26.3654 0.750113 29.7246 0.75Z" stroke="#F55959" stroke-width="1.5"/>
</svg>
