<svg width="402" height="192" viewBox="0 0 402 192" fill="none" xmlns="http://www.w3.org/2000/svg">
<path d="M235.434 120.708C234.785 120.557 234.135 120.406 233.486 120.255C232.286 123.056 230.246 125.353 227.364 127.146C224.547 128.954 221.678 129.518 218.756 128.838C216.159 128.234 215.132 126.762 215.677 124.425C216.009 122.997 217.064 121.702 218.84 120.541C220.681 119.395 222.633 118.652 224.698 118.311C226.777 117.906 229.041 117.885 231.489 118.25C231.806 116.886 231.664 115.587 231.062 114.351C230.007 112.12 227.369 110.514 223.148 109.531C215.811 107.823 207.91 108.243 199.446 110.789C194.956 112.14 191.189 114.206 188.146 116.989C185.182 119.721 183.33 122.678 182.589 125.86C182 128.392 182.158 130.654 183.063 132.644C188.636 132.23 193.515 132.442 197.701 133.28C203.15 134.275 205.68 136.198 205.29 139.051C204.904 142.178 202.015 143.559 196.625 143.194C195.346 143.101 193.959 142.881 192.466 142.534C186.687 141.188 182.097 138.853 178.696 135.529C172.277 136.636 165.999 139.349 159.859 143.67C153.334 148.174 149.52 152.796 148.417 157.536C148.039 159.16 148.056 160.704 148.468 162.169C149.945 168.467 154.936 172.607 163.442 174.587C170.324 176.19 177.992 176.332 186.444 175.014C196.686 173.36 204.779 170.35 210.724 165.984C212.05 164.993 213.113 164.692 213.911 165.084C214.855 165.44 213.878 166.548 210.982 168.406C208.085 170.264 204.484 172.061 200.178 173.797C195.147 175.706 190.575 176.969 186.462 177.585C176.315 179.125 166.729 178.844 157.704 176.742C146.601 174.157 140.332 169.036 138.898 161.378C138.507 159.234 138.539 157.187 138.992 155.239C140.322 149.526 145.151 144.661 153.479 140.644C159.801 137.598 167.606 135.24 176.893 133.569C173.822 129.705 172.96 125.911 174.307 122.186C176.734 115.29 184.463 110.313 197.496 107.255C206.035 105.273 214.427 105.242 222.673 107.162C229.036 108.643 232.762 111.017 233.85 114.282C234.292 115.617 234.324 117.096 233.946 118.719C235.829 119.157 236.695 119.701 236.544 120.351C236.438 120.805 236.068 120.924 235.434 120.708ZM230.886 119.957C227.923 119.747 225.397 120.014 223.306 120.76C220.301 121.908 218.64 123.164 218.322 124.528C218.065 125.631 218.554 126.327 219.787 126.614C221.93 127.113 224.257 126.525 226.769 124.851C228.545 123.69 229.917 122.059 230.886 119.957ZM202.66 138.439C202.703 137.079 201.133 136.03 197.952 135.289C196.848 135.032 195.631 134.817 194.303 134.645C191.485 134.399 188.212 134.493 184.483 134.925C186.826 137.798 190.537 139.792 195.617 140.906C197.71 141.325 199.391 141.305 200.662 140.848C201.947 140.326 202.613 139.523 202.66 138.439Z" fill="#62707D"/>
<path d="M227.548 177.807C227.361 177.994 227.128 178.087 226.848 178.087C226.568 178.11 226.334 178.005 226.148 177.772L217.923 168.567L225.903 159.257C226.089 159.07 226.288 158.965 226.498 158.942C226.731 158.919 226.953 159 227.163 159.187C227.396 159.374 227.513 159.595 227.513 159.852C227.513 160.109 227.419 160.354 227.233 160.587L220.513 168.462L227.583 176.407C227.769 176.617 227.863 176.85 227.863 177.107C227.863 177.364 227.758 177.597 227.548 177.807ZM214.178 178.087C213.874 178.087 213.618 177.994 213.408 177.807C213.221 177.597 213.128 177.34 213.128 177.037V159.992C213.128 159.665 213.221 159.409 213.408 159.222C213.618 159.035 213.874 158.942 214.178 158.942C214.504 158.942 214.761 159.035 214.948 159.222C215.134 159.409 215.228 159.665 215.228 159.992V167.692H219.358V169.582H215.228V177.037C215.228 177.34 215.134 177.597 214.948 177.807C214.761 177.994 214.504 178.087 214.178 178.087ZM239.241 178.297C237.374 178.297 235.694 177.877 234.201 177.037C232.731 176.174 231.564 175.007 230.701 173.537C229.861 172.044 229.441 170.375 229.441 168.532C229.441 166.665 229.861 164.997 230.701 163.527C231.564 162.034 232.731 160.867 234.201 160.027C235.694 159.164 237.374 158.732 239.241 158.732C241.108 158.732 242.776 159.164 244.246 160.027C245.716 160.867 246.871 162.034 247.711 163.527C248.574 164.997 249.006 166.665 249.006 168.532L248.131 169.932C248.131 171.519 247.734 172.942 246.941 174.202C246.171 175.462 245.121 176.465 243.791 177.212C242.461 177.935 240.944 178.297 239.241 178.297ZM239.241 176.337C240.711 176.337 242.018 175.999 243.161 175.322C244.328 174.622 245.238 173.689 245.891 172.522C246.568 171.332 246.906 170.002 246.906 168.532C246.906 167.039 246.568 165.709 245.891 164.542C245.238 163.352 244.328 162.419 243.161 161.742C242.018 161.042 240.711 160.692 239.241 160.692C237.794 160.692 236.488 161.042 235.321 161.742C234.154 162.419 233.233 163.352 232.556 164.542C231.879 165.709 231.541 167.039 231.541 168.532C231.541 170.002 231.879 171.332 232.556 172.522C233.233 173.689 234.154 174.622 235.321 175.322C236.488 175.999 237.794 176.337 239.241 176.337ZM247.956 178.087C247.653 178.087 247.396 177.994 247.186 177.807C246.999 177.597 246.906 177.34 246.906 177.037V170.632L247.571 168.532H249.006V177.037C249.006 177.34 248.913 177.597 248.726 177.807C248.539 177.994 248.283 178.087 247.956 178.087ZM280.601 178.087C280.298 178.087 280.041 177.994 279.831 177.807C279.644 177.597 279.551 177.34 279.551 177.037V166.922C279.551 165.125 279.073 163.655 278.116 162.512C277.183 161.369 275.958 160.797 274.441 160.797C272.831 160.797 271.513 161.334 270.486 162.407C269.483 163.457 269.004 164.88 269.051 166.677H266.951C266.998 165.067 267.348 163.667 268.001 162.477C268.654 161.287 269.541 160.365 270.661 159.712C271.781 159.035 273.041 158.697 274.441 158.697C275.864 158.697 277.113 159.047 278.186 159.747C279.259 160.447 280.099 161.415 280.706 162.652C281.336 163.889 281.651 165.312 281.651 166.922V177.037C281.651 177.34 281.558 177.597 281.371 177.807C281.184 177.994 280.928 178.087 280.601 178.087ZM255.296 178.087C254.993 178.087 254.736 177.994 254.526 177.807C254.339 177.597 254.246 177.34 254.246 177.037V159.992C254.246 159.665 254.339 159.409 254.526 159.222C254.736 159.035 254.993 158.942 255.296 158.942C255.623 158.942 255.879 159.035 256.066 159.222C256.253 159.409 256.346 159.665 256.346 159.992V177.037C256.346 177.34 256.253 177.597 256.066 177.807C255.879 177.994 255.623 178.087 255.296 178.087ZM268.001 178.087C267.698 178.087 267.441 177.994 267.231 177.807C267.044 177.597 266.951 177.34 266.951 177.037V166.922C266.951 165.125 266.473 163.655 265.516 162.512C264.583 161.369 263.358 160.797 261.841 160.797C260.231 160.797 258.913 161.31 257.886 162.337C256.859 163.364 256.346 164.694 256.346 166.327H254.596C254.666 164.834 255.016 163.515 255.646 162.372C256.299 161.229 257.163 160.33 258.236 159.677C259.309 159.024 260.511 158.697 261.841 158.697C263.264 158.697 264.513 159.047 265.586 159.747C266.659 160.447 267.499 161.415 268.106 162.652C268.736 163.889 269.051 165.312 269.051 166.922V177.037C269.051 177.34 268.958 177.597 268.771 177.807C268.584 177.994 268.328 178.087 268.001 178.087ZM296.075 178.262C294.232 178.262 292.587 177.854 291.14 177.037C289.717 176.197 288.597 175.042 287.78 173.572C286.964 172.102 286.555 170.422 286.555 168.532C286.555 166.619 286.94 164.939 287.71 163.492C288.48 162.022 289.542 160.867 290.895 160.027C292.249 159.187 293.8 158.767 295.55 158.767C297.277 158.767 298.805 159.175 300.135 159.992C301.465 160.785 302.504 161.894 303.25 163.317C303.997 164.717 304.37 166.339 304.37 168.182C304.37 168.485 304.277 168.73 304.09 168.917C303.904 169.08 303.659 169.162 303.355 169.162H287.955V167.342H303.915L302.375 168.497C302.422 166.98 302.165 165.639 301.605 164.472C301.045 163.305 300.24 162.395 299.19 161.742C298.164 161.065 296.95 160.727 295.55 160.727C294.22 160.727 293.03 161.065 291.98 161.742C290.954 162.395 290.137 163.305 289.53 164.472C288.947 165.639 288.655 166.992 288.655 168.532C288.655 170.049 288.97 171.39 289.6 172.557C290.23 173.724 291.105 174.645 292.225 175.322C293.345 175.975 294.629 176.302 296.075 176.302C296.985 176.302 297.895 176.15 298.805 175.847C299.739 175.52 300.474 175.1 301.01 174.587C301.197 174.4 301.419 174.307 301.675 174.307C301.955 174.284 302.189 174.354 302.375 174.517C302.632 174.727 302.76 174.96 302.76 175.217C302.784 175.474 302.679 175.707 302.445 175.917C301.699 176.594 300.719 177.154 299.505 177.597C298.315 178.04 297.172 178.262 296.075 178.262ZM309.983 186.277C309.68 186.277 309.423 186.172 309.213 185.962C309.027 185.775 308.933 185.53 308.933 185.227V168.322C308.98 166.479 309.423 164.845 310.263 163.422C311.127 161.975 312.293 160.832 313.763 159.992C315.233 159.152 316.878 158.732 318.698 158.732C320.565 158.732 322.233 159.164 323.703 160.027C325.197 160.867 326.363 162.034 327.203 163.527C328.067 164.997 328.498 166.665 328.498 168.532C328.498 170.375 328.067 172.044 327.203 173.537C326.363 175.007 325.197 176.174 323.703 177.037C322.233 177.877 320.565 178.297 318.698 178.297C317.018 178.297 315.502 177.935 314.148 177.212C312.818 176.489 311.78 175.52 311.033 174.307V185.227C311.033 185.53 310.94 185.775 310.753 185.962C310.567 186.172 310.31 186.277 309.983 186.277ZM318.698 176.337C320.168 176.337 321.475 175.999 322.618 175.322C323.785 174.622 324.707 173.689 325.383 172.522C326.06 171.332 326.398 170.002 326.398 168.532C326.398 167.039 326.06 165.709 325.383 164.542C324.707 163.352 323.785 162.419 322.618 161.742C321.475 161.042 320.168 160.692 318.698 160.692C317.252 160.692 315.945 161.042 314.778 161.742C313.612 162.419 312.69 163.352 312.013 164.542C311.36 165.709 311.033 167.039 311.033 168.532C311.033 170.002 311.36 171.332 312.013 172.522C312.69 173.689 313.612 174.622 314.778 175.322C315.945 175.999 317.252 176.337 318.698 176.337ZM342.253 178.332C340.573 178.332 339.068 177.994 337.738 177.317C336.408 176.617 335.346 175.602 334.553 174.272C333.783 172.942 333.398 171.32 333.398 169.407V159.992C333.398 159.689 333.491 159.444 333.678 159.257C333.888 159.047 334.145 158.942 334.448 158.942C334.751 158.942 334.996 159.047 335.183 159.257C335.393 159.444 335.498 159.689 335.498 159.992V169.407C335.498 170.924 335.79 172.195 336.373 173.222C336.98 174.225 337.785 174.984 338.788 175.497C339.815 175.987 340.97 176.232 342.253 176.232C343.513 176.232 344.645 175.987 345.648 175.497C346.651 175.007 347.445 174.354 348.028 173.537C348.611 172.697 348.903 171.752 348.903 170.702H350.653C350.56 172.149 350.128 173.455 349.358 174.622C348.588 175.765 347.585 176.675 346.348 177.352C345.135 178.005 343.77 178.332 342.253 178.332ZM349.953 178.087C349.65 178.087 349.393 177.994 349.183 177.807C348.996 177.597 348.903 177.34 348.903 177.037V159.992C348.903 159.665 348.996 159.409 349.183 159.222C349.393 159.035 349.65 158.942 349.953 158.942C350.28 158.942 350.536 159.035 350.723 159.222C350.91 159.409 351.003 159.665 351.003 159.992V177.037C351.003 177.34 350.91 177.597 350.723 177.807C350.536 177.994 350.28 178.087 349.953 178.087ZM373.853 178.087C373.549 178.087 373.293 177.994 373.083 177.807C372.896 177.597 372.803 177.34 372.803 177.037V159.992C372.803 159.665 372.896 159.409 373.083 159.222C373.293 159.035 373.549 158.942 373.853 158.942C374.179 158.942 374.436 159.035 374.623 159.222C374.809 159.409 374.903 159.665 374.903 159.992V177.037C374.903 177.34 374.809 177.597 374.623 177.807C374.436 177.994 374.179 178.087 373.853 178.087ZM358.348 178.087C358.044 178.087 357.788 177.994 357.578 177.807C357.391 177.597 357.298 177.34 357.298 177.037V159.992C357.298 159.665 357.391 159.409 357.578 159.222C357.788 159.035 358.044 158.942 358.348 158.942C358.674 158.942 358.931 159.035 359.118 159.222C359.304 159.409 359.398 159.665 359.398 159.992V177.037C359.398 177.34 359.304 177.597 359.118 177.807C358.931 177.994 358.674 178.087 358.348 178.087ZM358.943 169.582V167.692H373.678V169.582H358.943ZM389.939 178.297C388.073 178.297 386.393 177.877 384.899 177.037C383.429 176.174 382.263 175.007 381.399 173.537C380.559 172.044 380.139 170.375 380.139 168.532C380.139 166.665 380.559 164.997 381.399 163.527C382.263 162.034 383.429 160.867 384.899 160.027C386.393 159.164 388.073 158.732 389.939 158.732C391.806 158.732 393.474 159.164 394.944 160.027C396.414 160.867 397.569 162.034 398.409 163.527C399.273 164.997 399.704 166.665 399.704 168.532L398.829 169.932C398.829 171.519 398.433 172.942 397.639 174.202C396.869 175.462 395.819 176.465 394.489 177.212C393.159 177.935 391.643 178.297 389.939 178.297ZM389.939 176.337C391.409 176.337 392.716 175.999 393.859 175.322C395.026 174.622 395.936 173.689 396.589 172.522C397.266 171.332 397.604 170.002 397.604 168.532C397.604 167.039 397.266 165.709 396.589 164.542C395.936 163.352 395.026 162.419 393.859 161.742C392.716 161.042 391.409 160.692 389.939 160.692C388.493 160.692 387.186 161.042 386.019 161.742C384.853 162.419 383.931 163.352 383.254 164.542C382.578 165.709 382.239 167.039 382.239 168.532C382.239 170.002 382.578 171.332 383.254 172.522C383.931 173.689 384.853 174.622 386.019 175.322C387.186 175.999 388.493 176.337 389.939 176.337ZM398.654 178.087C398.351 178.087 398.094 177.994 397.884 177.807C397.698 177.597 397.604 177.34 397.604 177.037V170.632L398.269 168.532H399.704V177.037C399.704 177.34 399.611 177.597 399.424 177.807C399.238 177.994 398.981 178.087 398.654 178.087Z" fill="black"/>
<path d="M104.139 44.3414C103.491 44.185 102.843 44.0286 102.195 43.8722C100.973 46.6633 98.9137 48.9438 96.0176 50.7137C93.1863 52.4993 90.3125 53.0401 87.3962 52.3362C84.804 51.7106 83.7895 50.2312 84.3526 47.8982C84.6967 46.4725 85.7615 45.1864 87.547 44.04C89.3972 42.9092 91.3559 42.1818 93.423 41.8578C95.5057 41.4689 97.7694 41.4666 100.214 41.851C100.543 40.49 100.411 39.1895 99.8186 37.9492C98.7816 35.7101 96.157 34.0822 91.9446 33.0655C84.6216 31.298 76.7175 31.6534 68.2325 34.1318C63.7319 35.4459 59.9487 37.4817 56.8827 40.2393C53.8972 42.9478 52.0213 45.8898 51.2548 49.0653C50.6448 51.5927 50.7845 53.8553 51.674 55.8531C57.2495 55.4843 62.1266 55.7356 66.3055 56.607C71.7469 57.6461 74.261 59.5902 73.8476 62.4394C73.4365 65.5635 70.537 66.9211 65.1492 66.5122C63.871 66.4095 62.4866 66.1782 60.9961 65.8185C55.2283 64.4263 50.6573 62.0543 47.2829 58.7024C40.856 59.7572 34.5554 62.4199 28.381 66.6905C21.8201 71.1421 17.9687 75.7333 16.8269 80.4641C16.4358 82.0842 16.4403 83.6284 16.8404 85.0966C18.2662 91.4072 23.2239 95.5871 31.7134 97.6362C38.5828 99.2942 46.2489 99.4985 54.7116 98.2492C64.9664 96.6781 73.0838 93.7338 79.0638 89.4163C80.3978 88.4352 81.4627 88.1436 82.2582 88.5414C83.199 88.9056 82.2135 90.0051 79.3018 91.8398C76.39 93.6745 72.7744 95.4422 68.4548 97.1428C63.4089 99.0111 58.8267 100.237 54.7083 100.82C44.5495 102.277 34.9661 101.919 25.9581 99.7447C14.8763 97.07 8.64929 91.8979 7.27708 84.2285C6.90385 82.081 6.95186 80.0352 7.42111 78.091C8.79758 72.3881 13.6657 67.5623 22.0256 63.6135C28.372 60.6189 36.1955 58.3238 45.4962 56.7281C42.457 52.8398 41.6256 49.0386 43.0021 45.3246C45.4848 38.4484 53.2546 33.5343 66.3118 30.5821C74.8661 28.669 83.2584 28.7058 91.4887 30.6923C97.8397 32.2251 101.546 34.6285 102.607 37.9023C103.039 39.2408 103.059 40.7202 102.668 42.3403C104.547 42.7939 105.409 43.3448 105.252 43.9928C105.143 44.4465 104.772 44.5627 104.139 44.3414ZM99.5974 43.5538C96.6365 43.3192 94.1079 43.5662 92.0118 44.2947C88.9973 45.4188 87.3258 46.6613 86.9973 48.0222C86.7314 49.1239 87.2141 49.8234 88.4454 50.1206C90.584 50.6367 92.9159 50.068 95.441 48.4143C97.2265 47.2679 98.612 45.6477 99.5974 43.5538ZM71.223 61.8059C71.2766 60.4472 69.7156 59.3847 66.5402 58.6182C65.4385 58.3523 64.2239 58.1278 62.8965 57.9446C60.0808 57.6764 56.807 57.7435 53.0751 58.1458C55.3948 61.0375 59.0898 63.0609 64.1603 64.2161C66.2497 64.6519 67.9313 64.6462 69.2051 64.1993C70.4945 63.6875 71.1671 62.8897 71.223 61.8059Z" fill="#62707D"/>
<path d="M277.17 115.594C277.105 115.579 277.048 115.532 276.998 115.452C276.694 114.835 276.332 114.103 275.911 113.254C275.498 112.372 275.033 111.342 274.517 110.164C273.448 110.5 272.305 110.785 271.089 111.019C269.873 111.253 268.606 111.407 267.289 111.482C264.544 111.673 262.099 111.522 259.955 111.031C257.485 110.464 255.715 109.46 254.644 108.017C253.673 106.734 253.381 105.248 253.768 103.559C254.148 101.902 255.099 100.29 256.621 98.7239C258.176 97.1653 260.088 95.911 262.358 94.961C263.289 94.6275 264.485 94.1836 265.946 93.6295C267.439 93.0828 269.177 92.4384 271.16 91.6961C271.187 90.9841 271.238 90.3119 271.315 89.6797C271.392 89.0475 271.489 88.4715 271.609 87.9516C272.644 83.4355 275.317 81.3982 279.628 81.8396C279.725 81.8619 279.807 81.8806 279.872 81.8955C279.976 81.8853 280.078 81.8914 280.175 81.9138C281.02 82.1075 281.626 82.5202 281.994 83.1518C282.37 83.7509 282.461 84.4729 282.267 85.3176C281.932 86.7796 280.95 88.0764 279.323 89.2079C278.429 89.8237 277.395 90.4585 276.219 91.1122C275.05 91.7334 273.741 92.3735 272.29 93.0325C272.124 94.0546 272.036 95.1116 272.025 96.2034C272.777 96.2049 273.622 96.245 274.562 96.3237C275.509 96.3698 276.562 96.4746 277.722 96.6379C279.148 96.8284 280.259 96.9805 281.054 97.0944C281.856 97.1758 282.326 97.2151 282.463 97.2124C283.508 97.281 284.422 97.3197 285.207 97.3286C285.991 97.3376 286.629 97.313 287.122 97.2548C289.64 97.0116 291.071 96.2114 291.417 94.8543C291.529 94.3669 291.779 94.1679 292.169 94.2574C292.527 94.3393 292.601 94.8352 292.392 95.7449C292.065 97.1744 290.338 97.9925 287.213 98.1991C285.509 98.3213 283.616 98.2977 281.535 98.1281C282.838 99.0083 283.269 100.407 282.83 102.324C282.778 102.551 282.706 102.791 282.613 103.044C282.561 103.271 282.489 103.511 282.397 103.763C281.476 106.288 279.279 108.264 275.805 109.69L278.041 114.255C278.077 114.4 278.079 114.538 278.05 114.667C277.886 115.382 277.592 115.691 277.17 115.594ZM272.629 91.1095C277.128 89.2346 279.735 87.336 280.45 85.4137L280.494 85.2188C280.584 84.8289 280.556 84.4292 280.41 84.0197C280.22 83.3603 279.751 82.945 279.003 82.7736C278.873 82.7438 278.74 82.7302 278.602 82.7329C278.472 82.7031 278.339 82.6895 278.201 82.6922C276.997 82.7238 275.85 83.6236 274.761 85.3915C273.876 86.8642 273.165 88.7703 272.629 91.1095ZM262.363 110.147C263.305 110.363 264.384 110.507 265.598 110.581C268.431 110.752 271.248 110.252 274.047 109.081C272.263 105.081 271.276 101.332 271.086 97.8349C268.656 98.4403 267.236 99.6365 266.826 101.423C266.64 102.236 266.862 103.056 267.493 103.885C267.751 104.252 267.787 104.465 267.602 104.525C267.457 104.561 267.369 104.574 267.336 104.567C267.239 104.545 267.108 104.446 266.942 104.272C266.494 103.69 266.125 103.212 265.835 102.838C265.585 102.438 265.397 102.139 265.272 101.939C264.878 101.267 264.785 100.63 264.992 100.028C265.813 97.7883 267.814 96.5202 270.994 96.2235L271.015 95.459L271.039 93.5664C269.411 94.2532 266.995 95.392 263.792 96.9828C262.464 97.7042 261.199 98.7477 259.996 100.114C258.659 101.619 257.826 103.087 257.499 104.517C256.843 107.376 258.464 109.252 262.363 110.147ZM275.26 108.488C277.927 107.15 279.681 105.466 280.523 103.436C280.615 103.184 280.687 102.944 280.739 102.716C280.824 102.496 280.892 102.273 280.944 102.045C281.421 99.9658 280.751 98.5639 278.934 97.8393L277.329 97.6766C276.325 97.583 275.378 97.5368 274.489 97.538C273.639 97.5142 272.843 97.554 272.101 97.6574C272.206 99.2887 272.511 101.017 273.015 102.843C273.56 104.644 274.308 106.525 275.26 108.488Z" fill="#62707D"/>
<path d="M82.6722 100.23C82.3688 100.23 82.1122 100.137 81.9022 99.95C81.7155 99.74 81.6222 99.4833 81.6222 99.18V82.1C81.6455 81.7966 81.7505 81.5516 81.9372 81.365C82.1238 81.1783 82.3688 81.085 82.6722 81.085C82.9988 81.085 83.2555 81.1783 83.4422 81.365C83.6288 81.5516 83.7222 81.8083 83.7222 82.135V89.24H91.4922V89.59C92.6822 89.59 93.7205 89.8116 94.6072 90.255C95.5172 90.6983 96.2288 91.305 96.7422 92.075C97.2555 92.845 97.5122 93.7316 97.5122 94.735C97.5122 95.8083 97.2555 96.765 96.7422 97.605C96.2288 98.4216 95.5172 99.0633 94.6072 99.53C93.7205 99.9966 92.6822 100.23 91.4922 100.23H82.6722ZM83.7222 98.34H91.4922C92.6588 98.34 93.6038 98.0483 94.3272 97.465C95.0505 96.8583 95.4122 95.9483 95.4122 94.735C95.4122 93.4983 95.0505 92.5883 94.3272 92.005C93.6038 91.4216 92.6588 91.13 91.4922 91.13H83.7222V98.34ZM87.5722 90.5V89.24H91.1422C92.0988 89.24 92.8805 88.9483 93.4872 88.365C94.1172 87.7816 94.4322 87.0233 94.4322 86.09C94.4322 85.2266 94.1172 84.4916 93.4872 83.885C92.8805 83.2783 92.0988 82.975 91.1422 82.975H82.7422V81.085H91.1422C92.1922 81.085 93.1138 81.295 93.9072 81.715C94.7238 82.135 95.3655 82.73 95.8322 83.5C96.2988 84.2466 96.5322 85.11 96.5322 86.09C96.5322 87.6766 96.0305 88.8083 95.0272 89.485C94.0238 90.1616 92.7288 90.5 91.1422 90.5H87.5722ZM108.008 100.44C106.748 100.44 105.581 100.242 104.508 99.845C103.458 99.4483 102.606 98.8883 101.953 98.165C101.323 97.4183 101.008 96.52 101.008 95.47C101.008 94.6766 101.206 93.9416 101.603 93.265C102.023 92.565 102.734 91.9233 103.738 91.34C104.741 90.7566 106.153 90.255 107.973 89.835C109.513 89.4616 110.586 88.9716 111.193 88.365C111.823 87.735 112.138 86.965 112.138 86.055C112.138 85.1683 111.811 84.41 111.158 83.78C110.504 83.15 109.466 82.835 108.043 82.835C106.969 82.835 106.013 83.0333 105.173 83.43C104.333 83.8033 103.621 84.3633 103.038 85.11C102.874 85.3433 102.653 85.4833 102.373 85.53C102.116 85.5766 101.871 85.5416 101.638 85.425C101.334 85.2616 101.159 85.0516 101.113 84.795C101.066 84.515 101.124 84.2583 101.288 84.025C101.964 83.0683 102.851 82.31 103.948 81.75C105.044 81.1666 106.386 80.875 107.973 80.875C109.256 80.875 110.364 81.085 111.298 81.505C112.231 81.9016 112.954 82.4966 113.468 83.29C113.981 84.06 114.238 85.0166 114.238 86.16C114.238 87.28 113.829 88.33 113.013 89.31C112.196 90.2666 110.726 90.99 108.603 91.48C106.503 91.9466 105.056 92.495 104.263 93.125C103.493 93.7316 103.108 94.49 103.108 95.4C103.108 96.4266 103.493 97.1966 104.263 97.71C105.033 98.2233 106.246 98.48 107.903 98.48C109.069 98.48 110.131 98.3166 111.088 97.99C112.068 97.6633 112.884 97.1033 113.538 96.31C113.724 96.1 113.946 95.9716 114.203 95.925C114.459 95.8783 114.704 95.9366 114.938 96.1C115.194 96.2866 115.334 96.52 115.358 96.8C115.404 97.0566 115.334 97.3016 115.148 97.535C114.354 98.4683 113.281 99.1916 111.928 99.705C110.598 100.195 109.291 100.44 108.008 100.44ZM128.578 100.405C126.735 100.405 125.09 99.9966 123.643 99.18C122.22 98.34 121.1 97.185 120.283 95.715C119.467 94.245 119.058 92.565 119.058 90.675C119.058 88.7616 119.443 87.0816 120.213 85.635C120.983 84.165 122.045 83.01 123.398 82.17C124.752 81.33 126.303 80.91 128.053 80.91C129.78 80.91 131.308 81.3183 132.638 82.135C133.968 82.9283 135.007 84.0366 135.753 85.46C136.5 86.86 136.873 88.4816 136.873 90.325C136.873 90.6283 136.78 90.8733 136.593 91.06C136.407 91.2233 136.162 91.305 135.858 91.305H120.458V89.485H136.418L134.878 90.64C134.925 89.1233 134.668 87.7816 134.108 86.615C133.548 85.4483 132.743 84.5383 131.693 83.885C130.667 83.2083 129.453 82.87 128.053 82.87C126.723 82.87 125.533 83.2083 124.483 83.885C123.457 84.5383 122.64 85.4483 122.033 86.615C121.45 87.7816 121.158 89.135 121.158 90.675C121.158 92.1916 121.473 93.5333 122.103 94.7C122.733 95.8666 123.608 96.7883 124.728 97.465C125.848 98.1183 127.132 98.445 128.578 98.445C129.488 98.445 130.398 98.2933 131.308 97.99C132.242 97.6633 132.977 97.2433 133.513 96.73C133.7 96.5433 133.922 96.45 134.178 96.45C134.458 96.4266 134.692 96.4966 134.878 96.66C135.135 96.87 135.263 97.1033 135.263 97.36C135.287 97.6166 135.182 97.85 134.948 98.06C134.202 98.7366 133.222 99.2966 132.008 99.74C130.818 100.183 129.675 100.405 128.578 100.405ZM157.992 100.23C157.688 100.23 157.432 100.137 157.222 99.95C157.035 99.74 156.942 99.4833 156.942 99.18V82.135C156.942 81.8083 157.035 81.5516 157.222 81.365C157.432 81.1783 157.688 81.085 157.992 81.085C158.318 81.085 158.575 81.1783 158.762 81.365C158.948 81.5516 159.042 81.8083 159.042 82.135V99.18C159.042 99.4833 158.948 99.74 158.762 99.95C158.575 100.137 158.318 100.23 157.992 100.23ZM142.487 100.23C142.183 100.23 141.927 100.137 141.717 99.95C141.53 99.74 141.437 99.4833 141.437 99.18V82.135C141.437 81.8083 141.53 81.5516 141.717 81.365C141.927 81.1783 142.183 81.085 142.487 81.085C142.813 81.085 143.07 81.1783 143.257 81.365C143.443 81.5516 143.537 81.8083 143.537 82.135V99.18C143.537 99.4833 143.443 99.74 143.257 99.95C143.07 100.137 142.813 100.23 142.487 100.23ZM143.082 91.725V89.835H157.817V91.725H143.082ZM173.833 100.475C172.153 100.475 170.648 100.137 169.318 99.46C167.988 98.76 166.927 97.745 166.133 96.415C165.363 95.085 164.978 93.4633 164.978 91.55V82.135C164.978 81.8316 165.072 81.5866 165.258 81.4C165.468 81.19 165.725 81.085 166.028 81.085C166.332 81.085 166.577 81.19 166.763 81.4C166.973 81.5866 167.078 81.8316 167.078 82.135V91.55C167.078 93.0666 167.37 94.3383 167.953 95.365C168.56 96.3683 169.365 97.1266 170.368 97.64C171.395 98.13 172.55 98.375 173.833 98.375C175.093 98.375 176.225 98.13 177.228 97.64C178.232 97.15 179.025 96.4966 179.608 95.68C180.192 94.84 180.483 93.895 180.483 92.845H182.233C182.14 94.2916 181.708 95.5983 180.938 96.765C180.168 97.9083 179.165 98.8183 177.928 99.495C176.715 100.148 175.35 100.475 173.833 100.475ZM181.533 100.23C181.23 100.23 180.973 100.137 180.763 99.95C180.577 99.74 180.483 99.4833 180.483 99.18V82.135C180.483 81.8083 180.577 81.5516 180.763 81.365C180.973 81.1783 181.23 81.085 181.533 81.085C181.86 81.085 182.117 81.1783 182.303 81.365C182.49 81.5516 182.583 81.8083 182.583 82.135V99.18C182.583 99.4833 182.49 99.74 182.303 99.95C182.117 100.137 181.86 100.23 181.533 100.23ZM197.383 100.475C195.703 100.475 194.198 100.137 192.868 99.46C191.538 98.76 190.476 97.745 189.683 96.415C188.913 95.085 188.528 93.4633 188.528 91.55V82.135C188.528 81.8316 188.621 81.5866 188.808 81.4C189.018 81.19 189.275 81.085 189.578 81.085C189.881 81.085 190.126 81.19 190.313 81.4C190.523 81.5866 190.628 81.8316 190.628 82.135V91.55C190.628 93.0666 190.92 94.3383 191.503 95.365C192.11 96.3683 192.915 97.1266 193.918 97.64C194.945 98.13 196.1 98.375 197.383 98.375C198.643 98.375 199.775 98.13 200.778 97.64C201.781 97.15 202.575 96.4966 203.158 95.68C203.741 94.84 204.033 93.895 204.033 92.845H205.783C205.69 94.2916 205.258 95.5983 204.488 96.765C203.718 97.9083 202.715 98.8183 201.478 99.495C200.265 100.148 198.9 100.475 197.383 100.475ZM205.083 100.23C204.78 100.23 204.523 100.137 204.313 99.95C204.126 99.74 204.033 99.4833 204.033 99.18V82.135C204.033 81.8083 204.126 81.5516 204.313 81.365C204.523 81.1783 204.78 81.085 205.083 81.085C205.41 81.085 205.666 81.1783 205.853 81.365C206.04 81.5516 206.133 81.8083 206.133 82.135V99.18C206.133 99.4833 206.04 99.74 205.853 99.95C205.666 100.137 205.41 100.23 205.083 100.23ZM197.523 78.635C196.426 78.635 195.435 78.4483 194.548 78.075C193.661 77.7016 192.961 77.2 192.448 76.57C191.958 75.9166 191.713 75.1816 191.713 74.365C191.713 74.0383 191.806 73.7816 191.993 73.595C192.203 73.385 192.46 73.28 192.763 73.28C193.066 73.28 193.311 73.3966 193.498 73.63C193.708 73.84 193.813 74.1433 193.813 74.54C193.813 75.2166 194.163 75.7533 194.863 76.15C195.586 76.5466 196.473 76.745 197.523 76.745C198.573 76.745 199.448 76.5466 200.148 76.15C200.871 75.7533 201.233 75.2166 201.233 74.54C201.233 74.1433 201.326 73.84 201.513 73.63C201.723 73.3966 201.98 73.28 202.283 73.28C202.586 73.28 202.831 73.385 203.018 73.595C203.228 73.7816 203.333 74.0383 203.333 74.365C203.333 75.1816 203.076 75.9166 202.563 76.57C202.073 77.2 201.385 77.7016 200.498 78.075C199.635 78.4483 198.643 78.635 197.523 78.635Z" fill="black"/>
</svg>
