<svg width="414" height="246" viewBox="0 0 414 246" fill="none" xmlns="http://www.w3.org/2000/svg">
<path d="M24.075 138.863C23.8328 139.174 23.3692 139.514 22.684 139.884C21.9989 140.255 21.0789 140.734 19.9239 141.322C18.1409 142.263 16.6185 142.626 15.3566 142.412C14.9097 142.336 14.4476 142.189 13.9705 141.973C11.8575 143.264 9.99922 143.773 8.39558 143.5C7.47546 143.343 6.69653 142.913 6.0588 142.21C5.35114 141.44 5.12697 140.293 5.38629 138.768C5.72161 136.797 6.82568 134.361 8.69848 131.46C10.4259 128.779 12.4752 126.192 14.8464 123.701C17.8423 120.559 20.7399 117.995 23.539 116.01C26.369 114.003 28.4149 113.106 29.6768 113.321C30.3077 113.428 30.574 113.771 30.4756 114.349C30.3013 115.375 29.0525 117.15 26.7294 119.677C24.7318 121.88 22.4646 124.077 19.9277 126.27C15.5839 130.021 11.9056 132.723 8.89269 134.374C8.21775 135.639 7.79757 136.758 7.63214 137.73C7.34152 139.439 7.91917 140.416 9.36507 140.662C10.0486 140.779 10.8775 140.676 11.8518 140.355C11.1011 139.362 10.824 138.287 11.0208 137.13C11.3248 135.342 12.4793 133.564 14.4842 131.795C16.4937 130 18.3265 129.243 19.9827 129.525C20.4033 129.596 20.782 129.755 21.1188 130.002C21.8141 130.526 22.0656 131.353 21.8734 132.484C21.632 133.903 20.8354 135.486 19.4837 137.23C18.1321 138.975 16.6282 140.342 14.9722 141.332C15.178 141.394 15.3992 141.445 15.6358 141.485C16.6874 141.664 17.9422 141.364 19.4003 140.584C21.9825 139.238 23.2608 138.481 23.235 138.315C23.4241 138.157 23.5975 138.092 23.7552 138.119C23.9129 138.146 24.0287 138.26 24.1026 138.462C24.1809 138.638 24.1717 138.771 24.075 138.863ZM28.296 115.236C27.5599 115.111 26.1701 115.808 24.1265 117.327C21.7753 119.064 19.1258 121.521 16.178 124.699C13.6044 127.426 11.5374 130.036 9.97726 132.53C12.7362 130.781 15.7974 128.448 19.1608 125.53C25.2635 120.185 28.4199 116.894 28.63 115.658C28.6703 115.422 28.5589 115.281 28.296 115.236ZM19.763 130.34C19.0532 130.219 18.1603 130.459 17.0842 131.061C16.0389 131.64 15.0453 132.472 14.1036 133.556C12.9946 134.828 12.3418 136.043 12.145 137.199C11.9751 138.198 12.2133 139.104 12.8594 139.918C13.7112 139.522 14.5546 139.016 15.3896 138.4C16.3784 137.676 17.4385 136.612 18.5698 135.208C19.8023 133.687 20.4946 132.479 20.6466 131.585C20.7674 130.876 20.4728 130.46 19.763 130.34ZM42.0518 142.286C42.3366 142.361 41.1154 143.1 38.3883 144.503C34.4799 146.489 31.871 147.276 30.5616 146.864C29.1733 146.439 28.6021 145.503 28.848 144.057C28.9061 143.715 29.019 143.369 29.1868 143.019C26.6723 145.08 24.6462 145.939 23.1086 145.596C21.4921 145.24 20.847 144.103 21.1734 142.184C21.4774 140.396 22.6518 138.581 24.6964 136.737C26.7411 134.894 29.0386 133.472 31.589 132.473C33.9286 131.599 35.8345 131.288 37.3067 131.538C37.9376 131.645 38.4125 131.875 38.7314 132.227C39.0503 132.578 39.1188 133.05 38.9371 133.641C39.6446 133.139 40.073 132.847 40.2224 132.764C40.3717 132.681 40.5669 132.647 40.808 132.661C41.0798 132.653 41.2901 132.689 41.4389 132.768C41.5922 132.821 41.6182 132.907 41.517 133.025C40.4393 134.113 38.5982 136.031 35.9938 138.78C33.6355 141.355 32.2724 143.246 31.9045 144.455C31.6389 145.221 31.7953 145.654 32.3737 145.752C33.3726 145.922 35.3984 145.144 38.451 143.418C41.1697 141.906 42.1999 141.256 41.5416 141.469C41.6691 141.355 41.8249 141.314 42.0089 141.345C42.3244 141.399 42.3387 141.712 42.0518 142.286ZM37.2753 135.063C37.6578 134.722 37.8938 134.289 37.9832 133.763C38.1173 132.974 37.8032 132.515 37.0408 132.385C36.2259 132.247 35.1181 132.478 33.7177 133.078C32.2031 133.713 30.6919 134.646 29.1841 135.878C25.7994 138.602 23.9282 141.016 23.5705 143.119C23.4185 144.013 23.6448 144.511 24.2495 144.614C24.933 144.73 26.1316 144.204 27.8452 143.034C29.282 142.061 30.6139 140.99 31.8409 139.819C33.3889 138.351 35.2004 136.765 37.2753 135.063ZM47.4651 146.899C46.4718 147.649 45.4223 148.174 44.3165 148.473C43.0089 148.846 41.9959 148.917 41.2777 148.686C39.8894 148.261 39.3249 147.286 39.5842 145.761C39.6244 145.525 39.691 145.292 39.7838 145.065C40.2395 143.817 41.8171 142.016 44.5167 139.662C48.3594 136.312 50.4673 134.574 50.8403 134.448C51.073 134.353 51.3339 134.329 51.6231 134.378C51.9693 134.41 52.1245 134.531 52.0888 134.742C52.0485 134.978 51.4213 135.724 50.2072 136.978C48.2761 138.949 47.1104 140.157 46.7099 140.603C45.1787 142.29 44.259 143.324 43.9509 143.704C43.2552 144.614 42.8031 145.443 42.5946 146.192C42.3419 147.042 42.5047 147.516 43.0831 147.614C43.2934 147.65 43.5412 147.624 43.8264 147.538C45.3489 147.174 47.2599 145.958 49.5596 143.887C49.9248 143.489 50.38 143.039 50.9253 142.537C51.4751 142.008 52.0204 141.506 52.5612 141.03C56.4039 137.68 58.5117 135.942 58.8848 135.816C59.1175 135.721 59.3784 135.697 59.6676 135.747C60.0138 135.778 60.169 135.9 60.1333 136.11C60.0886 136.373 59.4614 137.118 58.2517 138.346C57.2971 139.347 56.525 140.149 55.9356 140.752C55.3506 141.328 54.9569 141.735 54.7544 141.971C53.2584 143.61 52.3388 144.644 51.9954 145.072C51.2997 145.982 50.8476 146.811 50.6391 147.56C50.3601 148.405 50.5229 148.879 51.1276 148.982C51.2853 149.009 51.5331 148.983 51.8709 148.906C54.1568 148.348 57.1666 146.317 60.9002 142.813C61.8414 141.891 62.798 140.959 63.77 140.015C64.742 139.071 65.7425 138.119 66.7716 137.158C67.0042 137.062 67.2651 137.039 67.5543 137.088C67.9006 137.12 68.0558 137.241 68.02 137.451C67.9753 137.714 67.3481 138.459 66.1385 139.687C64.1766 141.68 63.0108 142.888 62.6412 143.312C60.2828 145.887 58.9197 147.778 58.5519 148.987C58.2863 149.753 58.4427 150.186 59.021 150.284C59.9937 150.449 62.0195 149.671 65.0984 147.95C67.7863 146.459 69.0383 145.699 68.8543 145.667C69.0081 145.558 69.1638 145.517 69.3216 145.544C69.6371 145.598 69.7724 145.756 69.7277 146.019C69.7009 146.176 69.5798 146.332 69.3645 146.484C69.2364 146.76 67.7935 147.61 65.0356 149.035C61.101 151.016 58.4921 151.803 57.209 151.396C55.8514 150.949 55.2847 149.987 55.5087 148.51C54.5468 149.077 53.4975 149.52 52.361 149.841C51.0533 150.214 50.0404 150.285 49.3222 150.055C48.477 149.776 47.959 149.322 47.7682 148.695C47.6081 148.045 47.6282 147.291 47.8283 146.433L47.4651 146.899ZM86.5849 149.657C86.7029 149.758 85.4574 150.56 82.8483 152.064C78.94 154.05 76.3311 154.837 75.0216 154.425C73.6596 154.004 73.0929 153.042 73.3214 151.539C72.3287 152.128 71.2794 152.572 70.1737 152.871C68.866 153.243 67.8531 153.314 67.1349 153.084C65.7465 152.659 65.182 151.683 65.4414 150.159C65.4816 149.922 65.5481 149.69 65.6409 149.462C66.0966 148.214 67.6743 146.413 70.3738 144.059C74.2165 140.71 76.3244 138.972 76.6975 138.846C76.9301 138.75 77.1911 138.727 77.4802 138.776C77.8265 138.808 77.9817 138.929 77.9459 139.139C77.9057 139.376 77.2785 140.121 76.0644 141.375C74.1333 143.346 72.9675 144.555 72.5671 145C71.0359 146.688 70.1162 147.721 69.8081 148.102C69.1124 149.011 68.6603 149.841 68.4517 150.59C68.199 151.439 68.3619 151.913 68.9402 152.012C69.1505 152.047 69.3983 152.022 69.6836 151.935C71.9387 151.399 74.9485 149.368 78.7129 145.843C80.569 143.994 82.5261 142.109 84.5842 140.187C84.8169 140.091 85.0778 140.068 85.367 140.117C85.7132 140.149 85.8685 140.27 85.8327 140.481C85.7924 140.717 85.1653 141.463 83.9511 142.717C82.0245 144.661 80.8587 145.87 80.4538 146.342C78.0955 148.916 76.7324 150.808 76.3645 152.016C76.0989 152.783 76.2553 153.215 76.8337 153.313C77.8327 153.483 79.8585 152.705 82.9111 150.979C85.5117 149.366 86.5663 148.653 86.0746 148.839C86.2021 148.726 86.3579 148.685 86.5419 148.716C86.8574 148.77 86.9928 148.928 86.9481 149.191C86.9212 149.349 86.8002 149.504 86.5849 149.657Z" fill="white"/>
<path d="M247.438 142.708C246.789 142.557 246.14 142.406 245.49 142.255C244.291 145.056 242.25 147.353 239.368 149.146C236.551 150.954 233.682 151.518 230.76 150.838C228.163 150.234 227.137 148.762 227.681 146.425C228.013 144.997 229.068 143.702 230.844 142.541C232.685 141.395 234.638 140.652 236.702 140.311C238.781 139.906 241.045 139.885 243.493 140.25C243.81 138.886 243.668 137.587 243.066 136.351C242.011 134.12 239.373 132.514 235.152 131.531C227.815 129.823 219.914 130.243 211.45 132.789C206.96 134.14 203.193 136.206 200.15 138.989C197.186 141.721 195.334 144.678 194.594 147.86C194.004 150.392 194.162 152.654 195.068 154.644C200.64 154.23 205.519 154.442 209.705 155.28C215.154 156.275 217.684 158.198 217.294 161.051C216.908 164.178 214.02 165.559 208.629 165.194C207.35 165.101 205.963 164.881 204.47 164.534C198.691 163.188 194.101 160.853 190.7 157.529C184.282 158.636 178.003 161.349 171.863 165.67C165.338 170.174 161.524 174.796 160.421 179.536C160.043 181.16 160.06 182.704 160.472 184.169C161.949 190.467 166.94 194.607 175.446 196.587C182.329 198.19 189.996 198.332 198.448 197.014C208.69 195.36 216.783 192.35 222.728 187.984C224.054 186.993 225.117 186.692 225.915 187.084C226.859 187.44 225.883 188.548 222.986 190.406C220.089 192.264 216.488 194.061 212.182 195.797C207.152 197.706 202.579 198.969 198.466 199.585C188.319 201.125 178.733 200.844 169.708 198.742C158.605 196.157 152.336 191.036 150.902 183.378C150.511 181.234 150.543 179.187 150.996 177.239C152.326 171.526 157.155 166.661 165.483 162.644C171.805 159.598 179.61 157.24 188.897 155.569C185.827 151.705 184.964 147.911 186.311 144.186C188.738 137.29 196.468 132.313 209.5 129.255C218.039 127.273 226.431 127.242 234.677 129.162C241.041 130.643 244.766 133.017 245.854 136.282C246.296 137.617 246.328 139.096 245.95 140.719C247.833 141.157 248.699 141.701 248.548 142.351C248.442 142.805 248.072 142.924 247.438 142.708ZM242.89 141.957C239.927 141.747 237.401 142.014 235.311 142.76C232.305 143.908 230.644 145.164 230.326 146.528C230.069 147.631 230.558 148.327 231.791 148.614C233.934 149.113 236.261 148.525 238.773 146.851C240.549 145.69 241.921 144.059 242.89 141.957ZM214.664 160.439C214.707 159.079 213.137 158.03 209.956 157.289C208.852 157.032 207.636 156.817 206.307 156.645C203.489 156.399 200.216 156.493 196.487 156.925C198.83 159.798 202.542 161.792 207.621 162.906C209.714 163.325 211.396 163.305 212.666 162.848C213.951 162.326 214.617 161.523 214.664 160.439Z" fill="white"/>
<path d="M239.552 199.807C239.366 199.994 239.132 200.087 238.852 200.087C238.572 200.11 238.339 200.005 238.152 199.772L229.927 190.567L237.907 181.257C238.094 181.07 238.292 180.965 238.502 180.942C238.736 180.919 238.957 181 239.167 181.187C239.401 181.374 239.517 181.595 239.517 181.852C239.517 182.109 239.424 182.354 239.237 182.587L232.517 190.462L239.587 198.407C239.774 198.617 239.867 198.85 239.867 199.107C239.867 199.364 239.762 199.597 239.552 199.807ZM226.182 200.087C225.879 200.087 225.622 199.994 225.412 199.807C225.226 199.597 225.132 199.34 225.132 199.037V181.992C225.132 181.665 225.226 181.409 225.412 181.222C225.622 181.035 225.879 180.942 226.182 180.942C226.509 180.942 226.766 181.035 226.952 181.222C227.139 181.409 227.232 181.665 227.232 181.992V189.692H231.362V191.582H227.232V199.037C227.232 199.34 227.139 199.597 226.952 199.807C226.766 199.994 226.509 200.087 226.182 200.087ZM251.245 200.297C249.379 200.297 247.699 199.877 246.205 199.037C244.735 198.174 243.569 197.007 242.705 195.537C241.865 194.044 241.445 192.375 241.445 190.532C241.445 188.665 241.865 186.997 242.705 185.527C243.569 184.034 244.735 182.867 246.205 182.027C247.699 181.164 249.379 180.732 251.245 180.732C253.112 180.732 254.78 181.164 256.25 182.027C257.72 182.867 258.875 184.034 259.715 185.527C260.579 186.997 261.01 188.665 261.01 190.532L260.135 191.932C260.135 193.519 259.739 194.942 258.945 196.202C258.175 197.462 257.125 198.465 255.795 199.212C254.465 199.935 252.949 200.297 251.245 200.297ZM251.245 198.337C252.715 198.337 254.022 197.999 255.165 197.322C256.332 196.622 257.242 195.689 257.895 194.522C258.572 193.332 258.91 192.002 258.91 190.532C258.91 189.039 258.572 187.709 257.895 186.542C257.242 185.352 256.332 184.419 255.165 183.742C254.022 183.042 252.715 182.692 251.245 182.692C249.799 182.692 248.492 183.042 247.325 183.742C246.159 184.419 245.237 185.352 244.56 186.542C243.884 187.709 243.545 189.039 243.545 190.532C243.545 192.002 243.884 193.332 244.56 194.522C245.237 195.689 246.159 196.622 247.325 197.322C248.492 197.999 249.799 198.337 251.245 198.337ZM259.96 200.087C259.657 200.087 259.4 199.994 259.19 199.807C259.004 199.597 258.91 199.34 258.91 199.037V192.632L259.575 190.532H261.01V199.037C261.01 199.34 260.917 199.597 260.73 199.807C260.544 199.994 260.287 200.087 259.96 200.087ZM292.605 200.087C292.302 200.087 292.045 199.994 291.835 199.807C291.649 199.597 291.555 199.34 291.555 199.037V188.922C291.555 187.125 291.077 185.655 290.12 184.512C289.187 183.369 287.962 182.797 286.445 182.797C284.835 182.797 283.517 183.334 282.49 184.407C281.487 185.457 281.009 186.88 281.055 188.677H278.955C279.002 187.067 279.352 185.667 280.005 184.477C280.659 183.287 281.545 182.365 282.665 181.712C283.785 181.035 285.045 180.697 286.445 180.697C287.869 180.697 289.117 181.047 290.19 181.747C291.264 182.447 292.104 183.415 292.71 184.652C293.34 185.889 293.655 187.312 293.655 188.922V199.037C293.655 199.34 293.562 199.597 293.375 199.807C293.189 199.994 292.932 200.087 292.605 200.087ZM267.3 200.087C266.997 200.087 266.74 199.994 266.53 199.807C266.344 199.597 266.25 199.34 266.25 199.037V181.992C266.25 181.665 266.344 181.409 266.53 181.222C266.74 181.035 266.997 180.942 267.3 180.942C267.627 180.942 267.884 181.035 268.07 181.222C268.257 181.409 268.35 181.665 268.35 181.992V199.037C268.35 199.34 268.257 199.597 268.07 199.807C267.884 199.994 267.627 200.087 267.3 200.087ZM280.005 200.087C279.702 200.087 279.445 199.994 279.235 199.807C279.049 199.597 278.955 199.34 278.955 199.037V188.922C278.955 187.125 278.477 185.655 277.52 184.512C276.587 183.369 275.362 182.797 273.845 182.797C272.235 182.797 270.917 183.31 269.89 184.337C268.864 185.364 268.35 186.694 268.35 188.327H266.6C266.67 186.834 267.02 185.515 267.65 184.372C268.304 183.229 269.167 182.33 270.24 181.677C271.314 181.024 272.515 180.697 273.845 180.697C275.269 180.697 276.517 181.047 277.59 181.747C278.664 182.447 279.504 183.415 280.11 184.652C280.74 185.889 281.055 187.312 281.055 188.922V199.037C281.055 199.34 280.962 199.597 280.775 199.807C280.589 199.994 280.332 200.087 280.005 200.087ZM308.08 200.262C306.236 200.262 304.591 199.854 303.145 199.037C301.721 198.197 300.601 197.042 299.785 195.572C298.968 194.102 298.56 192.422 298.56 190.532C298.56 188.619 298.945 186.939 299.715 185.492C300.485 184.022 301.546 182.867 302.9 182.027C304.253 181.187 305.805 180.767 307.555 180.767C309.281 180.767 310.81 181.175 312.14 181.992C313.47 182.785 314.508 183.894 315.255 185.317C316.001 186.717 316.375 188.339 316.375 190.182C316.375 190.485 316.281 190.73 316.095 190.917C315.908 191.08 315.663 191.162 315.36 191.162H299.96V189.342H315.92L314.38 190.497C314.426 188.98 314.17 187.639 313.61 186.472C313.05 185.305 312.245 184.395 311.195 183.742C310.168 183.065 308.955 182.727 307.555 182.727C306.225 182.727 305.035 183.065 303.985 183.742C302.958 184.395 302.141 185.305 301.535 186.472C300.951 187.639 300.66 188.992 300.66 190.532C300.66 192.049 300.975 193.39 301.605 194.557C302.235 195.724 303.11 196.645 304.23 197.322C305.35 197.975 306.633 198.302 308.08 198.302C308.99 198.302 309.9 198.15 310.81 197.847C311.743 197.52 312.478 197.1 313.015 196.587C313.201 196.4 313.423 196.307 313.68 196.307C313.96 196.284 314.193 196.354 314.38 196.517C314.636 196.727 314.765 196.96 314.765 197.217C314.788 197.474 314.683 197.707 314.45 197.917C313.703 198.594 312.723 199.154 311.51 199.597C310.32 200.04 309.176 200.262 308.08 200.262ZM321.988 208.277C321.685 208.277 321.428 208.172 321.218 207.962C321.031 207.775 320.938 207.53 320.938 207.227V190.322C320.985 188.479 321.428 186.845 322.268 185.422C323.131 183.975 324.298 182.832 325.768 181.992C327.238 181.152 328.883 180.732 330.703 180.732C332.57 180.732 334.238 181.164 335.708 182.027C337.201 182.867 338.368 184.034 339.208 185.527C340.071 186.997 340.503 188.665 340.503 190.532C340.503 192.375 340.071 194.044 339.208 195.537C338.368 197.007 337.201 198.174 335.708 199.037C334.238 199.877 332.57 200.297 330.703 200.297C329.023 200.297 327.506 199.935 326.153 199.212C324.823 198.489 323.785 197.52 323.038 196.307V207.227C323.038 207.53 322.945 207.775 322.758 207.962C322.571 208.172 322.315 208.277 321.988 208.277ZM330.703 198.337C332.173 198.337 333.48 197.999 334.623 197.322C335.79 196.622 336.711 195.689 337.388 194.522C338.065 193.332 338.403 192.002 338.403 190.532C338.403 189.039 338.065 187.709 337.388 186.542C336.711 185.352 335.79 184.419 334.623 183.742C333.48 183.042 332.173 182.692 330.703 182.692C329.256 182.692 327.95 183.042 326.783 183.742C325.616 184.419 324.695 185.352 324.018 186.542C323.365 187.709 323.038 189.039 323.038 190.532C323.038 192.002 323.365 193.332 324.018 194.522C324.695 195.689 325.616 196.622 326.783 197.322C327.95 197.999 329.256 198.337 330.703 198.337ZM354.257 200.332C352.577 200.332 351.072 199.994 349.742 199.317C348.412 198.617 347.351 197.602 346.557 196.272C345.787 194.942 345.402 193.32 345.402 191.407V181.992C345.402 181.689 345.496 181.444 345.682 181.257C345.892 181.047 346.149 180.942 346.452 180.942C346.756 180.942 347.001 181.047 347.187 181.257C347.397 181.444 347.502 181.689 347.502 181.992V191.407C347.502 192.924 347.794 194.195 348.377 195.222C348.984 196.225 349.789 196.984 350.792 197.497C351.819 197.987 352.974 198.232 354.257 198.232C355.517 198.232 356.649 197.987 357.652 197.497C358.656 197.007 359.449 196.354 360.032 195.537C360.616 194.697 360.907 193.752 360.907 192.702H362.657C362.564 194.149 362.132 195.455 361.362 196.622C360.592 197.765 359.589 198.675 358.352 199.352C357.139 200.005 355.774 200.332 354.257 200.332ZM361.957 200.087C361.654 200.087 361.397 199.994 361.187 199.807C361.001 199.597 360.907 199.34 360.907 199.037V181.992C360.907 181.665 361.001 181.409 361.187 181.222C361.397 181.035 361.654 180.942 361.957 180.942C362.284 180.942 362.541 181.035 362.727 181.222C362.914 181.409 363.007 181.665 363.007 181.992V199.037C363.007 199.34 362.914 199.597 362.727 199.807C362.541 199.994 362.284 200.087 361.957 200.087ZM385.857 200.087C385.554 200.087 385.297 199.994 385.087 199.807C384.9 199.597 384.807 199.34 384.807 199.037V181.992C384.807 181.665 384.9 181.409 385.087 181.222C385.297 181.035 385.554 180.942 385.857 180.942C386.184 180.942 386.44 181.035 386.627 181.222C386.814 181.409 386.907 181.665 386.907 181.992V199.037C386.907 199.34 386.814 199.597 386.627 199.807C386.44 199.994 386.184 200.087 385.857 200.087ZM370.352 200.087C370.049 200.087 369.792 199.994 369.582 199.807C369.395 199.597 369.302 199.34 369.302 199.037V181.992C369.302 181.665 369.395 181.409 369.582 181.222C369.792 181.035 370.049 180.942 370.352 180.942C370.679 180.942 370.935 181.035 371.122 181.222C371.309 181.409 371.402 181.665 371.402 181.992V199.037C371.402 199.34 371.309 199.597 371.122 199.807C370.935 199.994 370.679 200.087 370.352 200.087ZM370.947 191.582V189.692H385.682V191.582H370.947ZM401.944 200.297C400.077 200.297 398.397 199.877 396.904 199.037C395.434 198.174 394.267 197.007 393.404 195.537C392.564 194.044 392.144 192.375 392.144 190.532C392.144 188.665 392.564 186.997 393.404 185.527C394.267 184.034 395.434 182.867 396.904 182.027C398.397 181.164 400.077 180.732 401.944 180.732C403.81 180.732 405.479 181.164 406.949 182.027C408.419 182.867 409.574 184.034 410.414 185.527C411.277 186.997 411.709 188.665 411.709 190.532L410.834 191.932C410.834 193.519 410.437 194.942 409.644 196.202C408.874 197.462 407.824 198.465 406.494 199.212C405.164 199.935 403.647 200.297 401.944 200.297ZM401.944 198.337C403.414 198.337 404.72 197.999 405.864 197.322C407.03 196.622 407.94 195.689 408.594 194.522C409.27 193.332 409.609 192.002 409.609 190.532C409.609 189.039 409.27 187.709 408.594 186.542C407.94 185.352 407.03 184.419 405.864 183.742C404.72 183.042 403.414 182.692 401.944 182.692C400.497 182.692 399.19 183.042 398.024 183.742C396.857 184.419 395.935 185.352 395.259 186.542C394.582 187.709 394.244 189.039 394.244 190.532C394.244 192.002 394.582 193.332 395.259 194.522C395.935 195.689 396.857 196.622 398.024 197.322C399.19 197.999 400.497 198.337 401.944 198.337ZM410.659 200.087C410.355 200.087 410.099 199.994 409.889 199.807C409.702 199.597 409.609 199.34 409.609 199.037V192.632L410.274 190.532H411.709V199.037C411.709 199.34 411.615 199.597 411.429 199.807C411.242 199.994 410.985 200.087 410.659 200.087Z" fill="white"/>
<path d="M194.143 51.3414C193.495 51.185 192.847 51.0286 192.199 50.8722C190.977 53.6633 188.918 55.9438 186.021 57.7137C183.19 59.4993 180.316 60.0401 177.4 59.3362C174.808 58.7106 173.793 57.2312 174.356 54.8982C174.701 53.4725 175.765 52.1864 177.551 51.04C179.401 49.9092 181.36 49.1818 183.427 48.8578C185.51 48.4689 187.773 48.4666 190.218 48.851C190.547 47.49 190.415 46.1895 189.822 44.9492C188.786 42.7101 186.161 41.0822 181.949 40.0655C174.625 38.298 166.721 38.6534 158.236 41.1318C153.736 42.4459 149.953 44.4817 146.887 47.2393C143.901 49.9478 142.025 52.8898 141.259 56.0653C140.649 58.5927 140.788 60.8553 141.678 62.8531C147.253 62.4843 152.131 62.7356 156.309 63.607C161.751 64.6461 164.265 66.5902 163.852 69.4394C163.44 72.5635 160.541 73.9211 155.153 73.5122C153.875 73.4095 152.49 73.1782 151 72.8185C145.232 71.4263 140.661 69.0543 137.287 65.7024C130.86 66.7572 124.559 69.4199 118.385 73.6905C111.824 78.1421 107.973 82.7333 106.831 87.4641C106.44 89.0842 106.444 90.6284 106.844 92.0966C108.27 98.4072 113.228 102.587 121.717 104.636C128.587 106.294 136.253 106.499 144.715 105.249C154.97 103.678 163.088 100.734 169.068 96.4163C170.402 95.4352 171.467 95.1436 172.262 95.5414C173.203 95.9056 172.217 97.0051 169.306 98.8398C166.394 100.675 162.778 102.442 158.459 104.143C153.413 106.011 148.831 107.237 144.712 107.82C134.553 109.277 124.97 108.919 115.962 106.745C104.88 104.07 98.6532 98.8979 97.281 91.2285C96.9078 89.081 96.9558 87.0352 97.425 85.091C98.8015 79.3881 103.67 74.5623 112.029 70.6135C118.376 67.6189 126.199 65.3238 135.5 63.7281C132.461 59.8398 131.63 56.0386 133.006 52.3246C135.489 45.4484 143.259 40.5343 156.316 37.5821C164.87 35.669 173.262 35.7058 181.493 37.6923C187.844 39.2251 191.55 41.6285 192.611 44.9023C193.043 46.2408 193.063 47.7202 192.672 49.3403C194.551 49.7939 195.413 50.3448 195.256 50.9928C195.147 51.4465 194.776 51.5627 194.143 51.3414ZM189.601 50.5538C186.64 50.3192 184.112 50.5662 182.016 51.2947C179.001 52.4188 177.33 53.6613 177.001 55.0222C176.735 56.1239 177.218 56.8234 178.449 57.1206C180.588 57.6367 182.92 57.068 185.445 55.4143C187.23 54.2679 188.616 52.6477 189.601 50.5538ZM161.227 68.8059C161.28 67.4472 159.72 66.3847 156.544 65.6182C155.442 65.3523 154.228 65.1278 152.9 64.9446C150.085 64.6764 146.811 64.7435 143.079 65.1458C145.399 68.0375 149.094 70.0609 154.164 71.2161C156.254 71.6519 157.935 71.6462 159.209 71.1993C160.498 70.6875 161.171 69.8897 161.227 68.8059Z" fill="white"/>
<path d="M172.676 107.23C172.372 107.23 172.116 107.137 171.906 106.95C171.719 106.74 171.626 106.483 171.626 106.18V89.1C171.649 88.7966 171.754 88.5516 171.941 88.365C172.127 88.1783 172.372 88.085 172.676 88.085C173.002 88.085 173.259 88.1783 173.446 88.365C173.632 88.5516 173.726 88.8083 173.726 89.135V96.24H181.496V96.59C182.686 96.59 183.724 96.8116 184.611 97.255C185.521 97.6983 186.232 98.305 186.746 99.075C187.259 99.845 187.516 100.732 187.516 101.735C187.516 102.808 187.259 103.765 186.746 104.605C186.232 105.422 185.521 106.063 184.611 106.53C183.724 106.997 182.686 107.23 181.496 107.23H172.676ZM173.726 105.34H181.496C182.662 105.34 183.607 105.048 184.331 104.465C185.054 103.858 185.416 102.948 185.416 101.735C185.416 100.498 185.054 99.5883 184.331 99.005C183.607 98.4216 182.662 98.13 181.496 98.13H173.726V105.34ZM177.576 97.5V96.24H181.146C182.102 96.24 182.884 95.9483 183.491 95.365C184.121 94.7816 184.436 94.0233 184.436 93.09C184.436 92.2266 184.121 91.4916 183.491 90.885C182.884 90.2783 182.102 89.975 181.146 89.975H172.746V88.085H181.146C182.196 88.085 183.117 88.295 183.911 88.715C184.727 89.135 185.369 89.73 185.836 90.5C186.302 91.2466 186.536 92.11 186.536 93.09C186.536 94.6766 186.034 95.8083 185.031 96.485C184.027 97.1616 182.732 97.5 181.146 97.5H177.576ZM198.011 107.44C196.751 107.44 195.584 107.242 194.511 106.845C193.461 106.448 192.609 105.888 191.956 105.165C191.326 104.418 191.011 103.52 191.011 102.47C191.011 101.677 191.209 100.942 191.606 100.265C192.026 99.565 192.738 98.9233 193.741 98.34C194.744 97.7566 196.156 97.255 197.976 96.835C199.516 96.4616 200.589 95.9716 201.196 95.365C201.826 94.735 202.141 93.965 202.141 93.055C202.141 92.1683 201.814 91.41 201.161 90.78C200.508 90.15 199.469 89.835 198.046 89.835C196.973 89.835 196.016 90.0333 195.176 90.43C194.336 90.8033 193.624 91.3633 193.041 92.11C192.878 92.3433 192.656 92.4833 192.376 92.53C192.119 92.5766 191.874 92.5416 191.641 92.425C191.338 92.2616 191.163 92.0516 191.116 91.795C191.069 91.515 191.128 91.2583 191.291 91.025C191.968 90.0683 192.854 89.31 193.951 88.75C195.048 88.1666 196.389 87.875 197.976 87.875C199.259 87.875 200.368 88.085 201.301 88.505C202.234 88.9016 202.958 89.4966 203.471 90.29C203.984 91.06 204.241 92.0166 204.241 93.16C204.241 94.28 203.833 95.33 203.016 96.31C202.199 97.2666 200.729 97.99 198.606 98.48C196.506 98.9466 195.059 99.495 194.266 100.125C193.496 100.732 193.111 101.49 193.111 102.4C193.111 103.427 193.496 104.197 194.266 104.71C195.036 105.223 196.249 105.48 197.906 105.48C199.073 105.48 200.134 105.317 201.091 104.99C202.071 104.663 202.888 104.103 203.541 103.31C203.728 103.1 203.949 102.972 204.206 102.925C204.463 102.878 204.708 102.937 204.941 103.1C205.198 103.287 205.338 103.52 205.361 103.8C205.408 104.057 205.338 104.302 205.151 104.535C204.358 105.468 203.284 106.192 201.931 106.705C200.601 107.195 199.294 107.44 198.011 107.44ZM218.582 107.405C216.739 107.405 215.094 106.997 213.647 106.18C212.224 105.34 211.104 104.185 210.287 102.715C209.47 101.245 209.062 99.565 209.062 97.675C209.062 95.7616 209.447 94.0816 210.217 92.635C210.987 91.165 212.049 90.01 213.402 89.17C214.755 88.33 216.307 87.91 218.057 87.91C219.784 87.91 221.312 88.3183 222.642 89.135C223.972 89.9283 225.01 91.0366 225.757 92.46C226.504 93.86 226.877 95.4816 226.877 97.325C226.877 97.6283 226.784 97.8733 226.597 98.06C226.41 98.2233 226.165 98.305 225.862 98.305H210.462V96.485H226.422L224.882 97.64C224.929 96.1233 224.672 94.7816 224.112 93.615C223.552 92.4483 222.747 91.5383 221.697 90.885C220.67 90.2083 219.457 89.87 218.057 89.87C216.727 89.87 215.537 90.2083 214.487 90.885C213.46 91.5383 212.644 92.4483 212.037 93.615C211.454 94.7816 211.162 96.135 211.162 97.675C211.162 99.1916 211.477 100.533 212.107 101.7C212.737 102.867 213.612 103.788 214.732 104.465C215.852 105.118 217.135 105.445 218.582 105.445C219.492 105.445 220.402 105.293 221.312 104.99C222.245 104.663 222.98 104.243 223.517 103.73C223.704 103.543 223.925 103.45 224.182 103.45C224.462 103.427 224.695 103.497 224.882 103.66C225.139 103.87 225.267 104.103 225.267 104.36C225.29 104.617 225.185 104.85 224.952 105.06C224.205 105.737 223.225 106.297 222.012 106.74C220.822 107.183 219.679 107.405 218.582 107.405ZM247.995 107.23C247.692 107.23 247.435 107.137 247.225 106.95C247.038 106.74 246.945 106.483 246.945 106.18V89.135C246.945 88.8083 247.038 88.5516 247.225 88.365C247.435 88.1783 247.692 88.085 247.995 88.085C248.322 88.085 248.578 88.1783 248.765 88.365C248.952 88.5516 249.045 88.8083 249.045 89.135V106.18C249.045 106.483 248.952 106.74 248.765 106.95C248.578 107.137 248.322 107.23 247.995 107.23ZM232.49 107.23C232.187 107.23 231.93 107.137 231.72 106.95C231.533 106.74 231.44 106.483 231.44 106.18V89.135C231.44 88.8083 231.533 88.5516 231.72 88.365C231.93 88.1783 232.187 88.085 232.49 88.085C232.817 88.085 233.073 88.1783 233.26 88.365C233.447 88.5516 233.54 88.8083 233.54 89.135V106.18C233.54 106.483 233.447 106.74 233.26 106.95C233.073 107.137 232.817 107.23 232.49 107.23ZM233.085 98.725V96.835H247.82V98.725H233.085ZM263.837 107.475C262.157 107.475 260.652 107.137 259.322 106.46C257.992 105.76 256.93 104.745 256.137 103.415C255.367 102.085 254.982 100.463 254.982 98.55V89.135C254.982 88.8316 255.075 88.5866 255.262 88.4C255.472 88.19 255.728 88.085 256.032 88.085C256.335 88.085 256.58 88.19 256.767 88.4C256.977 88.5866 257.082 88.8316 257.082 89.135V98.55C257.082 100.067 257.373 101.338 257.957 102.365C258.563 103.368 259.368 104.127 260.372 104.64C261.398 105.13 262.553 105.375 263.837 105.375C265.097 105.375 266.228 105.13 267.232 104.64C268.235 104.15 269.028 103.497 269.612 102.68C270.195 101.84 270.487 100.895 270.487 99.845H272.237C272.143 101.292 271.712 102.598 270.942 103.765C270.172 104.908 269.168 105.818 267.932 106.495C266.718 107.148 265.353 107.475 263.837 107.475ZM271.537 107.23C271.233 107.23 270.977 107.137 270.767 106.95C270.58 106.74 270.487 106.483 270.487 106.18V89.135C270.487 88.8083 270.58 88.5516 270.767 88.365C270.977 88.1783 271.233 88.085 271.537 88.085C271.863 88.085 272.12 88.1783 272.307 88.365C272.493 88.5516 272.587 88.8083 272.587 89.135V106.18C272.587 106.483 272.493 106.74 272.307 106.95C272.12 107.137 271.863 107.23 271.537 107.23ZM287.386 107.475C285.706 107.475 284.201 107.137 282.871 106.46C281.541 105.76 280.48 104.745 279.686 103.415C278.916 102.085 278.531 100.463 278.531 98.55V89.135C278.531 88.8316 278.625 88.5866 278.811 88.4C279.021 88.19 279.278 88.085 279.581 88.085C279.885 88.085 280.13 88.19 280.316 88.4C280.526 88.5866 280.631 88.8316 280.631 89.135V98.55C280.631 100.067 280.923 101.338 281.506 102.365C282.113 103.368 282.918 104.127 283.921 104.64C284.948 105.13 286.103 105.375 287.386 105.375C288.646 105.375 289.778 105.13 290.781 104.64C291.785 104.15 292.578 103.497 293.161 102.68C293.745 101.84 294.036 100.895 294.036 99.845H295.786C295.693 101.292 295.261 102.598 294.491 103.765C293.721 104.908 292.718 105.818 291.481 106.495C290.268 107.148 288.903 107.475 287.386 107.475ZM295.086 107.23C294.783 107.23 294.526 107.137 294.316 106.95C294.13 106.74 294.036 106.483 294.036 106.18V89.135C294.036 88.8083 294.13 88.5516 294.316 88.365C294.526 88.1783 294.783 88.085 295.086 88.085C295.413 88.085 295.67 88.1783 295.856 88.365C296.043 88.5516 296.136 88.8083 296.136 89.135V106.18C296.136 106.483 296.043 106.74 295.856 106.95C295.67 107.137 295.413 107.23 295.086 107.23ZM287.526 85.635C286.43 85.635 285.438 85.4483 284.551 85.075C283.665 84.7016 282.965 84.2 282.451 83.57C281.961 82.9166 281.716 82.1816 281.716 81.365C281.716 81.0383 281.81 80.7816 281.996 80.595C282.206 80.385 282.463 80.28 282.766 80.28C283.07 80.28 283.315 80.3966 283.501 80.63C283.711 80.84 283.816 81.1433 283.816 81.54C283.816 82.2166 284.166 82.7533 284.866 83.15C285.59 83.5466 286.476 83.745 287.526 83.745C288.576 83.745 289.451 83.5466 290.151 83.15C290.875 82.7533 291.236 82.2166 291.236 81.54C291.236 81.1433 291.33 80.84 291.516 80.63C291.726 80.3966 291.983 80.28 292.286 80.28C292.59 80.28 292.835 80.385 293.021 80.595C293.231 80.7816 293.336 81.0383 293.336 81.365C293.336 82.1816 293.08 82.9166 292.566 83.57C292.076 84.2 291.388 84.7016 290.501 85.075C289.638 85.4483 288.646 85.635 287.526 85.635Z" fill="white"/>
<path d="M370.854 128.05C370.954 128.11 370.134 128.86 368.394 130.3C365.754 132.26 363.924 133.17 362.904 133.03C361.844 132.89 361.304 132.25 361.284 131.11C360.624 131.67 359.904 132.13 359.124 132.49C358.204 132.93 357.464 133.11 356.904 133.03C355.824 132.89 355.284 132.24 355.284 131.08C355.284 130.9 355.304 130.72 355.344 130.54C355.524 129.56 356.464 128.03 358.164 125.95C360.584 122.99 361.924 121.44 362.184 121.3C362.344 121.2 362.534 121.15 362.754 121.15C363.014 121.13 363.144 121.2 363.144 121.36C363.144 121.54 362.774 122.17 362.034 123.25C360.854 124.95 360.144 125.99 359.904 126.37C358.984 127.81 358.434 128.69 358.254 129.01C357.854 129.77 357.624 130.44 357.564 131.02C357.484 131.68 357.664 132.01 358.104 132.01C358.264 132.01 358.444 131.96 358.644 131.86C360.244 131.18 362.214 129.3 364.554 126.22C365.694 124.62 366.904 122.98 368.184 121.3C368.344 121.2 368.534 121.15 368.754 121.15C369.014 121.13 369.144 121.2 369.144 121.36C369.144 121.54 368.774 122.17 368.034 123.25C366.854 124.93 366.144 125.97 365.904 126.37C364.484 128.57 363.714 130.14 363.594 131.08C363.494 131.68 363.664 131.98 364.104 131.98C364.864 131.98 366.264 131.15 368.304 129.49C370.024 127.97 370.714 127.31 370.374 127.51C370.454 127.41 370.564 127.36 370.704 127.36C370.944 127.36 371.064 127.46 371.064 127.66C371.064 127.78 370.994 127.91 370.854 128.05Z" fill="white"/>
</svg>
