<svg width="367" height="1025" viewBox="0 0 367 1025" fill="none" xmlns="http://www.w3.org/2000/svg">
<path d="M201.448 998.739C194.586 990.387 186.722 978.283 182.485 968.163C181.184 965.079 181.896 966.637 181.016 964.407C179.344 960.041 178.058 956.006 177.051 951.527C176.732 950.063 177.216 951.863 176.888 950.331C175.116 941.804 174.622 933.561 175.542 924.791C181.349 880.779 214.168 848.992 242.561 817.009C252.235 806.437 264.065 793.638 273.529 782.268C274.633 780.943 273.916 781.684 274.122 781.429C277.338 777.411 276.365 778.816 278.505 776.222C283.608 770.002 288.882 763.143 293.633 756.272C296.766 751.752 299.349 747 301.113 742.274C302.848 737.169 301.081 742.291 302.675 737.07C302.772 736.706 302.514 738.05 302.881 736.62C303.825 733.358 304.299 726.966 304.003 724.361C303.537 719.369 303.315 718.517 301.853 714.012C299.726 707.845 295.344 701.257 290.46 696.251C289.418 695.184 290.753 696.653 289.056 694.962C287.384 693.229 282.608 689.15 280.868 687.873C279.141 686.548 279.921 687.062 279.627 686.824C277.279 684.858 270.981 681.064 270.107 680.601C255.281 671.99 241.3 666.573 226.018 661.647C214.322 657.926 201.588 654.713 190.155 652.213C183.598 650.777 177.588 649.576 171.425 648.436C164.934 647.234 158.5 645.697 151.754 643.752C150.374 643.35 151.959 643.913 150.283 643.421C132.485 638.11 115.382 630.776 99.592 621.1C98.0226 620.128 100.09 621.305 98.5294 620.327C88.7279 614.504 75.0768 602.76 70.5991 597.648C65.4622 591.901 60.4213 583.784 58.5847 577.074C57.4867 572.754 58.5001 576.94 57.4393 571.594C57.262 570.371 57.386 571.979 57.1566 570.134C56.1605 562.339 58.5948 553.672 62.7342 547.154C63.5698 545.816 63.2745 546.166 63.5058 545.788C65.4354 542.554 69.7325 538.113 70.8114 537.128C77.3944 530.805 82.9962 526.948 90.0945 522.625C90.9793 522.096 91.8938 521.568 92.8457 521.039C94.7889 519.973 92.4401 521.145 94.3194 520.124C104.098 514.871 115.051 511.024 125.526 508.246C127.875 507.629 125.749 508.279 126.858 507.994C131.726 506.778 132.836 506.366 137.615 505.357C138.611 505.153 138.065 505.34 138.248 505.309C141.114 504.825 143.596 504.183 144.342 504.039C153.722 502.255 159.767 501.569 168.938 500.414C170.036 500.279 167.558 500.485 170.63 500.118C191.11 497.694 212.934 496.482 233.33 495.436C236.5 495.274 234.241 495.463 234.441 495.461C237.7 495.41 239.765 495.126 240.817 495.062C248.982 494.57 256.636 494.266 262.103 493.704C295.694 490.333 334.341 492.038 359.17 466.974C359.433 466.636 359.032 467.297 359.554 466.62C365.195 457.878 363.744 459.172 365.176 452.637C365.518 450.892 365.835 445.713 365.762 445.222C365.739 443.497 365.944 445.281 365.928 444.702C365.891 443.511 365.8 442.639 365.698 441.916C365.317 439.839 365.199 439.079 363.629 434.584C363.56 434.398 363.921 435.15 363.743 434.648C363.196 433.12 362.479 431.658 361.707 430.219C359.782 426.88 359.45 425.824 355.365 421.536C354.79 421.024 355.597 421.911 351.423 418.107C349.708 416.375 341.673 410.667 339.093 409.257C336.751 407.849 338.402 408.742 338.238 408.639C331.767 404.837 334.226 406.218 330.834 404.271C327.573 402.474 328.34 403.262 326.948 402.633C325.595 402.006 320.395 399.592 319.152 399.056C317.938 398.513 319.486 399.113 318.401 398.639C311.087 395.524 315.099 397.479 312.62 396.547C306.509 394.316 302.333 392.577 296.721 390.68C295.214 390.175 296.429 390.637 295.079 390.201C289.973 388.567 286.839 387.509 280.744 385.799C279.788 385.528 274.965 384.306 271.82 383.329C271.376 383.19 272.671 383.477 270.402 382.841C266.929 381.866 261.021 380.301 257.332 379.392C254.628 378.725 257.702 379.609 254.302 378.721C252.786 378.327 255.619 378.969 252.767 378.236C249.953 377.506 242.832 375.791 240.05 375.144C237.294 374.499 238.784 374.932 238.56 374.885C237.176 374.59 231.959 373.425 231.491 373.32C208.045 367.976 186.332 363.382 163.409 358.549C161.611 358.17 162.79 358.508 162.516 358.451C156.361 357.176 161.252 357.988 156.981 356.996C157.56 357.297 155.058 356.732 150.69 355.807C148.594 355.363 149.721 355.676 149.528 355.641C146.403 355.068 144.283 354.469 143.735 354.321C141.711 353.777 139.476 353.403 138.101 353.03C136.711 352.653 139.963 353.278 135.781 352.347C134.596 352.146 137.66 352.997 134.485 352.314C122.647 349.819 100.387 344.321 91.0885 341.72C81.4924 339.096 78.7524 338.272 73.1375 336.552C63.3096 333.439 67.057 334.74 60.8176 332.716C54.7064 330.656 57.7819 331.401 56.9274 331.037C56.1037 330.677 55.165 330.408 54.1448 329.996C53.1308 329.585 55.364 330.364 52.9608 329.461C50.4541 328.548 43.6471 325.927 42.8408 325.628C40.9602 324.961 44.0424 326.52 37.4981 323.533C37.1285 323.36 38.3641 323.843 36.9487 323.182C26.0281 317.989 14.6759 311.697 6.74305 302.219C5.66424 300.878 6.69531 302.02 6.08037 301.237C3.02473 297.161 2.52341 295.639 1.9687 294.698C1.49863 293.745 1.14454 293.356 0.24295 290.729C0.47031 291.181 0.473188 290.977 0.290985 290.105C0.253042 288.671 -0.0158048 285.63 0.222595 281.154C0.592532 276.437 0.48142 277.27 0.918168 274.371C1.03973 273.48 1.95751 270.265 2.12175 269.716C2.70718 267.84 1.08299 270.621 4.49946 263.324C4.66272 263.015 4.22158 264.04 4.78212 262.97C8.74091 256.284 9.26668 255.385 15.4705 249.607C20.3934 245.071 30.777 239.393 37.8036 236.695C37.7306 236.948 44.3554 234.324 47.0362 233.312C51.759 231.745 56.742 230.32 61.329 229.167C62.8931 228.776 61.8841 229.106 62.0829 229.063C65.1373 228.411 67.1935 227.768 68.231 227.52C79.3142 224.906 88.4925 223.351 99.1981 221.311C99.5775 221.239 100.162 220.963 103.051 220.578C103.238 220.554 99.7081 221.254 104.756 220.371C109.802 219.488 119.352 217.925 126.306 216.549C127.999 216.217 132.274 215.272 135.689 214.695C136.145 214.618 135.659 214.765 136.318 214.66C138.481 214.31 139.617 213.904 142.138 213.514C144.626 213.123 149.909 212.113 156.8 210.208C157.022 210.146 158.651 209.583 160.811 208.979C164.191 208.045 169.226 206.513 172.684 205.27C174.408 204.652 173.275 204.968 173.574 204.86C184.815 200.544 192.997 197.084 202.72 188.465C204.503 186.931 209.029 181.744 211.236 177.717C213.446 173.29 212.366 178.197 215.625 167.855C215.684 167.618 215.741 167.375 215.797 167.124C216.801 162.475 216.693 156.245 213.372 148.492C205.875 133.82 192.659 124.712 179.275 115.761C178.665 115.364 176.604 114.2 175.138 113.272C172.999 111.915 171.832 111.114 170.262 110.145C163.717 106.114 157.603 102.639 151.17 98.928C148.737 97.5268 149.626 97.9558 146.711 96.2803C143.788 94.6001 141.821 93.5838 137.895 91.2717C134.935 89.5252 132.063 87.6456 128.149 85.3107C127.906 85.3798 125.196 83.7975 120.43 80.9523C119.508 80.4004 120.457 81.0566 120.019 80.7983C118.237 79.7479 116.645 78.6975 114.978 77.6917C114.573 77.4468 114.52 77.4888 114.187 77.2913C111.329 75.6101 106.853 72.4805 106.116 71.9422C103.178 69.8423 101.754 68.9415 99.5614 67.3245C97.3809 65.6998 100.712 68.0593 98.1316 66.1546C92.7481 62.181 86.1657 56.8547 81.3318 52.075C79.4462 50.2069 80.6727 51.5412 80.4013 51.2754C76.3877 47.3298 72.926 42.9018 71.0293 40.4894C69.2697 37.0392 68.8206 37.8871 65.3503 30.6996C65.1019 30.1221 64.9438 29.3219 65.9906 31.4859C67.0717 33.69 68.7602 36.8017 70.7465 39.56C71.1591 40.2025 74.0399 43.6727 74.4789 44.1366C77.622 47.7604 77.9388 48.3956 78.0868 48.6131C79.968 50.9529 84.0375 54.5173 85.1938 55.5043C90.1667 59.8701 94.6286 63.361 99.2012 66.6261C102.148 68.7084 102.568 68.7422 104.934 70.3768C112.785 75.6993 115.487 77.6841 123.283 82.1363C124.96 83.0777 123.415 81.9183 129.269 85.5834C129.633 85.8138 133.967 88.5354 136.581 89.9247C136.909 90.0995 136.931 90.0374 137.359 90.2777C140.223 91.8892 142.099 93.0239 145.206 94.7759C148.347 96.5474 152.051 98.6247 155.609 100.709C157.747 101.959 160.383 103.639 161.392 104.268C164.255 106.047 167.347 107.739 169.061 108.904C170.797 110.086 167.232 108.081 171.865 111.007C172.125 110.971 172.61 111.068 172.974 111.096C183.114 117.46 192.88 124.023 201.682 132.357C202.775 133.413 201.729 132.266 202.887 133.399C207.608 138.141 211.487 142.884 214.352 149.37C216.57 154.344 217.54 160.663 216.369 166.297C216.252 166.758 216.11 167.309 215.932 167.934C214.894 171.974 212.085 178.501 208.754 182.717C207.437 184.424 207.472 184.268 206.457 185.424C202.491 189.594 204.422 187.707 203.327 188.851C198.279 193.466 197.54 193.553 190.791 197.628C190.443 197.871 185.94 200.467 185.316 200.74C181.263 202.73 184.625 201.004 182.025 202.162C177.31 204.184 173.843 205.436 168.21 207.336C166.534 207.903 162.515 209.259 159.207 210.048C158.769 210.154 158.992 210.023 158.64 210.114C152.214 211.745 152.201 211.919 148.537 212.863C144.857 213.8 139.249 214.824 138.055 215.019C134.999 215.53 140.37 214.499 140.524 214.449C142.42 213.917 138.275 214.822 135.125 215.432C134.635 215.321 130.229 216.188 131.861 216.061C132.049 216.047 134.495 215.549 135.125 215.432C132.426 216.18 127.521 217.149 122.144 217.926C119.615 218.289 121.968 217.77 114.335 219.162C110.872 219.789 112.236 219.695 109.182 220.271C102.201 221.584 93.0843 223.046 85.9163 224.449C83.3006 224.962 85.8637 224.546 84.079 224.901C79.3712 225.842 75.1717 226.647 70.4877 227.733C70.0648 227.832 71.1171 227.677 69.6648 228.008C58.5721 230.593 48.9252 233.09 37.9347 237.538C32.6326 239.6 23.5046 244.398 18.8875 248.081C10.4782 253.969 3.16986 264.859 1.66315 273.548C0.614514 279.046 1.0381 277.879 0.83247 280.338C0.677007 283.112 0.677128 286.788 0.952552 290.043L0.932505 289.932C1.46419 292.05 2.15683 293.673 2.33795 294.111C2.26628 294.163 0.629756 289.627 1.44274 292.068C1.87498 293.51 2.32135 294.061 2.33795 294.111C2.46845 294.446 3.58934 296.873 5.13384 299.085C6.67578 301.371 8.74275 303.612 9.366 304.238C10.0903 304.974 9.74392 304.504 10.1259 304.887C19.5237 314.015 31.5812 320.007 43.8678 325.275C44.0807 325.366 43.7248 325.312 44.2269 325.524C51.4037 328.529 56.0374 330.065 62.1844 332.097C68.3485 334.109 73.0105 335.549 76.7193 336.815C81.3528 338.184 87.9075 340.086 91.8646 341.184C95.6741 342.245 96.2418 342.209 96.5817 342.296C107.23 344.948 113.282 346.508 124.413 349.112C129.597 350.327 140.163 352.663 145.826 353.873C150.333 354.84 153.104 355.478 157.242 356.339C157.805 356.456 157.253 356.26 157.425 356.294C162.08 357.197 159.814 356.901 160.765 357.138C164.214 357.996 166.36 358.518 172.333 359.724C173.707 360.001 177.761 360.585 180.269 361.099C183.529 361.767 182.28 361.601 185.694 362.299C185.986 362.359 185.937 362.288 188.042 362.736C197.81 364.815 208.477 367.124 218.575 369.349C219.951 369.652 218.208 369.171 220.196 369.608C229.643 371.689 239.896 374.048 248.958 376.306C251.175 376.859 249.768 376.583 250.245 376.72C253.162 377.553 257.522 378.477 258.202 378.649C274.8 382.84 287.435 386.492 304.019 392.207C304.866 392.483 311.89 394.859 314.872 396.25C315.091 396.348 317.969 397.673 320.615 398.697C320.783 398.764 318.911 397.857 322.236 399.314C325.619 400.807 330.445 403.002 334.893 405.53C336.319 406.348 339.107 408.025 343.239 410.57C343.612 410.748 349.332 414.381 351.287 416.399C351.541 416.709 351.278 416.525 355.198 420.172C355.939 420.904 354.618 419.449 356.603 421.494C359.621 424.646 362.928 429.292 364.832 434.2C365.195 435.03 366.516 438.63 366.697 441.812C366.702 441.884 366.707 441.955 366.712 442.025C366.742 442.538 366.593 441.581 366.727 443.293C367.367 450.936 365.767 459.753 360.994 466.262C359.29 468.537 360.117 467.327 358.166 469.531C356.205 471.804 351.502 475.483 348.949 477.013C346.334 478.617 349.396 477.117 345.276 479.376C327.318 488.354 307.423 490.652 287.936 492.814C285.011 493.105 287.412 492.939 283.128 493.348C267.364 494.893 239.92 496.318 226.2 496.955C215.194 497.469 229.036 496.596 220.623 497.032C216.555 497.245 212.183 497.728 211.204 497.798C201.639 498.477 195.007 498.867 186.399 499.659C184.628 499.825 186.373 499.753 184.867 499.894C179.747 500.378 174.275 500.911 169.406 501.503C167.19 501.774 167.606 501.789 165.576 502.042C160.739 502.653 156.46 503.243 151.752 503.953C151.325 504.019 154.188 503.463 150.637 504.048C144.879 505.006 137.787 506.317 131.214 507.984C129.278 508.484 129.284 508.607 125.097 509.628C124.226 509.856 125.252 509.34 120.513 510.895C119.747 511.112 111.755 513.9 107.99 515.303C106.982 515.656 104.305 516.581 102.149 517.578C101.857 517.714 103.065 517.255 101.275 518.073C97.7987 519.675 94.0751 521.598 90.695 523.63C87.8406 525.343 85.2933 526.999 82.7527 528.81C81.1551 529.962 83.5701 528.321 81.2193 530.037C74.9624 534.589 67.7739 541.368 63.829 547.87C62.3567 550.308 63.3081 548.585 63.1924 548.758C61.4331 551.542 60.8967 553.39 60.4977 554.411C58.1848 560.686 57.6807 565.943 58.66 572.042C58.9657 573.713 58.8292 572.513 58.8966 572.844C59.7122 576.266 58.988 573.738 59.5345 575.917C61.1591 581.982 64.7116 588.192 68.6395 593.211C70.1133 595.078 68.5311 592.938 69.8532 594.584C77.7536 604.236 88.2073 612.324 98.5699 618.896C100.509 620.115 99.2493 619.412 99.6466 619.678C102.393 621.523 106.726 623.794 107.711 624.305C112.241 626.691 113.947 627.613 118.017 629.564C133.845 637.128 153.717 643.903 171.659 647.154C176.326 648.014 180.536 648.844 184.717 649.714C211.227 655.41 231.721 660.974 255.49 671.592C256.981 672.281 255.52 671.5 256.8 672.094C273.227 679.936 289.579 689.768 299.446 705.837C300.212 707.159 299.207 705.203 300.404 707.332C302.893 711.746 304.922 717.963 305.312 723.099C305.502 725.592 305.175 722.258 305.336 724.764C305.652 730.616 304.52 736.89 302.436 742.482C301.523 744.875 303.019 741.298 301.784 744.411C299.935 748.883 297.542 753.077 294.785 757.068C284.923 771.317 273.796 784.527 262.06 797.6C261.033 798.743 260 799.628 257.844 802.08C257.717 802.297 257.77 802.327 257.739 802.443C236.271 826.497 213.486 849.143 195.91 876.247C195.187 877.385 196.513 875.471 195.122 877.673C187.071 890.577 180.669 904.094 177.878 919.374C177.633 920.889 177.505 920.074 176.987 924.575C176.836 925.347 176.443 932.205 176.58 933.935C176.591 934.174 176.647 932.935 176.687 935.121C176.931 947.875 180.71 961.039 186.407 972.447C187.349 974.334 186.257 972.366 186.935 973.712C191.574 982.921 198.279 992.339 204.581 1000.01C208.925 1005.24 207.127 1003.32 209.372 1006.08C209.674 1006.47 212.505 1009.55 212.609 1009.77C212.839 1010.33 211.268 1008.98 211.678 1009.75C211.74 1009.91 215.769 1014.05 213.32 1011.66C213.136 1011.49 210.285 1008.5 209.601 1007.79C209.115 1007.3 209.89 1008.28 208.915 1007.26C207.945 1006.23 206.973 1005.03 205.463 1003.34C203.927 1001.59 204.441 1002.4 201.448 998.739ZM109.193 345.81C112.729 346.757 113.327 346.594 109.462 345.725C109.275 345.683 109.011 345.761 109.193 345.81ZM192.353 124.693C196.006 127.691 198.734 129.863 196.137 127.516C193.564 125.245 191.213 123.774 192.353 124.693ZM149.978 97.9404C154.801 100.833 155.788 100.913 150.517 97.9795C150.21 97.809 149.695 97.7711 149.978 97.9404ZM198.898 993.439C198.916 993.479 200.683 995.797 200.738 995.852C201.758 997.027 198.218 992.392 198.898 993.439ZM107.302 72.4748C108.713 73.4987 113.032 76.2071 111.224 74.954C109.757 73.9504 105.53 71.2059 107.302 72.4748ZM296.616 390.491C296.674 390.514 298.739 391.208 298.703 391.171C298.595 391.045 295.702 390.109 296.616 390.491ZM61.6339 6.78982C60.8492 13.0472 61.596 18.0083 61.8246 19.7439C62.1765 21.4615 61.3303 20.077 61.0011 13.2336C60.8796 10.7769 61.4424 18.5388 61.2585 15.3977C60.9561 9.69667 61.1223 5.88674 62.704 0.101711C62.9091 -0.925414 61.5683 6.14721 61.6318 6.81123C61.6325 6.80407 61.6332 6.79696 61.6339 6.78982ZM111.156 346.659C111.224 346.68 114.094 347.377 114.166 347.39C115.744 347.673 109.96 346.269 111.156 346.659ZM353.73 472.637C353.681 472.832 348.036 476.754 347.801 476.771C346.281 477.737 348.593 476.518 350.709 475.056C352.97 473.521 354.926 471.722 353.73 472.637ZM37.9154 236.657C40.9034 235.325 44.5315 234.013 47.0221 233.317C43.9704 234.326 40.9379 235.429 37.9154 236.657Z" fill="#676476"/>
<path d="M211.5 1024.03L208.673 1021.51C198.63 1012.6 192 1006.73 192 999.516C192 993.641 196.719 989.025 202.725 989.025C206.118 989.025 209.375 990.57 211.5 993.012C213.625 990.57 216.882 989.025 220.275 989.025C226.281 989.025 231 993.641 231 999.516C231 1006.73 224.37 1012.6 214.327 1021.53L211.5 1024.03Z" fill="#E76767"/>
</svg>
